<ttFont>
<head>
    <!-- Most of this table will be recalculated by the compiler -->
    <tableVersion value="1.0"/>
    <fontRevision value="1.0"/>
    <checkSumAdjustment value="0x3f1ce16c"/>
    <magicNumber value="0x5f0f3cf5"/>
    <flags value="00000000 00001001"/>
    <unitsPerEm value="1000"/>
    <created value="Mon May 29 04:27:37 2006"/>
    <modified value="Mon May 29 04:28:06 2006"/>
    <xMin value="10"/>
    <yMin value="-163"/>
    <xMax value="853"/>
    <yMax value="833"/>
    <macStyle value="00000000 00000000"/>
    <lowestRecPPEM value="11"/>
    <fontDirectionHint value="2"/>
    <indexToLocFormat value="0"/>
    <glyphDataFormat value="0"/>
  </head>
    <TTGlyph name=".notdef" xMin="10" yMin="0" xMax="726" yMax="731">
      <contour>
        <pt x="169" y="8" on="1"/>
        <pt x="167" y="10" on="0"/>
        <pt x="167" y="16" on="1"/>
        <pt x="153" y="16" on="1"/>
        <pt x="152" y="27" on="0"/>
        <pt x="141" y="50" on="0"/>
        <pt x="128" y="50" on="1"/>
        <pt x="126" y="50" on="1"/>
        <pt x="106" y="36" on="0"/>
        <pt x="75" y="22" on="0"/>
        <pt x="51" y="22" on="1"/>
        <pt x="51" y="32" on="0"/>
        <pt x="62" y="46" on="0"/>
        <pt x="64" y="56" on="1"/>
        <pt x="60" y="56" on="0"/>
        <pt x="35" y="57" on="0"/>
        <pt x="31" y="58" on="1"/>
        <pt x="29" y="58" on="0"/>
        <pt x="22" y="60" on="0"/>
        <pt x="20" y="60" on="1"/>
        <pt x="20" y="64" on="1"/>
        <pt x="20" y="72" on="0"/>
        <pt x="28" y="83" on="0"/>
        <pt x="31" y="91" on="1"/>
        <pt x="31" y="92" on="0"/>
        <pt x="32" y="100" on="0"/>
        <pt x="33" y="101" on="1"/>
        <pt x="33" y="102" on="0"/>
        <pt x="38" y="105" on="0"/>
        <pt x="39" y="106" on="1"/>
        <pt x="47" y="112" on="0"/>
        <pt x="54" y="123" on="0"/>
        <pt x="54" y="133" on="1"/>
        <pt x="54" y="142" on="0"/>
        <pt x="29" y="158" on="0"/>
        <pt x="22" y="166" on="1"/>
        <pt x="13" y="177" on="0"/>
        <pt x="10" y="212" on="0"/>
        <pt x="10" y="226" on="1"/>
        <pt x="10" y="239" on="1"/>
        <pt x="10" y="245" on="0"/>
        <pt x="16" y="250" on="1"/>
        <pt x="17" y="251" on="0"/>
        <pt x="27" y="259" on="0"/>
        <pt x="38" y="268" on="0"/>
        <pt x="48" y="276" on="0"/>
        <pt x="49" y="277" on="1"/>
        <pt x="52" y="280" on="0"/>
        <pt x="52" y="284" on="1"/>
        <pt x="52" y="309" on="0"/>
        <pt x="33" y="355" on="0"/>
        <pt x="33" y="380" on="1"/>
        <pt x="33" y="385" on="0"/>
        <pt x="34" y="393" on="0"/>
        <pt x="37" y="397" on="1"/>
        <pt x="37" y="416" on="1"/>
        <pt x="37" y="435" on="1"/>
        <pt x="36" y="447" on="0"/>
        <pt x="34" y="484" on="0"/>
        <pt x="31" y="518" on="0"/>
        <pt x="29" y="544" on="1"/>
        <pt x="18" y="557" on="1"/>
        <pt x="18" y="559" on="1"/>
        <pt x="18" y="569" on="0"/>
        <pt x="26" y="586" on="0"/>
        <pt x="37" y="603" on="0"/>
        <pt x="45" y="622" on="0"/>
        <pt x="45" y="633" on="1"/>
        <pt x="45" y="644" on="0"/>
        <pt x="43" y="645" on="0"/>
        <pt x="43" y="646" on="1"/>
        <pt x="41" y="648" on="0"/>
        <pt x="33" y="660" on="0"/>
        <pt x="31" y="662" on="1"/>
        <pt x="31" y="665" on="1"/>
        <pt x="31" y="669" on="0"/>
        <pt x="42" y="687" on="0"/>
        <pt x="55" y="705" on="0"/>
        <pt x="67" y="718" on="0"/>
        <pt x="68" y="718" on="1"/>
        <pt x="93" y="718" on="1"/>
        <pt x="95" y="718" on="0"/>
        <pt x="105" y="699" on="0"/>
        <pt x="120" y="697" on="1"/>
        <pt x="140" y="697" on="1"/>
        <pt x="161" y="697" on="1"/>
        <pt x="164" y="697" on="0"/>
        <pt x="181" y="698" on="0"/>
        <pt x="201" y="700" on="0"/>
        <pt x="218" y="701" on="0"/>
        <pt x="221" y="701" on="1"/>
        <pt x="238" y="705" on="0"/>
        <pt x="267" y="720" on="0"/>
        <pt x="281" y="730" on="1"/>
        <pt x="282" y="730" on="0"/>
        <pt x="285" y="731" on="0"/>
        <pt x="286" y="731" on="1"/>
        <pt x="288" y="731" on="0"/>
        <pt x="301" y="728" on="0"/>
        <pt x="315" y="724" on="0"/>
        <pt x="326" y="719" on="0"/>
        <pt x="326" y="718" on="1"/>
        <pt x="326" y="687" on="1"/>
        <pt x="336" y="687" on="0"/>
        <pt x="356" y="696" on="0"/>
        <pt x="376" y="707" on="0"/>
        <pt x="396" y="718" on="0"/>
        <pt x="407" y="720" on="1"/>
        <pt x="428" y="720" on="1"/>
        <pt x="453" y="720" on="0"/>
        <pt x="500" y="712" on="0"/>
        <pt x="525" y="712" on="1"/>
        <pt x="538" y="712" on="1"/>
        <pt x="548" y="718" on="0"/>
        <pt x="568" y="726" on="0"/>
        <pt x="580" y="726" on="1"/>
        <pt x="596" y="726" on="0"/>
        <pt x="627" y="717" on="0"/>
        <pt x="657" y="705" on="0"/>
        <pt x="688" y="694" on="0"/>
        <pt x="705" y="693" on="1"/>
        <pt x="705" y="678" on="1"/>
        <pt x="705" y="652" on="0"/>
        <pt x="692" y="605" on="0"/>
        <pt x="692" y="580" on="1"/>
        <pt x="692" y="569" on="1"/>
        <pt x="692" y="559" on="0"/>
        <pt x="697" y="536" on="0"/>
        <pt x="705" y="534" on="1"/>
        <pt x="705" y="532" on="0"/>
        <pt x="706" y="518" on="0"/>
        <pt x="706" y="516" on="1"/>
        <pt x="706" y="513" on="0"/>
        <pt x="705" y="500" on="0"/>
        <pt x="705" y="499" on="1"/>
        <pt x="705" y="493" on="0"/>
        <pt x="702" y="466" on="0"/>
        <pt x="699" y="434" on="0"/>
        <pt x="696" y="407" on="0"/>
        <pt x="695" y="401" on="1"/>
        <pt x="691" y="393" on="0"/>
        <pt x="682" y="379" on="0"/>
        <pt x="682" y="370" on="1"/>
        <pt x="682" y="359" on="0"/>
        <pt x="695" y="340" on="0"/>
        <pt x="697" y="329" on="1"/>
        <pt x="697" y="327" on="0"/>
        <pt x="699" y="311" on="0"/>
        <pt x="701" y="293" on="0"/>
        <pt x="703" y="277" on="0"/>
        <pt x="703" y="275" on="1"/>
        <pt x="705" y="266" on="0"/>
        <pt x="712" y="246" on="0"/>
        <pt x="720" y="240" on="1"/>
        <pt x="722" y="227" on="0"/>
        <pt x="726" y="204" on="0"/>
        <pt x="726" y="192" on="1"/>
        <pt x="726" y="184" on="1"/>
        <pt x="691" y="145" on="1"/>
        <pt x="691" y="141" on="1"/>
        <pt x="691" y="116" on="0"/>
        <pt x="703" y="70" on="0"/>
        <pt x="703" y="46" on="1"/>
        <pt x="703" y="35" on="1"/>
        <pt x="694" y="24" on="0"/>
        <pt x="653" y="8" on="0"/>
        <pt x="638" y="8" on="1"/>
        <pt x="629" y="8" on="0"/>
        <pt x="620" y="25" on="0"/>
        <pt x="614" y="31" on="1"/>
        <pt x="609" y="36" on="0"/>
        <pt x="588" y="42" on="0"/>
        <pt x="581" y="42" on="1"/>
        <pt x="580" y="42" on="0"/>
        <pt x="576" y="41" on="0"/>
        <pt x="575" y="41" on="1"/>
        <pt x="574" y="38" on="0"/>
        <pt x="563" y="27" on="0"/>
        <pt x="549" y="17" on="0"/>
        <pt x="535" y="10" on="0"/>
        <pt x="532" y="10" on="1"/>
        <pt x="525" y="10" on="0"/>
        <pt x="501" y="12" on="0"/>
        <pt x="496" y="19" on="1"/>
        <pt x="489" y="30" on="0"/>
        <pt x="464" y="31" on="0"/>
        <pt x="452" y="31" on="1"/>
        <pt x="431" y="31" on="0"/>
        <pt x="393" y="21" on="0"/>
        <pt x="355" y="10" on="0"/>
        <pt x="318" y="0" on="0"/>
        <pt x="298" y="0" on="1"/>
        <pt x="287" y="0" on="1"/>
        <pt x="282" y="7" on="0"/>
        <pt x="268" y="14" on="0"/>
        <pt x="260" y="19" on="1"/>
        <pt x="258" y="20" on="0"/>
        <pt x="251" y="25" on="1"/>
        <pt x="251" y="41" on="0"/>
        <pt x="246" y="42" on="0"/>
        <pt x="244" y="41" on="1"/>
        <pt x="236" y="39" on="0"/>
        <pt x="209" y="32" on="0"/>
        <pt x="202" y="27" on="1"/>
        <pt x="197" y="22" on="0"/>
        <pt x="180" y="8" on="0"/>
        <pt x="172" y="8" on="1"/>
      </contour>
      <contour>
        <pt x="469" y="139" on="1"/>
        <pt x="480" y="139" on="0"/>
        <pt x="492" y="127" on="0"/>
        <pt x="502" y="124" on="1"/>
        <pt x="507" y="123" on="0"/>
        <pt x="515" y="122" on="0"/>
        <pt x="518" y="122" on="1"/>
        <pt x="536" y="122" on="1"/>
        <pt x="558" y="122" on="1"/>
        <pt x="562" y="122" on="0"/>
        <pt x="585" y="124" on="0"/>
        <pt x="610" y="126" on="0"/>
        <pt x="632" y="128" on="0"/>
        <pt x="637" y="128" on="1"/>
        <pt x="637" y="197" on="0"/>
        <pt x="633" y="200" on="0"/>
        <pt x="631" y="201" on="1"/>
        <pt x="624" y="205" on="0"/>
        <pt x="611" y="205" on="1"/>
        <pt x="608" y="205" on="0"/>
        <pt x="603" y="198" on="0"/>
        <pt x="600" y="197" on="1"/>
        <pt x="599" y="196" on="0"/>
        <pt x="594" y="196" on="1"/>
        <pt x="588" y="196" on="1"/>
        <pt x="578" y="196" on="0"/>
        <pt x="563" y="202" on="0"/>
        <pt x="552" y="203" on="1"/>
        <pt x="549" y="203" on="0"/>
        <pt x="525" y="204" on="0"/>
        <pt x="497" y="206" on="0"/>
        <pt x="472" y="207" on="0"/>
        <pt x="469" y="207" on="1"/>
        <pt x="467" y="207" on="0"/>
        <pt x="457" y="209" on="0"/>
        <pt x="455" y="209" on="1"/>
        <pt x="455" y="210" on="0"/>
        <pt x="449" y="219" on="0"/>
        <pt x="443" y="230" on="0"/>
        <pt x="438" y="240" on="1"/>
        <pt x="438" y="241" on="0"/>
        <pt x="431" y="247" on="0"/>
        <pt x="430" y="248" on="1"/>
        <pt x="426" y="253" on="0"/>
        <pt x="428" y="268" on="0"/>
        <pt x="424" y="273" on="1"/>
        <pt x="419" y="279" on="0"/>
        <pt x="413" y="279" on="1"/>
        <pt x="413" y="285" on="1"/>
        <pt x="413" y="292" on="0"/>
        <pt x="422" y="300" on="1"/>
        <pt x="429" y="300" on="0"/>
        <pt x="467" y="301" on="0"/>
        <pt x="488" y="301" on="1"/>
        <pt x="509" y="301" on="0"/>
        <pt x="546" y="302" on="0"/>
        <pt x="554" y="302" on="1"/>
        <pt x="560" y="302" on="0"/>
        <pt x="581" y="303" on="0"/>
        <pt x="603" y="306" on="0"/>
        <pt x="623" y="311" on="0"/>
        <pt x="629" y="315" on="1"/>
        <pt x="628" y="322" on="0"/>
        <pt x="627" y="332" on="0"/>
        <pt x="627" y="336" on="1"/>
        <pt x="627" y="355" on="1"/>
        <pt x="627" y="364" on="1"/>
        <pt x="627" y="365" on="0"/>
        <pt x="629" y="373" on="0"/>
        <pt x="629" y="375" on="0"/>
        <pt x="627" y="385" on="0"/>
        <pt x="627" y="387" on="1"/>
        <pt x="626" y="389" on="0"/>
        <pt x="623" y="404" on="0"/>
        <pt x="622" y="406" on="1"/>
        <pt x="591" y="406" on="1"/>
        <pt x="579" y="406" on="0"/>
        <pt x="543" y="407" on="0"/>
        <pt x="533" y="396" on="1"/>
        <pt x="465" y="396" on="1"/>
        <pt x="460" y="390" on="0"/>
        <pt x="450" y="383" on="0"/>
        <pt x="442" y="383" on="1"/>
        <pt x="437" y="383" on="0"/>
        <pt x="434" y="386" on="0"/>
        <pt x="430" y="396" on="0"/>
        <pt x="418" y="403" on="0"/>
        <pt x="416" y="408" on="1"/>
        <pt x="407" y="435" on="1"/>
        <pt x="401" y="438" on="0"/>
        <pt x="398" y="450" on="0"/>
        <pt x="397" y="463" on="0"/>
        <pt x="393" y="475" on="0"/>
        <pt x="387" y="478" on="1"/>
        <pt x="387" y="501" on="1"/>
        <pt x="393" y="507" on="1"/>
        <pt x="413" y="524" on="0"/>
        <pt x="456" y="532" on="0"/>
        <pt x="483" y="532" on="1"/>
        <pt x="489" y="532" on="0"/>
        <pt x="496" y="526" on="0"/>
        <pt x="503" y="518" on="0"/>
        <pt x="510" y="510" on="0"/>
        <pt x="515" y="509" on="1"/>
        <pt x="532" y="508" on="0"/>
        <pt x="558" y="507" on="0"/>
        <pt x="573" y="507" on="1"/>
        <pt x="581" y="507" on="1"/>
        <pt x="583" y="511" on="0"/>
        <pt x="597" y="516" on="0"/>
        <pt x="611" y="517" on="0"/>
        <pt x="622" y="518" on="0"/>
        <pt x="622" y="519" on="1"/>
        <pt x="622" y="557" on="1"/>
        <pt x="618" y="563" on="0"/>
        <pt x="616" y="571" on="1"/>
        <pt x="616" y="577" on="0"/>
        <pt x="612" y="609" on="0"/>
        <pt x="612" y="615" on="1"/>
        <pt x="612" y="617" on="0"/>
        <pt x="610" y="633" on="0"/>
        <pt x="605" y="633" on="1"/>
        <pt x="598" y="633" on="0"/>
        <pt x="586" y="623" on="0"/>
        <pt x="579" y="621" on="1"/>
        <pt x="552" y="608" on="0"/>
        <pt x="511" y="608" on="1"/>
        <pt x="493" y="608" on="0"/>
        <pt x="458" y="611" on="0"/>
        <pt x="440" y="611" on="1"/>
        <pt x="414" y="611" on="0"/>
        <pt x="366" y="602" on="0"/>
        <pt x="340" y="602" on="1"/>
        <pt x="312" y="602" on="1"/>
        <pt x="303" y="604" on="0"/>
        <pt x="295" y="613" on="0"/>
        <pt x="287" y="621" on="1"/>
        <pt x="284" y="621" on="1"/>
        <pt x="273" y="621" on="0"/>
        <pt x="255" y="594" on="0"/>
        <pt x="248" y="586" on="1"/>
        <pt x="247" y="584" on="0"/>
        <pt x="241" y="575" on="0"/>
        <pt x="240" y="573" on="1"/>
        <pt x="239" y="572" on="0"/>
        <pt x="234" y="561" on="0"/>
        <pt x="228" y="548" on="0"/>
        <pt x="222" y="537" on="0"/>
        <pt x="221" y="536" on="1"/>
        <pt x="215" y="527" on="0"/>
        <pt x="213" y="526" on="1"/>
        <pt x="208" y="521" on="0"/>
        <pt x="200" y="519" on="0"/>
        <pt x="194" y="517" on="1"/>
        <pt x="189" y="515" on="0"/>
        <pt x="185" y="505" on="0"/>
        <pt x="180" y="503" on="1"/>
        <pt x="179" y="501" on="0"/>
        <pt x="178" y="486" on="0"/>
        <pt x="178" y="484" on="1"/>
        <pt x="178" y="482" on="1"/>
        <pt x="178" y="477" on="0"/>
        <pt x="184" y="469" on="0"/>
        <pt x="184" y="464" on="1"/>
        <pt x="184" y="461" on="0"/>
        <pt x="182" y="450" on="0"/>
        <pt x="180" y="438" on="0"/>
        <pt x="177" y="429" on="0"/>
        <pt x="176" y="428" on="1"/>
        <pt x="175" y="425" on="0"/>
        <pt x="176" y="403" on="0"/>
        <pt x="178" y="399" on="1"/>
        <pt x="181" y="387" on="0"/>
        <pt x="192" y="374" on="0"/>
        <pt x="192" y="362" on="1"/>
        <pt x="192" y="345" on="0"/>
        <pt x="184" y="305" on="0"/>
        <pt x="176" y="290" on="1"/>
        <pt x="174" y="288" on="0"/>
        <pt x="167" y="271" on="0"/>
        <pt x="165" y="269" on="1"/>
        <pt x="167" y="267" on="0"/>
        <pt x="163" y="263" on="0"/>
        <pt x="161" y="263" on="1"/>
        <pt x="149" y="250" on="0"/>
        <pt x="145" y="217" on="0"/>
        <pt x="142" y="201" on="1"/>
        <pt x="142" y="195" on="0"/>
        <pt x="140" y="195" on="1"/>
        <pt x="122" y="174" on="1"/>
        <pt x="111" y="172" on="0"/>
        <pt x="103" y="155" on="0"/>
        <pt x="103" y="146" on="1"/>
        <pt x="103" y="138" on="0"/>
        <pt x="107" y="140" on="0"/>
        <pt x="113" y="137" on="1"/>
        <pt x="116" y="135" on="0"/>
        <pt x="116" y="134" on="1"/>
        <pt x="116" y="132" on="1"/>
        <pt x="116" y="130" on="0"/>
        <pt x="124" y="130" on="1"/>
        <pt x="130" y="130" on="0"/>
        <pt x="136" y="139" on="0"/>
        <pt x="141" y="139" on="1"/>
        <pt x="142" y="139" on="1"/>
        <pt x="144" y="138" on="0"/>
        <pt x="154" y="133" on="0"/>
        <pt x="155" y="132" on="1"/>
        <pt x="156" y="132" on="0"/>
        <pt x="161" y="130" on="1"/>
        <pt x="200" y="130" on="1"/>
        <pt x="202" y="132" on="0"/>
        <pt x="210" y="142" on="0"/>
        <pt x="215" y="143" on="1"/>
        <pt x="215" y="195" on="1"/>
        <pt x="215" y="196" on="0"/>
        <pt x="218" y="201" on="0"/>
        <pt x="219" y="203" on="1"/>
        <pt x="221" y="205" on="0"/>
        <pt x="235" y="217" on="0"/>
        <pt x="237" y="219" on="1"/>
        <pt x="237" y="242" on="1"/>
        <pt x="242" y="246" on="0"/>
        <pt x="245" y="262" on="0"/>
        <pt x="246" y="267" on="1"/>
        <pt x="248" y="271" on="0"/>
        <pt x="263" y="275" on="0"/>
        <pt x="267" y="275" on="1"/>
        <pt x="313" y="275" on="1"/>
        <pt x="313" y="273" on="0"/>
        <pt x="309" y="265" on="0"/>
        <pt x="310" y="263" on="1"/>
        <pt x="310" y="262" on="0"/>
        <pt x="318" y="259" on="1"/>
        <pt x="320" y="257" on="0"/>
        <pt x="329" y="253" on="0"/>
        <pt x="329" y="252" on="1"/>
        <pt x="339" y="149" on="1"/>
        <pt x="355" y="147" on="0"/>
        <pt x="372" y="143" on="1"/>
        <pt x="376" y="141" on="0"/>
        <pt x="378" y="135" on="0"/>
        <pt x="380" y="130" on="0"/>
        <pt x="386" y="126" on="0"/>
        <pt x="395" y="126" on="1"/>
        <pt x="403" y="126" on="1"/>
        <pt x="463" y="139" on="1"/>
        <pt x="469" y="139" on="1"/>
      </contour>
      <contour>
        <pt x="268" y="382" on="1"/>
        <pt x="268" y="383" on="0"/>
        <pt x="269" y="388" on="0"/>
        <pt x="269" y="389" on="1"/>
        <pt x="271" y="390" on="0"/>
        <pt x="279" y="393" on="0"/>
        <pt x="279" y="397" on="1"/>
        <pt x="279" y="401" on="0"/>
        <pt x="280" y="423" on="0"/>
        <pt x="281" y="426" on="1"/>
        <pt x="281" y="428" on="0"/>
        <pt x="285" y="437" on="0"/>
        <pt x="285" y="439" on="1"/>
        <pt x="285" y="444" on="1"/>
        <pt x="285" y="452" on="0"/>
        <pt x="279" y="466" on="0"/>
        <pt x="279" y="474" on="1"/>
        <pt x="296" y="474" on="1"/>
        <pt x="301" y="466" on="0"/>
        <pt x="307" y="466" on="1"/>
        <pt x="307" y="449" on="1"/>
        <pt x="307" y="445" on="0"/>
        <pt x="321" y="447" on="0"/>
        <pt x="320" y="441" on="1"/>
        <pt x="320" y="436" on="0"/>
        <pt x="322" y="410" on="0"/>
        <pt x="322" y="399" on="1"/>
        <pt x="322" y="389" on="1"/>
        <pt x="322" y="382" on="1"/>
        <pt x="322" y="375" on="1"/>
        <pt x="318" y="369" on="0"/>
        <pt x="296" y="352" on="0"/>
        <pt x="287" y="352" on="1"/>
        <pt x="279" y="352" on="0"/>
        <pt x="268" y="375" on="0"/>
      </contour>
    </TTGlyph>
    <TTGlyph name="A" xMin="20" yMin="0" xMax="603" yMax="750">
      <contour>
        <pt x="603" y="41" on="1"/>
        <pt x="603" y="24" on="0"/>
        <pt x="579" y="0" on="0"/>
        <pt x="562" y="0" on="1"/>
        <pt x="520" y="0" on="1"/>
        <pt x="496" y="0" on="0"/>
        <pt x="477" y="16" on="1"/>
        <pt x="461" y="0" on="0"/>
        <pt x="437" y="0" on="1"/>
        <pt x="395" y="0" on="1"/>
        <pt x="378" y="0" on="0"/>
        <pt x="353" y="23" on="0"/>
        <pt x="353" y="41" on="1"/>
        <pt x="353" y="59" on="0"/>
        <pt x="377" y="83" on="0"/>
        <pt x="395" y="83" on="1"/>
        <pt x="419" y="83" on="1"/>
        <pt x="421" y="113" on="0"/>
        <pt x="414" y="128" on="1"/>
        <pt x="400" y="184" on="1"/>
        <pt x="393" y="210" on="0"/>
        <pt x="343" y="250" on="0"/>
        <pt x="316" y="250" on="1"/>
        <pt x="308" y="250" on="1"/>
        <pt x="281" y="250" on="0"/>
        <pt x="231" y="210" on="0"/>
        <pt x="224" y="184" on="1"/>
        <pt x="210" y="128" on="1"/>
        <pt x="203" y="113" on="0"/>
        <pt x="205" y="83" on="1"/>
        <pt x="228" y="83" on="1"/>
        <pt x="246" y="83" on="0"/>
        <pt x="270" y="59" on="0"/>
        <pt x="270" y="41" on="1"/>
        <pt x="270" y="24" on="0"/>
        <pt x="246" y="0" on="0"/>
        <pt x="228" y="0" on="1"/>
        <pt x="187" y="0" on="1"/>
        <pt x="163" y="0" on="0"/>
        <pt x="147" y="16" on="1"/>
        <pt x="128" y="0" on="0"/>
        <pt x="103" y="0" on="1"/>
        <pt x="62" y="0" on="1"/>
        <pt x="45" y="0" on="0"/>
        <pt x="20" y="23" on="0"/>
        <pt x="20" y="41" on="1"/>
        <pt x="20" y="59" on="0"/>
        <pt x="44" y="83" on="0"/>
        <pt x="62" y="83" on="1"/>
        <pt x="97" y="83" on="1"/>
        <pt x="102" y="87" on="0"/>
        <pt x="112" y="103" on="0"/>
        <pt x="117" y="114" on="1"/>
        <pt x="125" y="129" on="0"/>
        <pt x="129" y="148" on="1"/>
        <pt x="247" y="621" on="1"/>
        <pt x="254" y="636" on="0"/>
        <pt x="252" y="666" on="1"/>
        <pt x="228" y="666" on="1"/>
        <pt x="211" y="666" on="0"/>
        <pt x="187" y="690" on="0"/>
        <pt x="187" y="708" on="1"/>
        <pt x="187" y="725" on="0"/>
        <pt x="210" y="750" on="0"/>
        <pt x="228" y="750" on="1"/>
        <pt x="270" y="750" on="1"/>
        <pt x="294" y="750" on="0"/>
        <pt x="312" y="732" on="1"/>
        <pt x="330" y="750" on="0"/>
        <pt x="353" y="750" on="1"/>
        <pt x="395" y="750" on="1"/>
        <pt x="413" y="750" on="0"/>
        <pt x="437" y="726" on="0"/>
        <pt x="437" y="708" on="1"/>
        <pt x="437" y="690" on="0"/>
        <pt x="413" y="666" on="0"/>
        <pt x="395" y="666" on="1"/>
        <pt x="371" y="666" on="1"/>
        <pt x="371" y="657" on="0"/>
        <pt x="372" y="639" on="0"/>
        <pt x="377" y="621" on="1"/>
        <pt x="495" y="148" on="1"/>
        <pt x="497" y="137" on="0"/>
        <pt x="506" y="115" on="0"/>
        <pt x="511" y="105" on="1"/>
        <pt x="515" y="98" on="0"/>
        <pt x="522" y="87" on="0"/>
        <pt x="526" y="83" on="1"/>
        <pt x="562" y="83" on="1"/>
        <pt x="579" y="83" on="0"/>
        <pt x="603" y="59" on="0"/>
      </contour>
      <contour>
        <pt x="312" y="536" on="1"/>
        <pt x="259" y="325" on="1"/>
        <pt x="293" y="333" on="0"/>
        <pt x="308" y="333" on="1"/>
        <pt x="316" y="333" on="1"/>
        <pt x="331" y="333" on="0"/>
        <pt x="365" y="325" on="1"/>
      </contour>
    </TTGlyph>
    <TTGlyph name="AE" xMin="20" yMin="0" xMax="853" yMax="750">
      <contour>
        <pt x="853" y="625" on="1"/>
        <pt x="853" y="607" on="0"/>
        <pt x="829" y="583" on="0"/>
        <pt x="811" y="583" on="1"/>
        <pt x="794" y="583" on="0"/>
        <pt x="770" y="607" on="0"/>
        <pt x="770" y="625" on="1"/>
        <pt x="770" y="656" on="1"/>
        <pt x="769" y="657" on="0"/>
        <pt x="756" y="660" on="1"/>
        <pt x="732" y="666" on="0"/>
        <pt x="711" y="666" on="1"/>
        <pt x="578" y="666" on="1"/>
        <pt x="554" y="666" on="0"/>
        <pt x="520" y="642" on="0"/>
        <pt x="520" y="625" on="1"/>
        <pt x="520" y="416" on="1"/>
        <pt x="645" y="416" on="1"/>
        <pt x="662" y="416" on="0"/>
        <pt x="686" y="392" on="0"/>
        <pt x="686" y="375" on="1"/>
        <pt x="686" y="358" on="0"/>
        <pt x="663" y="333" on="0"/>
        <pt x="645" y="333" on="1"/>
        <pt x="520" y="333" on="1"/>
        <pt x="520" y="141" on="1"/>
        <pt x="520" y="117" on="0"/>
        <pt x="554" y="83" on="0"/>
        <pt x="578" y="83" on="1"/>
        <pt x="711" y="83" on="1"/>
        <pt x="734" y="83" on="0"/>
        <pt x="760" y="89" on="0"/>
        <pt x="770" y="94" on="1"/>
        <pt x="770" y="125" on="1"/>
        <pt x="770" y="142" on="0"/>
        <pt x="794" y="166" on="0"/>
        <pt x="811" y="166" on="1"/>
        <pt x="828" y="166" on="0"/>
        <pt x="853" y="143" on="0"/>
        <pt x="853" y="125" on="1"/>
        <pt x="853" y="83" on="1"/>
        <pt x="853" y="46" on="0"/>
        <pt x="775" y="0" on="0"/>
        <pt x="711" y="0" on="1"/>
        <pt x="578" y="0" on="1"/>
        <pt x="529" y="0" on="0"/>
        <pt x="490" y="30" on="1"/>
        <pt x="467" y="0" on="0"/>
        <pt x="436" y="0" on="1"/>
        <pt x="395" y="0" on="1"/>
        <pt x="378" y="0" on="0"/>
        <pt x="353" y="23" on="0"/>
        <pt x="353" y="41" on="1"/>
        <pt x="353" y="59" on="0"/>
        <pt x="377" y="83" on="0"/>
        <pt x="395" y="83" on="1"/>
        <pt x="426" y="83" on="1"/>
        <pt x="429" y="90" on="0"/>
        <pt x="436" y="123" on="0"/>
        <pt x="436" y="141" on="1"/>
        <pt x="436" y="191" on="1"/>
        <pt x="436" y="214" on="0"/>
        <pt x="402" y="250" on="0"/>
        <pt x="378" y="250" on="1"/>
        <pt x="370" y="250" on="1"/>
        <pt x="355" y="250" on="0"/>
        <pt x="323" y="239" on="0"/>
        <pt x="293" y="221" on="0"/>
        <pt x="269" y="196" on="0"/>
        <pt x="262" y="183" on="1"/>
        <pt x="227" y="112" on="1"/>
        <pt x="215" y="83" on="1"/>
        <pt x="228" y="83" on="1"/>
        <pt x="246" y="83" on="0"/>
        <pt x="270" y="59" on="0"/>
        <pt x="270" y="41" on="1"/>
        <pt x="270" y="24" on="0"/>
        <pt x="246" y="0" on="0"/>
        <pt x="228" y="0" on="1"/>
        <pt x="186" y="0" on="1"/>
        <pt x="163" y="0" on="0"/>
        <pt x="147" y="15" on="1"/>
        <pt x="124" y="0" on="0"/>
        <pt x="103" y="0" on="1"/>
        <pt x="61" y="0" on="1"/>
        <pt x="44" y="0" on="0"/>
        <pt x="20" y="24" on="0"/>
        <pt x="20" y="41" on="1"/>
        <pt x="20" y="58" on="0"/>
        <pt x="43" y="83" on="0"/>
        <pt x="61" y="83" on="1"/>
        <pt x="99" y="83" on="1"/>
        <pt x="110" y="87" on="0"/>
        <pt x="129" y="112" on="1"/>
        <pt x="136" y="121" on="0"/>
        <pt x="147" y="139" on="0"/>
        <pt x="152" y="149" on="1"/>
        <pt x="396" y="637" on="1"/>
        <pt x="408" y="666" on="1"/>
        <pt x="395" y="666" on="1"/>
        <pt x="377" y="666" on="0"/>
        <pt x="353" y="690" on="0"/>
        <pt x="353" y="708" on="1"/>
        <pt x="353" y="726" on="0"/>
        <pt x="377" y="750" on="0"/>
        <pt x="395" y="750" on="1"/>
        <pt x="436" y="750" on="1"/>
        <pt x="445" y="749" on="1"/>
        <pt x="452" y="747" on="1"/>
        <pt x="456" y="746" on="1"/>
        <pt x="459" y="745" on="1"/>
        <pt x="477" y="737" on="0"/>
        <pt x="489" y="722" on="1"/>
        <pt x="507" y="735" on="0"/>
        <pt x="553" y="750" on="0"/>
        <pt x="578" y="750" on="1"/>
        <pt x="711" y="750" on="1"/>
        <pt x="774" y="750" on="0"/>
        <pt x="853" y="703" on="0"/>
        <pt x="853" y="666" on="1"/>
      </contour>
      <contour>
        <pt x="436" y="531" on="1"/>
        <pt x="335" y="329" on="1"/>
        <pt x="344" y="333" on="0"/>
        <pt x="370" y="333" on="1"/>
        <pt x="378" y="333" on="1"/>
        <pt x="411" y="333" on="0"/>
        <pt x="436" y="320" on="1"/>
      </contour>
    </TTGlyph>
    <TTGlyph name="B" xMin="20" yMin="0" xMax="520" yMax="750">
      <contour>
        <pt x="520" y="475" on="1"/>
        <pt x="520" y="419" on="0"/>
        <pt x="481" y="377" on="1"/>
        <pt x="520" y="335" on="0"/>
        <pt x="520" y="275" on="1"/>
        <pt x="520" y="141" on="1"/>
        <pt x="520" y="82" on="0"/>
        <pt x="438" y="0" on="0"/>
        <pt x="378" y="0" on="1"/>
        <pt x="245" y="0" on="1"/>
        <pt x="196" y="0" on="0"/>
        <pt x="157" y="30" on="1"/>
        <pt x="134" y="0" on="0"/>
        <pt x="103" y="0" on="1"/>
        <pt x="62" y="0" on="1"/>
        <pt x="45" y="0" on="0"/>
        <pt x="20" y="23" on="0"/>
        <pt x="20" y="41" on="1"/>
        <pt x="20" y="59" on="0"/>
        <pt x="44" y="83" on="0"/>
        <pt x="62" y="83" on="1"/>
        <pt x="93" y="83" on="1"/>
        <pt x="96" y="90" on="0"/>
        <pt x="103" y="123" on="0"/>
        <pt x="103" y="141" on="1"/>
        <pt x="103" y="608" on="1"/>
        <pt x="103" y="650" on="0"/>
        <pt x="93" y="666" on="1"/>
        <pt x="62" y="666" on="1"/>
        <pt x="44" y="666" on="0"/>
        <pt x="20" y="690" on="0"/>
        <pt x="20" y="708" on="1"/>
        <pt x="20" y="726" on="0"/>
        <pt x="44" y="750" on="0"/>
        <pt x="62" y="750" on="1"/>
        <pt x="103" y="750" on="1"/>
        <pt x="134" y="750" on="0"/>
        <pt x="156" y="722" on="1"/>
        <pt x="174" y="735" on="0"/>
        <pt x="220" y="750" on="0"/>
        <pt x="245" y="750" on="1"/>
        <pt x="378" y="750" on="1"/>
        <pt x="437" y="750" on="0"/>
        <pt x="478" y="708" on="1"/>
        <pt x="520" y="667" on="0"/>
        <pt x="520" y="608" on="1"/>
      </contour>
      <contour>
        <pt x="187" y="404" on="1"/>
        <pt x="212" y="416" on="0"/>
        <pt x="245" y="416" on="1"/>
        <pt x="378" y="416" on="1"/>
        <pt x="402" y="416" on="0"/>
        <pt x="437" y="451" on="0"/>
        <pt x="437" y="475" on="1"/>
        <pt x="437" y="608" on="1"/>
        <pt x="437" y="632" on="0"/>
        <pt x="403" y="666" on="0"/>
        <pt x="378" y="666" on="1"/>
        <pt x="245" y="666" on="1"/>
        <pt x="221" y="666" on="0"/>
        <pt x="187" y="642" on="0"/>
        <pt x="187" y="625" on="1"/>
        <pt x="187" y="404" on="1"/>
      </contour>
      <contour>
        <pt x="437" y="275" on="1"/>
        <pt x="437" y="299" on="0"/>
        <pt x="413" y="333" on="0"/>
        <pt x="395" y="333" on="1"/>
        <pt x="245" y="333" on="1"/>
        <pt x="221" y="333" on="0"/>
        <pt x="187" y="299" on="0"/>
        <pt x="187" y="275" on="1"/>
        <pt x="187" y="141" on="1"/>
        <pt x="187" y="117" on="0"/>
        <pt x="221" y="83" on="0"/>
        <pt x="245" y="83" on="1"/>
        <pt x="378" y="83" on="1"/>
        <pt x="401" y="83" on="0"/>
        <pt x="437" y="117" on="0"/>
        <pt x="437" y="141" on="1"/>
        <pt x="437" y="275" on="1"/>
      </contour>
    </TTGlyph>
    <TTGlyph name="C" xMin="20" yMin="0" xMax="436" yMax="750">
      <contour>
        <pt x="436" y="625" on="1"/>
        <pt x="436" y="608" on="0"/>
        <pt x="413" y="583" on="0"/>
        <pt x="395" y="583" on="1"/>
        <pt x="377" y="583" on="0"/>
        <pt x="353" y="607" on="0"/>
        <pt x="353" y="625" on="1"/>
        <pt x="353" y="656" on="1"/>
        <pt x="346" y="659" on="0"/>
        <pt x="313" y="666" on="0"/>
        <pt x="295" y="666" on="1"/>
        <pt x="161" y="666" on="1"/>
        <pt x="137" y="666" on="0"/>
        <pt x="103" y="632" on="0"/>
        <pt x="103" y="608" on="1"/>
        <pt x="103" y="141" on="1"/>
        <pt x="103" y="117" on="0"/>
        <pt x="137" y="83" on="0"/>
        <pt x="161" y="83" on="1"/>
        <pt x="295" y="83" on="1"/>
        <pt x="317" y="83" on="0"/>
        <pt x="344" y="89" on="0"/>
        <pt x="353" y="94" on="1"/>
        <pt x="353" y="125" on="1"/>
        <pt x="353" y="142" on="0"/>
        <pt x="377" y="166" on="0"/>
        <pt x="395" y="166" on="1"/>
        <pt x="412" y="166" on="0"/>
        <pt x="436" y="142" on="0"/>
        <pt x="436" y="125" on="1"/>
        <pt x="436" y="83" on="1"/>
        <pt x="436" y="46" on="0"/>
        <pt x="358" y="0" on="0"/>
        <pt x="295" y="0" on="1"/>
        <pt x="161" y="0" on="1"/>
        <pt x="102" y="0" on="0"/>
        <pt x="20" y="82" on="0"/>
        <pt x="20" y="141" on="1"/>
        <pt x="20" y="608" on="1"/>
        <pt x="20" y="664" on="0"/>
        <pt x="61" y="708" on="1"/>
        <pt x="101" y="750" on="0"/>
        <pt x="161" y="750" on="1"/>
        <pt x="295" y="750" on="1"/>
        <pt x="358" y="750" on="0"/>
        <pt x="436" y="704" on="0"/>
        <pt x="436" y="666" on="1"/>
      </contour>
    </TTGlyph>
    <TTGlyph name="D" xMin="20" yMin="0" xMax="520" yMax="750">
      <contour>
        <pt x="437" y="642" on="1"/>
        <pt x="472" y="607" on="0"/>
        <pt x="496" y="549" on="1"/>
        <pt x="520" y="490" on="0"/>
        <pt x="520" y="441" on="1"/>
        <pt x="520" y="141" on="1"/>
        <pt x="520" y="82" on="0"/>
        <pt x="438" y="0" on="0"/>
        <pt x="378" y="0" on="1"/>
        <pt x="245" y="0" on="1"/>
        <pt x="196" y="0" on="0"/>
        <pt x="157" y="30" on="1"/>
        <pt x="134" y="0" on="0"/>
        <pt x="103" y="0" on="1"/>
        <pt x="62" y="0" on="1"/>
        <pt x="45" y="0" on="0"/>
        <pt x="20" y="23" on="0"/>
        <pt x="20" y="41" on="1"/>
        <pt x="20" y="59" on="0"/>
        <pt x="44" y="83" on="0"/>
        <pt x="62" y="83" on="1"/>
        <pt x="93" y="83" on="1"/>
        <pt x="96" y="90" on="0"/>
        <pt x="103" y="123" on="0"/>
        <pt x="103" y="141" on="1"/>
        <pt x="103" y="608" on="1"/>
        <pt x="103" y="650" on="0"/>
        <pt x="93" y="666" on="1"/>
        <pt x="62" y="666" on="1"/>
        <pt x="44" y="666" on="0"/>
        <pt x="20" y="690" on="0"/>
        <pt x="20" y="708" on="1"/>
        <pt x="20" y="726" on="0"/>
        <pt x="44" y="750" on="0"/>
        <pt x="62" y="750" on="1"/>
        <pt x="103" y="750" on="1"/>
        <pt x="133" y="750" on="0"/>
        <pt x="155" y="722" on="1"/>
        <pt x="189" y="750" on="0"/>
        <pt x="228" y="750" on="1"/>
        <pt x="270" y="750" on="0"/>
        <pt x="323" y="726" on="1"/>
        <pt x="377" y="702" on="0"/>
        <pt x="412" y="667" on="1"/>
        <pt x="437" y="642" on="1"/>
      </contour>
      <contour>
        <pt x="437" y="441" on="1"/>
        <pt x="437" y="472" on="0"/>
        <pt x="419" y="516" on="1"/>
        <pt x="402" y="557" on="0"/>
        <pt x="378" y="583" on="1"/>
        <pt x="353" y="608" on="1"/>
        <pt x="327" y="632" on="0"/>
        <pt x="291" y="648" on="1"/>
        <pt x="253" y="666" on="0"/>
        <pt x="228" y="666" on="1"/>
        <pt x="211" y="666" on="0"/>
        <pt x="187" y="632" on="0"/>
        <pt x="187" y="608" on="1"/>
        <pt x="187" y="141" on="1"/>
        <pt x="187" y="117" on="0"/>
        <pt x="221" y="83" on="0"/>
        <pt x="245" y="83" on="1"/>
        <pt x="378" y="83" on="1"/>
        <pt x="401" y="83" on="0"/>
        <pt x="437" y="117" on="0"/>
        <pt x="437" y="141" on="1"/>
        <pt x="437" y="441" on="1"/>
      </contour>
    </TTGlyph>
    <TTGlyph name="E" xMin="20" yMin="0" xMax="520" yMax="750">
      <contour>
        <pt x="520" y="625" on="1"/>
        <pt x="520" y="607" on="0"/>
        <pt x="496" y="583" on="0"/>
        <pt x="478" y="583" on="1"/>
        <pt x="461" y="583" on="0"/>
        <pt x="437" y="607" on="0"/>
        <pt x="437" y="625" on="1"/>
        <pt x="437" y="656" on="1"/>
        <pt x="436" y="657" on="0"/>
        <pt x="423" y="660" on="1"/>
        <pt x="399" y="666" on="0"/>
        <pt x="378" y="666" on="1"/>
        <pt x="245" y="666" on="1"/>
        <pt x="221" y="666" on="0"/>
        <pt x="187" y="632" on="0"/>
        <pt x="187" y="608" on="1"/>
        <pt x="187" y="416" on="1"/>
        <pt x="312" y="416" on="1"/>
        <pt x="329" y="416" on="0"/>
        <pt x="353" y="392" on="0"/>
        <pt x="353" y="375" on="1"/>
        <pt x="353" y="358" on="0"/>
        <pt x="330" y="333" on="0"/>
        <pt x="312" y="333" on="1"/>
        <pt x="187" y="333" on="1"/>
        <pt x="187" y="141" on="1"/>
        <pt x="187" y="117" on="0"/>
        <pt x="221" y="83" on="0"/>
        <pt x="245" y="83" on="1"/>
        <pt x="378" y="83" on="1"/>
        <pt x="401" y="83" on="0"/>
        <pt x="427" y="89" on="0"/>
        <pt x="437" y="94" on="1"/>
        <pt x="437" y="125" on="1"/>
        <pt x="437" y="142" on="0"/>
        <pt x="461" y="166" on="0"/>
        <pt x="478" y="166" on="1"/>
        <pt x="495" y="166" on="0"/>
        <pt x="520" y="143" on="0"/>
        <pt x="520" y="125" on="1"/>
        <pt x="520" y="83" on="1"/>
        <pt x="520" y="46" on="0"/>
        <pt x="442" y="0" on="0"/>
        <pt x="378" y="0" on="1"/>
        <pt x="245" y="0" on="1"/>
        <pt x="196" y="0" on="0"/>
        <pt x="157" y="30" on="1"/>
        <pt x="134" y="0" on="0"/>
        <pt x="103" y="0" on="1"/>
        <pt x="62" y="0" on="1"/>
        <pt x="45" y="0" on="0"/>
        <pt x="20" y="23" on="0"/>
        <pt x="20" y="41" on="1"/>
        <pt x="20" y="59" on="0"/>
        <pt x="44" y="83" on="0"/>
        <pt x="62" y="83" on="1"/>
        <pt x="93" y="83" on="1"/>
        <pt x="96" y="90" on="0"/>
        <pt x="103" y="123" on="0"/>
        <pt x="103" y="141" on="1"/>
        <pt x="103" y="608" on="1"/>
        <pt x="103" y="650" on="0"/>
        <pt x="93" y="666" on="1"/>
        <pt x="62" y="666" on="1"/>
        <pt x="44" y="666" on="0"/>
        <pt x="20" y="690" on="0"/>
        <pt x="20" y="708" on="1"/>
        <pt x="20" y="726" on="0"/>
        <pt x="44" y="750" on="0"/>
        <pt x="62" y="750" on="1"/>
        <pt x="103" y="750" on="1"/>
        <pt x="135" y="750" on="0"/>
        <pt x="157" y="719" on="1"/>
        <pt x="197" y="750" on="0"/>
        <pt x="245" y="750" on="1"/>
        <pt x="378" y="750" on="1"/>
        <pt x="441" y="750" on="0"/>
        <pt x="520" y="703" on="0"/>
        <pt x="520" y="666" on="1"/>
      </contour>
    </TTGlyph>
    <TTGlyph name="Eth" xMin="20" yMin="0" xMax="603" yMax="750">
      <contour>
        <pt x="603" y="708" on="1"/>
        <pt x="603" y="691" on="0"/>
        <pt x="580" y="666" on="0"/>
        <pt x="562" y="666" on="1"/>
        <pt x="526" y="666" on="1"/>
        <pt x="516" y="656" on="0"/>
        <pt x="499" y="619" on="0"/>
        <pt x="495" y="601" on="1"/>
        <pt x="377" y="128" on="1"/>
        <pt x="375" y="121" on="0"/>
        <pt x="371" y="93" on="0"/>
        <pt x="371" y="83" on="1"/>
        <pt x="395" y="83" on="1"/>
        <pt x="413" y="83" on="0"/>
        <pt x="437" y="59" on="0"/>
        <pt x="437" y="41" on="1"/>
        <pt x="437" y="24" on="0"/>
        <pt x="413" y="0" on="0"/>
        <pt x="395" y="0" on="1"/>
        <pt x="353" y="0" on="1"/>
        <pt x="328" y="0" on="0"/>
        <pt x="312" y="18" on="1"/>
        <pt x="295" y="0" on="0"/>
        <pt x="270" y="0" on="1"/>
        <pt x="228" y="0" on="1"/>
        <pt x="211" y="0" on="0"/>
        <pt x="187" y="24" on="0"/>
        <pt x="187" y="41" on="1"/>
        <pt x="187" y="58" on="0"/>
        <pt x="210" y="83" on="0"/>
        <pt x="228" y="83" on="1"/>
        <pt x="252" y="83" on="1"/>
        <pt x="254" y="113" on="0"/>
        <pt x="247" y="128" on="1"/>
        <pt x="129" y="601" on="1"/>
        <pt x="123" y="626" on="0"/>
        <pt x="105" y="659" on="0"/>
        <pt x="97" y="666" on="1"/>
        <pt x="62" y="666" on="1"/>
        <pt x="44" y="666" on="0"/>
        <pt x="20" y="690" on="0"/>
        <pt x="20" y="708" on="1"/>
        <pt x="20" y="726" on="0"/>
        <pt x="44" y="750" on="0"/>
        <pt x="62" y="750" on="1"/>
        <pt x="103" y="750" on="1"/>
        <pt x="127" y="750" on="0"/>
        <pt x="147" y="733" on="1"/>
        <pt x="164" y="750" on="0"/>
        <pt x="187" y="750" on="1"/>
        <pt x="228" y="750" on="1"/>
        <pt x="246" y="750" on="0"/>
        <pt x="270" y="726" on="0"/>
        <pt x="270" y="708" on="1"/>
        <pt x="270" y="690" on="0"/>
        <pt x="246" y="666" on="0"/>
        <pt x="228" y="666" on="1"/>
        <pt x="205" y="666" on="1"/>
        <pt x="203" y="636" on="0"/>
        <pt x="210" y="621" on="1"/>
        <pt x="312" y="213" on="1"/>
        <pt x="414" y="620" on="1"/>
        <pt x="418" y="635" on="0"/>
        <pt x="420" y="658" on="0"/>
        <pt x="419" y="666" on="1"/>
        <pt x="395" y="666" on="1"/>
        <pt x="377" y="666" on="0"/>
        <pt x="353" y="690" on="0"/>
        <pt x="353" y="708" on="1"/>
        <pt x="353" y="726" on="0"/>
        <pt x="377" y="750" on="0"/>
        <pt x="395" y="750" on="1"/>
        <pt x="437" y="750" on="1"/>
        <pt x="460" y="750" on="0"/>
        <pt x="477" y="733" on="1"/>
        <pt x="497" y="750" on="0"/>
        <pt x="520" y="750" on="1"/>
        <pt x="562" y="750" on="1"/>
        <pt x="579" y="750" on="0"/>
        <pt x="603" y="726" on="0"/>
      </contour>
    </TTGlyph>
    <TTGlyph name="F" xMin="20" yMin="0" xMax="520" yMax="750">
      <contour>
        <pt x="520" y="625" on="1"/>
        <pt x="520" y="607" on="0"/>
        <pt x="496" y="583" on="0"/>
        <pt x="478" y="583" on="1"/>
        <pt x="461" y="583" on="0"/>
        <pt x="437" y="607" on="0"/>
        <pt x="437" y="625" on="1"/>
        <pt x="437" y="656" on="1"/>
        <pt x="436" y="657" on="0"/>
        <pt x="423" y="660" on="1"/>
        <pt x="399" y="666" on="0"/>
        <pt x="378" y="666" on="1"/>
        <pt x="245" y="666" on="1"/>
        <pt x="221" y="666" on="0"/>
        <pt x="187" y="632" on="0"/>
        <pt x="187" y="608" on="1"/>
        <pt x="187" y="416" on="1"/>
        <pt x="312" y="416" on="1"/>
        <pt x="329" y="416" on="0"/>
        <pt x="353" y="392" on="0"/>
        <pt x="353" y="375" on="1"/>
        <pt x="353" y="358" on="0"/>
        <pt x="330" y="333" on="0"/>
        <pt x="312" y="333" on="1"/>
        <pt x="187" y="333" on="1"/>
        <pt x="187" y="141" on="1"/>
        <pt x="187" y="120" on="0"/>
        <pt x="192" y="93" on="0"/>
        <pt x="197" y="83" on="1"/>
        <pt x="228" y="83" on="1"/>
        <pt x="246" y="83" on="0"/>
        <pt x="270" y="59" on="0"/>
        <pt x="270" y="41" on="1"/>
        <pt x="270" y="24" on="0"/>
        <pt x="246" y="0" on="0"/>
        <pt x="228" y="0" on="1"/>
        <pt x="187" y="0" on="1"/>
        <pt x="164" y="0" on="0"/>
        <pt x="145" y="16" on="1"/>
        <pt x="126" y="0" on="0"/>
        <pt x="103" y="0" on="1"/>
        <pt x="62" y="0" on="1"/>
        <pt x="45" y="0" on="0"/>
        <pt x="20" y="23" on="0"/>
        <pt x="20" y="41" on="1"/>
        <pt x="20" y="59" on="0"/>
        <pt x="44" y="83" on="0"/>
        <pt x="62" y="83" on="1"/>
        <pt x="93" y="83" on="1"/>
        <pt x="96" y="90" on="0"/>
        <pt x="103" y="123" on="0"/>
        <pt x="103" y="141" on="1"/>
        <pt x="103" y="608" on="1"/>
        <pt x="103" y="650" on="0"/>
        <pt x="93" y="666" on="1"/>
        <pt x="62" y="666" on="1"/>
        <pt x="44" y="666" on="0"/>
        <pt x="20" y="690" on="0"/>
        <pt x="20" y="708" on="1"/>
        <pt x="20" y="726" on="0"/>
        <pt x="44" y="750" on="0"/>
        <pt x="62" y="750" on="1"/>
        <pt x="103" y="750" on="1"/>
        <pt x="135" y="750" on="0"/>
        <pt x="157" y="719" on="1"/>
        <pt x="197" y="750" on="0"/>
        <pt x="245" y="750" on="1"/>
        <pt x="378" y="750" on="1"/>
        <pt x="441" y="750" on="0"/>
        <pt x="520" y="703" on="0"/>
        <pt x="520" y="666" on="1"/>
      </contour>
    </TTGlyph>
    <TTGlyph name="G" xMin="20" yMin="0" xMax="520" yMax="750">
      <contour>
        <pt x="520" y="375" on="1"/>
        <pt x="520" y="357" on="0"/>
        <pt x="496" y="333" on="0"/>
        <pt x="478" y="333" on="1"/>
        <pt x="445" y="333" on="1"/>
        <pt x="442" y="327" on="0"/>
        <pt x="437" y="305" on="0"/>
        <pt x="437" y="291" on="1"/>
        <pt x="437" y="141" on="1"/>
        <pt x="437" y="82" on="0"/>
        <pt x="355" y="0" on="0"/>
        <pt x="295" y="0" on="1"/>
        <pt x="162" y="0" on="1"/>
        <pt x="106" y="0" on="0"/>
        <pt x="62" y="41" on="1"/>
        <pt x="20" y="81" on="0"/>
        <pt x="20" y="141" on="1"/>
        <pt x="20" y="608" on="1"/>
        <pt x="20" y="667" on="0"/>
        <pt x="61" y="708" on="1"/>
        <pt x="103" y="750" on="0"/>
        <pt x="162" y="750" on="1"/>
        <pt x="295" y="750" on="1"/>
        <pt x="358" y="750" on="0"/>
        <pt x="437" y="703" on="0"/>
        <pt x="437" y="666" on="1"/>
        <pt x="437" y="625" on="1"/>
        <pt x="437" y="607" on="0"/>
        <pt x="413" y="583" on="0"/>
        <pt x="395" y="583" on="1"/>
        <pt x="377" y="583" on="0"/>
        <pt x="353" y="607" on="0"/>
        <pt x="353" y="625" on="1"/>
        <pt x="353" y="656" on="1"/>
        <pt x="347" y="659" on="0"/>
        <pt x="314" y="666" on="0"/>
        <pt x="295" y="666" on="1"/>
        <pt x="162" y="666" on="1"/>
        <pt x="137" y="666" on="0"/>
        <pt x="103" y="632" on="0"/>
        <pt x="103" y="608" on="1"/>
        <pt x="103" y="141" on="1"/>
        <pt x="103" y="117" on="0"/>
        <pt x="137" y="83" on="0"/>
        <pt x="162" y="83" on="1"/>
        <pt x="295" y="83" on="1"/>
        <pt x="319" y="83" on="0"/>
        <pt x="353" y="117" on="0"/>
        <pt x="353" y="141" on="1"/>
        <pt x="353" y="275" on="1"/>
        <pt x="353" y="299" on="0"/>
        <pt x="329" y="333" on="0"/>
        <pt x="312" y="333" on="1"/>
        <pt x="228" y="333" on="1"/>
        <pt x="211" y="333" on="0"/>
        <pt x="187" y="357" on="0"/>
        <pt x="187" y="375" on="1"/>
        <pt x="187" y="392" on="0"/>
        <pt x="211" y="416" on="0"/>
        <pt x="228" y="416" on="1"/>
        <pt x="312" y="416" on="1"/>
        <pt x="352" y="416" on="0"/>
        <pt x="384" y="390" on="1"/>
        <pt x="405" y="416" on="0"/>
        <pt x="437" y="416" on="1"/>
        <pt x="478" y="416" on="1"/>
        <pt x="495" y="416" on="0"/>
        <pt x="520" y="393" on="0"/>
      </contour>
    </TTGlyph>
    <TTGlyph name="H" xMin="20" yMin="0" xMax="603" yMax="750">
      <contour>
        <pt x="520" y="141" on="1"/>
        <pt x="520" y="123" on="0"/>
        <pt x="527" y="93" on="0"/>
        <pt x="531" y="83" on="1"/>
        <pt x="562" y="83" on="1"/>
        <pt x="579" y="83" on="0"/>
        <pt x="603" y="59" on="0"/>
        <pt x="603" y="41" on="1"/>
        <pt x="603" y="24" on="0"/>
        <pt x="579" y="0" on="0"/>
        <pt x="562" y="0" on="1"/>
        <pt x="520" y="0" on="1"/>
        <pt x="497" y="0" on="0"/>
        <pt x="478" y="16" on="1"/>
        <pt x="462" y="0" on="0"/>
        <pt x="437" y="0" on="1"/>
        <pt x="395" y="0" on="1"/>
        <pt x="378" y="0" on="0"/>
        <pt x="353" y="23" on="0"/>
        <pt x="353" y="41" on="1"/>
        <pt x="353" y="59" on="0"/>
        <pt x="377" y="83" on="0"/>
        <pt x="395" y="83" on="1"/>
        <pt x="426" y="83" on="1"/>
        <pt x="437" y="103" on="0"/>
        <pt x="437" y="141" on="1"/>
        <pt x="437" y="275" on="1"/>
        <pt x="437" y="299" on="0"/>
        <pt x="403" y="333" on="0"/>
        <pt x="378" y="333" on="1"/>
        <pt x="245" y="333" on="1"/>
        <pt x="221" y="333" on="0"/>
        <pt x="187" y="299" on="0"/>
        <pt x="187" y="275" on="1"/>
        <pt x="187" y="141" on="1"/>
        <pt x="187" y="119" on="0"/>
        <pt x="193" y="92" on="0"/>
        <pt x="198" y="83" on="1"/>
        <pt x="228" y="83" on="1"/>
        <pt x="246" y="83" on="0"/>
        <pt x="270" y="59" on="0"/>
        <pt x="270" y="41" on="1"/>
        <pt x="270" y="24" on="0"/>
        <pt x="246" y="0" on="0"/>
        <pt x="228" y="0" on="1"/>
        <pt x="187" y="0" on="1"/>
        <pt x="164" y="0" on="0"/>
        <pt x="145" y="16" on="1"/>
        <pt x="126" y="0" on="0"/>
        <pt x="103" y="0" on="1"/>
        <pt x="62" y="0" on="1"/>
        <pt x="45" y="0" on="0"/>
        <pt x="20" y="23" on="0"/>
        <pt x="20" y="41" on="1"/>
        <pt x="20" y="59" on="0"/>
        <pt x="44" y="83" on="0"/>
        <pt x="62" y="83" on="1"/>
        <pt x="93" y="83" on="1"/>
        <pt x="96" y="90" on="0"/>
        <pt x="103" y="123" on="0"/>
        <pt x="103" y="141" on="1"/>
        <pt x="103" y="608" on="1"/>
        <pt x="103" y="650" on="0"/>
        <pt x="93" y="666" on="1"/>
        <pt x="62" y="666" on="1"/>
        <pt x="44" y="666" on="0"/>
        <pt x="20" y="690" on="0"/>
        <pt x="20" y="708" on="1"/>
        <pt x="20" y="726" on="0"/>
        <pt x="44" y="750" on="0"/>
        <pt x="62" y="750" on="1"/>
        <pt x="103" y="750" on="1"/>
        <pt x="128" y="750" on="0"/>
        <pt x="144" y="734" on="1"/>
        <pt x="163" y="750" on="0"/>
        <pt x="187" y="750" on="1"/>
        <pt x="228" y="750" on="1"/>
        <pt x="246" y="750" on="0"/>
        <pt x="270" y="726" on="0"/>
        <pt x="270" y="708" on="1"/>
        <pt x="270" y="690" on="0"/>
        <pt x="246" y="666" on="0"/>
        <pt x="228" y="666" on="1"/>
        <pt x="195" y="666" on="1"/>
        <pt x="192" y="661" on="0"/>
        <pt x="187" y="639" on="0"/>
        <pt x="187" y="625" on="1"/>
        <pt x="187" y="404" on="1"/>
        <pt x="214" y="416" on="0"/>
        <pt x="245" y="416" on="1"/>
        <pt x="378" y="416" on="1"/>
        <pt x="410" y="416" on="0"/>
        <pt x="437" y="404" on="1"/>
        <pt x="437" y="625" on="1"/>
        <pt x="437" y="652" on="0"/>
        <pt x="428" y="666" on="1"/>
        <pt x="395" y="666" on="1"/>
        <pt x="377" y="666" on="0"/>
        <pt x="353" y="690" on="0"/>
        <pt x="353" y="708" on="1"/>
        <pt x="353" y="726" on="0"/>
        <pt x="377" y="750" on="0"/>
        <pt x="395" y="750" on="1"/>
        <pt x="437" y="750" on="1"/>
        <pt x="460" y="750" on="0"/>
        <pt x="479" y="734" on="1"/>
        <pt x="498" y="750" on="0"/>
        <pt x="520" y="750" on="1"/>
        <pt x="562" y="750" on="1"/>
        <pt x="579" y="750" on="0"/>
        <pt x="603" y="726" on="0"/>
        <pt x="603" y="708" on="1"/>
        <pt x="603" y="691" on="0"/>
        <pt x="580" y="666" on="0"/>
        <pt x="562" y="666" on="1"/>
        <pt x="531" y="666" on="1"/>
        <pt x="520" y="646" on="0"/>
        <pt x="520" y="608" on="1"/>
        <pt x="520" y="141" on="1"/>
      </contour>
    </TTGlyph>
    <TTGlyph name="I" xMin="20" yMin="0" xMax="436" yMax="750">
      <contour>
        <pt x="270" y="141" on="1"/>
        <pt x="270" y="117" on="0"/>
        <pt x="294" y="83" on="0"/>
        <pt x="311" y="83" on="1"/>
        <pt x="395" y="83" on="1"/>
        <pt x="412" y="83" on="0"/>
        <pt x="436" y="59" on="0"/>
        <pt x="436" y="41" on="1"/>
        <pt x="436" y="24" on="0"/>
        <pt x="412" y="0" on="0"/>
        <pt x="395" y="0" on="1"/>
        <pt x="311" y="0" on="1"/>
        <pt x="264" y="0" on="0"/>
        <pt x="228" y="36" on="1"/>
        <pt x="192" y="0" on="0"/>
        <pt x="145" y="0" on="1"/>
        <pt x="61" y="0" on="1"/>
        <pt x="44" y="0" on="0"/>
        <pt x="20" y="24" on="0"/>
        <pt x="20" y="41" on="1"/>
        <pt x="20" y="58" on="0"/>
        <pt x="43" y="83" on="0"/>
        <pt x="61" y="83" on="1"/>
        <pt x="145" y="83" on="1"/>
        <pt x="162" y="83" on="0"/>
        <pt x="186" y="117" on="0"/>
        <pt x="186" y="141" on="1"/>
        <pt x="186" y="608" on="1"/>
        <pt x="186" y="632" on="0"/>
        <pt x="162" y="666" on="0"/>
        <pt x="145" y="666" on="1"/>
        <pt x="61" y="666" on="1"/>
        <pt x="44" y="666" on="0"/>
        <pt x="20" y="690" on="0"/>
        <pt x="20" y="708" on="1"/>
        <pt x="20" y="725" on="0"/>
        <pt x="43" y="750" on="0"/>
        <pt x="61" y="750" on="1"/>
        <pt x="145" y="750" on="1"/>
        <pt x="194" y="750" on="0"/>
        <pt x="228" y="713" on="1"/>
        <pt x="262" y="750" on="0"/>
        <pt x="311" y="750" on="1"/>
        <pt x="395" y="750" on="1"/>
        <pt x="412" y="750" on="0"/>
        <pt x="436" y="726" on="0"/>
        <pt x="436" y="708" on="1"/>
        <pt x="436" y="691" on="0"/>
        <pt x="413" y="666" on="0"/>
        <pt x="395" y="666" on="1"/>
        <pt x="311" y="666" on="1"/>
        <pt x="294" y="666" on="0"/>
        <pt x="270" y="632" on="0"/>
        <pt x="270" y="608" on="1"/>
      </contour>
    </TTGlyph>
    <TTGlyph name="Iacute" xMin="20" yMin="0" xMax="603" yMax="750">
      <contour>
        <pt x="603" y="41" on="1"/>
        <pt x="603" y="24" on="0"/>
        <pt x="579" y="0" on="0"/>
        <pt x="562" y="0" on="1"/>
        <pt x="520" y="0" on="1"/>
        <pt x="496" y="0" on="0"/>
        <pt x="477" y="16" on="1"/>
        <pt x="461" y="0" on="0"/>
        <pt x="437" y="0" on="1"/>
        <pt x="395" y="0" on="1"/>
        <pt x="378" y="0" on="0"/>
        <pt x="353" y="23" on="0"/>
        <pt x="353" y="41" on="1"/>
        <pt x="353" y="59" on="0"/>
        <pt x="377" y="83" on="0"/>
        <pt x="395" y="83" on="1"/>
        <pt x="419" y="83" on="1"/>
        <pt x="421" y="113" on="0"/>
        <pt x="414" y="128" on="1"/>
        <pt x="400" y="184" on="1"/>
        <pt x="393" y="210" on="0"/>
        <pt x="343" y="250" on="0"/>
        <pt x="316" y="250" on="1"/>
        <pt x="308" y="250" on="1"/>
        <pt x="281" y="250" on="0"/>
        <pt x="231" y="210" on="0"/>
        <pt x="224" y="184" on="1"/>
        <pt x="210" y="128" on="1"/>
        <pt x="203" y="113" on="0"/>
        <pt x="205" y="83" on="1"/>
        <pt x="228" y="83" on="1"/>
        <pt x="246" y="83" on="0"/>
        <pt x="270" y="59" on="0"/>
        <pt x="270" y="41" on="1"/>
        <pt x="270" y="24" on="0"/>
        <pt x="246" y="0" on="0"/>
        <pt x="228" y="0" on="1"/>
        <pt x="187" y="0" on="1"/>
        <pt x="163" y="0" on="0"/>
        <pt x="147" y="16" on="1"/>
        <pt x="128" y="0" on="0"/>
        <pt x="103" y="0" on="1"/>
        <pt x="62" y="0" on="1"/>
        <pt x="45" y="0" on="0"/>
        <pt x="20" y="23" on="0"/>
        <pt x="20" y="41" on="1"/>
        <pt x="20" y="59" on="0"/>
        <pt x="44" y="83" on="0"/>
        <pt x="62" y="83" on="1"/>
        <pt x="97" y="83" on="1"/>
        <pt x="102" y="87" on="0"/>
        <pt x="112" y="103" on="0"/>
        <pt x="117" y="114" on="1"/>
        <pt x="125" y="129" on="0"/>
        <pt x="129" y="148" on="1"/>
        <pt x="247" y="621" on="1"/>
        <pt x="254" y="636" on="0"/>
        <pt x="252" y="666" on="1"/>
        <pt x="228" y="666" on="1"/>
        <pt x="211" y="666" on="0"/>
        <pt x="187" y="690" on="0"/>
        <pt x="187" y="708" on="1"/>
        <pt x="187" y="725" on="0"/>
        <pt x="210" y="750" on="0"/>
        <pt x="228" y="750" on="1"/>
        <pt x="270" y="750" on="1"/>
        <pt x="282" y="748" on="1"/>
        <pt x="313" y="741" on="0"/>
        <pt x="341" y="702" on="1"/>
        <pt x="365" y="667" on="0"/>
        <pt x="377" y="621" on="1"/>
        <pt x="495" y="148" on="1"/>
        <pt x="497" y="137" on="0"/>
        <pt x="506" y="115" on="0"/>
        <pt x="511" y="105" on="1"/>
        <pt x="515" y="98" on="0"/>
        <pt x="522" y="87" on="0"/>
        <pt x="526" y="83" on="1"/>
        <pt x="562" y="83" on="1"/>
        <pt x="579" y="83" on="0"/>
        <pt x="603" y="59" on="0"/>
      </contour>
      <contour>
        <pt x="312" y="536" on="1"/>
        <pt x="259" y="325" on="1"/>
        <pt x="293" y="333" on="0"/>
        <pt x="308" y="333" on="1"/>
        <pt x="316" y="333" on="1"/>
        <pt x="331" y="333" on="0"/>
        <pt x="365" y="325" on="1"/>
      </contour>
    </TTGlyph>
    <TTGlyph name="Icircumflex" xMin="20" yMin="0" xMax="270" yMax="750">
      <contour>
        <pt x="187" y="141" on="1"/>
        <pt x="187" y="123" on="0"/>
        <pt x="194" y="93" on="0"/>
        <pt x="198" y="83" on="1"/>
        <pt x="229" y="83" on="1"/>
        <pt x="246" y="83" on="0"/>
        <pt x="270" y="59" on="0"/>
        <pt x="270" y="41" on="1"/>
        <pt x="270" y="24" on="0"/>
        <pt x="246" y="0" on="0"/>
        <pt x="229" y="0" on="1"/>
        <pt x="187" y="0" on="1"/>
        <pt x="164" y="0" on="0"/>
        <pt x="145" y="16" on="1"/>
        <pt x="129" y="0" on="0"/>
        <pt x="104" y="0" on="1"/>
        <pt x="62" y="0" on="1"/>
        <pt x="45" y="0" on="0"/>
        <pt x="20" y="23" on="0"/>
        <pt x="20" y="41" on="1"/>
        <pt x="20" y="59" on="0"/>
        <pt x="44" y="83" on="0"/>
        <pt x="62" y="83" on="1"/>
        <pt x="93" y="83" on="1"/>
        <pt x="104" y="103" on="0"/>
        <pt x="104" y="141" on="1"/>
        <pt x="104" y="608" on="1"/>
        <pt x="104" y="627" on="0"/>
        <pt x="97" y="658" on="0"/>
        <pt x="93" y="666" on="1"/>
        <pt x="62" y="666" on="1"/>
        <pt x="44" y="666" on="0"/>
        <pt x="20" y="690" on="0"/>
        <pt x="20" y="708" on="1"/>
        <pt x="20" y="726" on="0"/>
        <pt x="44" y="750" on="0"/>
        <pt x="62" y="750" on="1"/>
        <pt x="104" y="750" on="1"/>
        <pt x="128" y="750" on="0"/>
        <pt x="145" y="733" on="1"/>
        <pt x="165" y="750" on="0"/>
        <pt x="187" y="750" on="1"/>
        <pt x="229" y="750" on="1"/>
        <pt x="246" y="750" on="0"/>
        <pt x="270" y="726" on="0"/>
        <pt x="270" y="708" on="1"/>
        <pt x="270" y="691" on="0"/>
        <pt x="247" y="666" on="0"/>
        <pt x="229" y="666" on="1"/>
        <pt x="198" y="666" on="1"/>
        <pt x="187" y="646" on="0"/>
        <pt x="187" y="608" on="1"/>
      </contour>
    </TTGlyph>
    <TTGlyph name="Idieresis" xMin="20" yMin="0" xMax="603" yMax="750">
      <contour>
        <pt x="603" y="41" on="1"/>
        <pt x="603" y="24" on="0"/>
        <pt x="579" y="0" on="0"/>
        <pt x="562" y="0" on="1"/>
        <pt x="520" y="0" on="1"/>
        <pt x="494" y="0" on="0"/>
        <pt x="478" y="16" on="1"/>
        <pt x="462" y="0" on="0"/>
        <pt x="437" y="0" on="1"/>
        <pt x="395" y="0" on="1"/>
        <pt x="378" y="0" on="0"/>
        <pt x="353" y="23" on="0"/>
        <pt x="353" y="41" on="1"/>
        <pt x="353" y="59" on="0"/>
        <pt x="377" y="83" on="0"/>
        <pt x="395" y="83" on="1"/>
        <pt x="426" y="83" on="1"/>
        <pt x="437" y="103" on="0"/>
        <pt x="437" y="141" on="1"/>
        <pt x="437" y="608" on="1"/>
        <pt x="437" y="632" on="0"/>
        <pt x="403" y="666" on="0"/>
        <pt x="378" y="666" on="1"/>
        <pt x="245" y="666" on="1"/>
        <pt x="221" y="666" on="0"/>
        <pt x="187" y="632" on="0"/>
        <pt x="187" y="608" on="1"/>
        <pt x="187" y="141" on="1"/>
        <pt x="187" y="119" on="0"/>
        <pt x="193" y="92" on="0"/>
        <pt x="198" y="83" on="1"/>
        <pt x="228" y="83" on="1"/>
        <pt x="246" y="83" on="0"/>
        <pt x="270" y="59" on="0"/>
        <pt x="270" y="41" on="1"/>
        <pt x="270" y="24" on="0"/>
        <pt x="246" y="0" on="0"/>
        <pt x="228" y="0" on="1"/>
        <pt x="187" y="0" on="1"/>
        <pt x="164" y="0" on="0"/>
        <pt x="145" y="16" on="1"/>
        <pt x="126" y="0" on="0"/>
        <pt x="103" y="0" on="1"/>
        <pt x="62" y="0" on="1"/>
        <pt x="45" y="0" on="0"/>
        <pt x="20" y="23" on="0"/>
        <pt x="20" y="41" on="1"/>
        <pt x="20" y="59" on="0"/>
        <pt x="44" y="83" on="0"/>
        <pt x="62" y="83" on="1"/>
        <pt x="93" y="83" on="1"/>
        <pt x="96" y="90" on="0"/>
        <pt x="103" y="123" on="0"/>
        <pt x="103" y="141" on="1"/>
        <pt x="103" y="608" on="1"/>
        <pt x="103" y="650" on="0"/>
        <pt x="93" y="666" on="1"/>
        <pt x="62" y="666" on="1"/>
        <pt x="44" y="666" on="0"/>
        <pt x="20" y="690" on="0"/>
        <pt x="20" y="708" on="1"/>
        <pt x="20" y="726" on="0"/>
        <pt x="44" y="750" on="0"/>
        <pt x="62" y="750" on="1"/>
        <pt x="103" y="750" on="1"/>
        <pt x="136" y="750" on="0"/>
        <pt x="158" y="719" on="1"/>
        <pt x="195" y="750" on="0"/>
        <pt x="245" y="750" on="1"/>
        <pt x="378" y="750" on="1"/>
        <pt x="438" y="750" on="0"/>
        <pt x="520" y="668" on="0"/>
        <pt x="520" y="608" on="1"/>
        <pt x="520" y="125" on="1"/>
        <pt x="520" y="96" on="0"/>
        <pt x="529" y="83" on="1"/>
        <pt x="562" y="83" on="1"/>
        <pt x="579" y="83" on="0"/>
        <pt x="603" y="59" on="0"/>
      </contour>
    </TTGlyph>
    <TTGlyph name="J" xMin="20" yMin="0" xMax="520" yMax="750">
      <contour>
        <pt x="520" y="708" on="1"/>
        <pt x="520" y="690" on="0"/>
        <pt x="496" y="666" on="0"/>
        <pt x="478" y="666" on="1"/>
        <pt x="445" y="666" on="1"/>
        <pt x="442" y="661" on="0"/>
        <pt x="437" y="639" on="0"/>
        <pt x="437" y="625" on="1"/>
        <pt x="437" y="141" on="1"/>
        <pt x="437" y="82" on="0"/>
        <pt x="355" y="0" on="0"/>
        <pt x="295" y="0" on="1"/>
        <pt x="162" y="0" on="1"/>
        <pt x="99" y="0" on="0"/>
        <pt x="20" y="46" on="0"/>
        <pt x="20" y="83" on="1"/>
        <pt x="20" y="125" on="1"/>
        <pt x="20" y="142" on="0"/>
        <pt x="44" y="166" on="0"/>
        <pt x="62" y="166" on="1"/>
        <pt x="79" y="166" on="0"/>
        <pt x="103" y="142" on="0"/>
        <pt x="103" y="125" on="1"/>
        <pt x="103" y="94" on="1"/>
        <pt x="110" y="90" on="0"/>
        <pt x="142" y="83" on="0"/>
        <pt x="162" y="83" on="1"/>
        <pt x="295" y="83" on="1"/>
        <pt x="319" y="83" on="0"/>
        <pt x="353" y="117" on="0"/>
        <pt x="353" y="141" on="1"/>
        <pt x="353" y="608" on="1"/>
        <pt x="353" y="650" on="0"/>
        <pt x="343" y="666" on="1"/>
        <pt x="312" y="666" on="1"/>
        <pt x="294" y="666" on="0"/>
        <pt x="270" y="690" on="0"/>
        <pt x="270" y="708" on="1"/>
        <pt x="270" y="726" on="0"/>
        <pt x="294" y="750" on="0"/>
        <pt x="312" y="750" on="1"/>
        <pt x="353" y="750" on="1"/>
        <pt x="375" y="750" on="0"/>
        <pt x="394" y="734" on="1"/>
        <pt x="413" y="750" on="0"/>
        <pt x="437" y="750" on="1"/>
        <pt x="478" y="750" on="1"/>
        <pt x="496" y="750" on="0"/>
        <pt x="520" y="726" on="0"/>
      </contour>
    </TTGlyph>
    <TTGlyph name="K" xMin="20" yMin="0" xMax="603" yMax="750">
      <contour>
        <pt x="409" y="413" on="1"/>
        <pt x="457" y="402" on="0"/>
        <pt x="520" y="326" on="0"/>
        <pt x="520" y="275" on="1"/>
        <pt x="520" y="125" on="1"/>
        <pt x="520" y="96" on="0"/>
        <pt x="529" y="83" on="1"/>
        <pt x="562" y="83" on="1"/>
        <pt x="579" y="83" on="0"/>
        <pt x="603" y="59" on="0"/>
        <pt x="603" y="41" on="1"/>
        <pt x="603" y="24" on="0"/>
        <pt x="579" y="0" on="0"/>
        <pt x="562" y="0" on="1"/>
        <pt x="520" y="0" on="1"/>
        <pt x="494" y="0" on="0"/>
        <pt x="478" y="16" on="1"/>
        <pt x="462" y="0" on="0"/>
        <pt x="437" y="0" on="1"/>
        <pt x="395" y="0" on="1"/>
        <pt x="378" y="0" on="0"/>
        <pt x="353" y="23" on="0"/>
        <pt x="353" y="41" on="1"/>
        <pt x="353" y="59" on="0"/>
        <pt x="377" y="83" on="0"/>
        <pt x="395" y="83" on="1"/>
        <pt x="426" y="83" on="1"/>
        <pt x="437" y="103" on="0"/>
        <pt x="437" y="141" on="1"/>
        <pt x="437" y="275" on="1"/>
        <pt x="437" y="299" on="0"/>
        <pt x="403" y="333" on="0"/>
        <pt x="378" y="333" on="1"/>
        <pt x="245" y="333" on="1"/>
        <pt x="221" y="333" on="0"/>
        <pt x="187" y="299" on="0"/>
        <pt x="187" y="275" on="1"/>
        <pt x="187" y="141" on="1"/>
        <pt x="187" y="119" on="0"/>
        <pt x="193" y="92" on="0"/>
        <pt x="198" y="83" on="1"/>
        <pt x="228" y="83" on="1"/>
        <pt x="246" y="83" on="0"/>
        <pt x="270" y="59" on="0"/>
        <pt x="270" y="41" on="1"/>
        <pt x="270" y="24" on="0"/>
        <pt x="246" y="0" on="0"/>
        <pt x="228" y="0" on="1"/>
        <pt x="187" y="0" on="1"/>
        <pt x="164" y="0" on="0"/>
        <pt x="145" y="16" on="1"/>
        <pt x="126" y="0" on="0"/>
        <pt x="103" y="0" on="1"/>
        <pt x="62" y="0" on="1"/>
        <pt x="45" y="0" on="0"/>
        <pt x="20" y="23" on="0"/>
        <pt x="20" y="41" on="1"/>
        <pt x="20" y="59" on="0"/>
        <pt x="44" y="83" on="0"/>
        <pt x="62" y="83" on="1"/>
        <pt x="93" y="83" on="1"/>
        <pt x="96" y="90" on="0"/>
        <pt x="103" y="123" on="0"/>
        <pt x="103" y="141" on="1"/>
        <pt x="103" y="608" on="1"/>
        <pt x="103" y="650" on="0"/>
        <pt x="93" y="666" on="1"/>
        <pt x="62" y="666" on="1"/>
        <pt x="44" y="666" on="0"/>
        <pt x="20" y="690" on="0"/>
        <pt x="20" y="708" on="1"/>
        <pt x="20" y="726" on="0"/>
        <pt x="44" y="750" on="0"/>
        <pt x="62" y="750" on="1"/>
        <pt x="103" y="750" on="1"/>
        <pt x="128" y="750" on="0"/>
        <pt x="144" y="734" on="1"/>
        <pt x="163" y="750" on="0"/>
        <pt x="187" y="750" on="1"/>
        <pt x="228" y="750" on="1"/>
        <pt x="246" y="750" on="0"/>
        <pt x="270" y="726" on="0"/>
        <pt x="270" y="708" on="1"/>
        <pt x="270" y="690" on="0"/>
        <pt x="246" y="666" on="0"/>
        <pt x="228" y="666" on="1"/>
        <pt x="195" y="666" on="1"/>
        <pt x="192" y="661" on="0"/>
        <pt x="187" y="639" on="0"/>
        <pt x="187" y="625" on="1"/>
        <pt x="187" y="404" on="1"/>
        <pt x="210" y="412" on="1"/>
        <pt x="217" y="416" on="0"/>
        <pt x="228" y="416" on="1"/>
        <pt x="269" y="416" on="1"/>
        <pt x="280" y="417" on="0"/>
        <pt x="302" y="433" on="1"/>
        <pt x="329" y="451" on="0"/>
        <pt x="353" y="475" on="1"/>
        <pt x="378" y="500" on="1"/>
        <pt x="402" y="524" on="0"/>
        <pt x="419" y="562" on="1"/>
        <pt x="437" y="599" on="0"/>
        <pt x="437" y="625" on="1"/>
        <pt x="437" y="652" on="0"/>
        <pt x="428" y="666" on="1"/>
        <pt x="395" y="666" on="1"/>
        <pt x="377" y="666" on="0"/>
        <pt x="353" y="690" on="0"/>
        <pt x="353" y="708" on="1"/>
        <pt x="353" y="726" on="0"/>
        <pt x="377" y="750" on="0"/>
        <pt x="395" y="750" on="1"/>
        <pt x="437" y="750" on="1"/>
        <pt x="459" y="750" on="0"/>
        <pt x="478" y="734" on="1"/>
        <pt x="497" y="750" on="0"/>
        <pt x="520" y="750" on="1"/>
        <pt x="562" y="750" on="1"/>
        <pt x="579" y="750" on="0"/>
        <pt x="603" y="726" on="0"/>
        <pt x="603" y="708" on="1"/>
        <pt x="603" y="691" on="0"/>
        <pt x="580" y="666" on="0"/>
        <pt x="562" y="666" on="1"/>
        <pt x="529" y="666" on="1"/>
        <pt x="526" y="661" on="0"/>
        <pt x="520" y="640" on="0"/>
        <pt x="520" y="625" on="1"/>
        <pt x="520" y="583" on="0"/>
        <pt x="496" y="529" on="1"/>
        <pt x="472" y="476" on="0"/>
        <pt x="437" y="441" on="1"/>
        <pt x="412" y="416" on="1"/>
      </contour>
    </TTGlyph>
    <TTGlyph name="L" xMin="20" yMin="0" xMax="520" yMax="750">
      <contour>
        <pt x="520" y="83" on="1"/>
        <pt x="520" y="46" on="0"/>
        <pt x="442" y="0" on="0"/>
        <pt x="378" y="0" on="1"/>
        <pt x="245" y="0" on="1"/>
        <pt x="196" y="0" on="0"/>
        <pt x="157" y="30" on="1"/>
        <pt x="134" y="0" on="0"/>
        <pt x="103" y="0" on="1"/>
        <pt x="62" y="0" on="1"/>
        <pt x="45" y="0" on="0"/>
        <pt x="20" y="23" on="0"/>
        <pt x="20" y="41" on="1"/>
        <pt x="20" y="59" on="0"/>
        <pt x="44" y="83" on="0"/>
        <pt x="62" y="83" on="1"/>
        <pt x="93" y="83" on="1"/>
        <pt x="96" y="90" on="0"/>
        <pt x="103" y="123" on="0"/>
        <pt x="103" y="141" on="1"/>
        <pt x="103" y="608" on="1"/>
        <pt x="103" y="650" on="0"/>
        <pt x="93" y="666" on="1"/>
        <pt x="62" y="666" on="1"/>
        <pt x="44" y="666" on="0"/>
        <pt x="20" y="690" on="0"/>
        <pt x="20" y="708" on="1"/>
        <pt x="20" y="726" on="0"/>
        <pt x="44" y="750" on="0"/>
        <pt x="62" y="750" on="1"/>
        <pt x="103" y="750" on="1"/>
        <pt x="125" y="750" on="0"/>
        <pt x="145" y="733" on="1"/>
        <pt x="165" y="750" on="0"/>
        <pt x="187" y="750" on="1"/>
        <pt x="228" y="750" on="1"/>
        <pt x="246" y="750" on="0"/>
        <pt x="270" y="726" on="0"/>
        <pt x="270" y="708" on="1"/>
        <pt x="270" y="690" on="0"/>
        <pt x="246" y="666" on="0"/>
        <pt x="228" y="666" on="1"/>
        <pt x="197" y="666" on="1"/>
        <pt x="194" y="660" on="0"/>
        <pt x="187" y="627" on="0"/>
        <pt x="187" y="608" on="1"/>
        <pt x="187" y="141" on="1"/>
        <pt x="187" y="117" on="0"/>
        <pt x="221" y="83" on="0"/>
        <pt x="245" y="83" on="1"/>
        <pt x="378" y="83" on="1"/>
        <pt x="401" y="83" on="0"/>
        <pt x="427" y="89" on="0"/>
        <pt x="437" y="94" on="1"/>
        <pt x="437" y="125" on="1"/>
        <pt x="437" y="142" on="0"/>
        <pt x="461" y="166" on="0"/>
        <pt x="478" y="166" on="1"/>
        <pt x="495" y="166" on="0"/>
        <pt x="520" y="143" on="0"/>
        <pt x="520" y="125" on="1"/>
      </contour>
    </TTGlyph>
    <TTGlyph name="M" xMin="20" yMin="0" xMax="770" yMax="750">
      <contour>
        <pt x="770" y="41" on="1"/>
        <pt x="770" y="24" on="0"/>
        <pt x="746" y="0" on="0"/>
        <pt x="729" y="0" on="1"/>
        <pt x="687" y="0" on="1"/>
        <pt x="661" y="0" on="0"/>
        <pt x="645" y="16" on="1"/>
        <pt x="629" y="0" on="0"/>
        <pt x="604" y="0" on="1"/>
        <pt x="562" y="0" on="1"/>
        <pt x="545" y="0" on="0"/>
        <pt x="520" y="23" on="0"/>
        <pt x="520" y="41" on="1"/>
        <pt x="520" y="59" on="0"/>
        <pt x="544" y="83" on="0"/>
        <pt x="562" y="83" on="1"/>
        <pt x="593" y="83" on="1"/>
        <pt x="604" y="103" on="0"/>
        <pt x="604" y="141" on="1"/>
        <pt x="604" y="608" on="1"/>
        <pt x="604" y="632" on="0"/>
        <pt x="570" y="666" on="0"/>
        <pt x="545" y="666" on="1"/>
        <pt x="495" y="666" on="1"/>
        <pt x="471" y="666" on="0"/>
        <pt x="437" y="632" on="0"/>
        <pt x="437" y="608" on="1"/>
        <pt x="437" y="41" on="1"/>
        <pt x="437" y="24" on="0"/>
        <pt x="413" y="0" on="0"/>
        <pt x="395" y="0" on="1"/>
        <pt x="378" y="0" on="0"/>
        <pt x="354" y="24" on="0"/>
        <pt x="354" y="41" on="1"/>
        <pt x="354" y="608" on="1"/>
        <pt x="354" y="632" on="0"/>
        <pt x="320" y="666" on="0"/>
        <pt x="295" y="666" on="1"/>
        <pt x="245" y="666" on="1"/>
        <pt x="221" y="666" on="0"/>
        <pt x="187" y="632" on="0"/>
        <pt x="187" y="608" on="1"/>
        <pt x="187" y="141" on="1"/>
        <pt x="187" y="123" on="0"/>
        <pt x="194" y="93" on="0"/>
        <pt x="198" y="83" on="1"/>
        <pt x="229" y="83" on="1"/>
        <pt x="246" y="83" on="0"/>
        <pt x="270" y="59" on="0"/>
        <pt x="270" y="41" on="1"/>
        <pt x="270" y="24" on="0"/>
        <pt x="246" y="0" on="0"/>
        <pt x="229" y="0" on="1"/>
        <pt x="187" y="0" on="1"/>
        <pt x="164" y="0" on="0"/>
        <pt x="145" y="16" on="1"/>
        <pt x="129" y="0" on="0"/>
        <pt x="104" y="0" on="1"/>
        <pt x="62" y="0" on="1"/>
        <pt x="45" y="0" on="0"/>
        <pt x="20" y="23" on="0"/>
        <pt x="20" y="41" on="1"/>
        <pt x="20" y="59" on="0"/>
        <pt x="44" y="83" on="0"/>
        <pt x="62" y="83" on="1"/>
        <pt x="93" y="83" on="1"/>
        <pt x="104" y="103" on="0"/>
        <pt x="104" y="141" on="1"/>
        <pt x="104" y="608" on="1"/>
        <pt x="104" y="627" on="0"/>
        <pt x="97" y="658" on="0"/>
        <pt x="93" y="666" on="1"/>
        <pt x="62" y="666" on="1"/>
        <pt x="44" y="666" on="0"/>
        <pt x="20" y="690" on="0"/>
        <pt x="20" y="708" on="1"/>
        <pt x="20" y="726" on="0"/>
        <pt x="44" y="750" on="0"/>
        <pt x="62" y="750" on="1"/>
        <pt x="104" y="750" on="1"/>
        <pt x="136" y="750" on="0"/>
        <pt x="158" y="719" on="1"/>
        <pt x="195" y="750" on="0"/>
        <pt x="245" y="750" on="1"/>
        <pt x="295" y="750" on="1"/>
        <pt x="354" y="750" on="0"/>
        <pt x="395" y="708" on="1"/>
        <pt x="437" y="750" on="0"/>
        <pt x="495" y="750" on="1"/>
        <pt x="545" y="750" on="1"/>
        <pt x="605" y="750" on="0"/>
        <pt x="687" y="668" on="0"/>
        <pt x="687" y="608" on="1"/>
        <pt x="687" y="125" on="1"/>
        <pt x="687" y="96" on="0"/>
        <pt x="696" y="83" on="1"/>
        <pt x="729" y="83" on="1"/>
        <pt x="746" y="83" on="0"/>
        <pt x="770" y="59" on="0"/>
      </contour>
    </TTGlyph>
    <TTGlyph name="N" xMin="20" yMin="0" xMax="603" yMax="750">
      <contour>
        <pt x="520" y="141" on="1"/>
        <pt x="520" y="123" on="0"/>
        <pt x="527" y="93" on="0"/>
        <pt x="531" y="83" on="1"/>
        <pt x="562" y="83" on="1"/>
        <pt x="579" y="83" on="0"/>
        <pt x="603" y="59" on="0"/>
        <pt x="603" y="41" on="1"/>
        <pt x="603" y="24" on="0"/>
        <pt x="579" y="0" on="0"/>
        <pt x="562" y="0" on="1"/>
        <pt x="520" y="0" on="1"/>
        <pt x="511" y="0" on="1"/>
        <pt x="477" y="4" on="0"/>
        <pt x="442" y="44" on="1"/>
        <pt x="429" y="58" on="0"/>
        <pt x="407" y="92" on="0"/>
        <pt x="397" y="112" on="1"/>
        <pt x="187" y="531" on="1"/>
        <pt x="187" y="125" on="1"/>
        <pt x="187" y="111" on="0"/>
        <pt x="192" y="89" on="0"/>
        <pt x="195" y="83" on="1"/>
        <pt x="228" y="83" on="1"/>
        <pt x="246" y="83" on="0"/>
        <pt x="270" y="59" on="0"/>
        <pt x="270" y="41" on="1"/>
        <pt x="270" y="24" on="0"/>
        <pt x="246" y="0" on="0"/>
        <pt x="228" y="0" on="1"/>
        <pt x="187" y="0" on="1"/>
        <pt x="163" y="0" on="0"/>
        <pt x="144" y="16" on="1"/>
        <pt x="128" y="0" on="0"/>
        <pt x="103" y="0" on="1"/>
        <pt x="62" y="0" on="1"/>
        <pt x="45" y="0" on="0"/>
        <pt x="20" y="23" on="0"/>
        <pt x="20" y="41" on="1"/>
        <pt x="20" y="59" on="0"/>
        <pt x="44" y="83" on="0"/>
        <pt x="62" y="83" on="1"/>
        <pt x="93" y="83" on="1"/>
        <pt x="96" y="90" on="0"/>
        <pt x="103" y="123" on="0"/>
        <pt x="103" y="141" on="1"/>
        <pt x="103" y="608" on="1"/>
        <pt x="103" y="650" on="0"/>
        <pt x="93" y="666" on="1"/>
        <pt x="62" y="666" on="1"/>
        <pt x="44" y="666" on="0"/>
        <pt x="20" y="690" on="0"/>
        <pt x="20" y="708" on="1"/>
        <pt x="20" y="726" on="0"/>
        <pt x="44" y="750" on="0"/>
        <pt x="62" y="750" on="1"/>
        <pt x="103" y="750" on="1"/>
        <pt x="113" y="749" on="1"/>
        <pt x="146" y="744" on="0"/>
        <pt x="181" y="705" on="1"/>
        <pt x="195" y="690" on="0"/>
        <pt x="217" y="656" on="0"/>
        <pt x="227" y="637" on="1"/>
        <pt x="437" y="218" on="1"/>
        <pt x="437" y="625" on="1"/>
        <pt x="437" y="652" on="0"/>
        <pt x="428" y="666" on="1"/>
        <pt x="395" y="666" on="1"/>
        <pt x="377" y="666" on="0"/>
        <pt x="353" y="690" on="0"/>
        <pt x="353" y="708" on="1"/>
        <pt x="353" y="726" on="0"/>
        <pt x="377" y="750" on="0"/>
        <pt x="395" y="750" on="1"/>
        <pt x="437" y="750" on="1"/>
        <pt x="460" y="750" on="0"/>
        <pt x="479" y="734" on="1"/>
        <pt x="498" y="750" on="0"/>
        <pt x="520" y="750" on="1"/>
        <pt x="562" y="750" on="1"/>
        <pt x="579" y="750" on="0"/>
        <pt x="603" y="726" on="0"/>
        <pt x="603" y="708" on="1"/>
        <pt x="603" y="691" on="0"/>
        <pt x="580" y="666" on="0"/>
        <pt x="562" y="666" on="1"/>
        <pt x="531" y="666" on="1"/>
        <pt x="520" y="646" on="0"/>
        <pt x="520" y="608" on="1"/>
        <pt x="520" y="141" on="1"/>
      </contour>
    </TTGlyph>
    <TTGlyph name="Ntilde" xMin="20" yMin="0" xMax="520" yMax="750">
      <contour>
        <pt x="520" y="141" on="1"/>
        <pt x="520" y="82" on="0"/>
        <pt x="438" y="0" on="0"/>
        <pt x="378" y="0" on="1"/>
        <pt x="245" y="0" on="1"/>
        <pt x="196" y="0" on="0"/>
        <pt x="157" y="30" on="1"/>
        <pt x="134" y="0" on="0"/>
        <pt x="103" y="0" on="1"/>
        <pt x="62" y="0" on="1"/>
        <pt x="45" y="0" on="0"/>
        <pt x="20" y="23" on="0"/>
        <pt x="20" y="41" on="1"/>
        <pt x="20" y="59" on="0"/>
        <pt x="44" y="83" on="0"/>
        <pt x="62" y="83" on="1"/>
        <pt x="93" y="83" on="1"/>
        <pt x="96" y="90" on="0"/>
        <pt x="103" y="123" on="0"/>
        <pt x="103" y="141" on="1"/>
        <pt x="103" y="608" on="1"/>
        <pt x="103" y="650" on="0"/>
        <pt x="93" y="666" on="1"/>
        <pt x="62" y="666" on="1"/>
        <pt x="44" y="666" on="0"/>
        <pt x="20" y="690" on="0"/>
        <pt x="20" y="708" on="1"/>
        <pt x="20" y="726" on="0"/>
        <pt x="44" y="750" on="0"/>
        <pt x="62" y="750" on="1"/>
        <pt x="103" y="750" on="1"/>
        <pt x="125" y="750" on="0"/>
        <pt x="144" y="734" on="1"/>
        <pt x="163" y="750" on="0"/>
        <pt x="187" y="750" on="1"/>
        <pt x="228" y="750" on="1"/>
        <pt x="246" y="750" on="0"/>
        <pt x="270" y="726" on="0"/>
        <pt x="270" y="708" on="1"/>
        <pt x="270" y="690" on="0"/>
        <pt x="246" y="666" on="0"/>
        <pt x="228" y="666" on="1"/>
        <pt x="195" y="666" on="1"/>
        <pt x="192" y="661" on="0"/>
        <pt x="187" y="639" on="0"/>
        <pt x="187" y="625" on="1"/>
        <pt x="187" y="404" on="1"/>
        <pt x="212" y="416" on="0"/>
        <pt x="245" y="416" on="1"/>
        <pt x="378" y="416" on="1"/>
        <pt x="434" y="416" on="0"/>
        <pt x="478" y="375" on="1"/>
        <pt x="520" y="334" on="0"/>
        <pt x="520" y="275" on="1"/>
      </contour>
      <contour>
        <pt x="437" y="275" on="1"/>
        <pt x="437" y="299" on="0"/>
        <pt x="403" y="333" on="0"/>
        <pt x="378" y="333" on="1"/>
        <pt x="245" y="333" on="1"/>
        <pt x="221" y="333" on="0"/>
        <pt x="187" y="299" on="0"/>
        <pt x="187" y="275" on="1"/>
        <pt x="187" y="141" on="1"/>
        <pt x="187" y="117" on="0"/>
        <pt x="221" y="83" on="0"/>
        <pt x="245" y="83" on="1"/>
        <pt x="378" y="83" on="1"/>
        <pt x="401" y="83" on="0"/>
        <pt x="437" y="117" on="0"/>
        <pt x="437" y="141" on="1"/>
        <pt x="437" y="275" on="1"/>
      </contour>
    </TTGlyph>
    <TTGlyph name="O" xMin="20" yMin="0" xMax="436" yMax="750">
      <contour>
        <pt x="436" y="141" on="1"/>
        <pt x="436" y="82" on="0"/>
        <pt x="354" y="0" on="0"/>
        <pt x="295" y="0" on="1"/>
        <pt x="161" y="0" on="1"/>
        <pt x="102" y="0" on="0"/>
        <pt x="20" y="82" on="0"/>
        <pt x="20" y="141" on="1"/>
        <pt x="20" y="608" on="1"/>
        <pt x="20" y="664" on="0"/>
        <pt x="61" y="708" on="1"/>
        <pt x="101" y="750" on="0"/>
        <pt x="161" y="750" on="1"/>
        <pt x="295" y="750" on="1"/>
        <pt x="354" y="750" on="0"/>
        <pt x="436" y="668" on="0"/>
        <pt x="436" y="608" on="1"/>
      </contour>
      <contour>
        <pt x="353" y="608" on="1"/>
        <pt x="353" y="632" on="0"/>
        <pt x="319" y="666" on="0"/>
        <pt x="295" y="666" on="1"/>
        <pt x="161" y="666" on="1"/>
        <pt x="137" y="666" on="0"/>
        <pt x="103" y="632" on="0"/>
        <pt x="103" y="608" on="1"/>
        <pt x="103" y="141" on="1"/>
        <pt x="103" y="117" on="0"/>
        <pt x="137" y="83" on="0"/>
        <pt x="161" y="83" on="1"/>
        <pt x="295" y="83" on="1"/>
        <pt x="319" y="83" on="0"/>
        <pt x="353" y="117" on="0"/>
        <pt x="353" y="141" on="1"/>
        <pt x="353" y="608" on="1"/>
      </contour>
    </TTGlyph>
    <TTGlyph name="Oacute" xMin="20" yMin="0" xMax="520" yMax="750">
      <contour>
        <pt x="437" y="141" on="1"/>
        <pt x="437" y="120" on="0"/>
        <pt x="442" y="93" on="0"/>
        <pt x="447" y="83" on="1"/>
        <pt x="478" y="83" on="1"/>
        <pt x="496" y="83" on="0"/>
        <pt x="520" y="59" on="0"/>
        <pt x="520" y="41" on="1"/>
        <pt x="520" y="24" on="0"/>
        <pt x="496" y="0" on="0"/>
        <pt x="478" y="0" on="1"/>
        <pt x="437" y="0" on="1"/>
        <pt x="405" y="0" on="0"/>
        <pt x="383" y="30" on="1"/>
        <pt x="344" y="0" on="0"/>
        <pt x="295" y="0" on="1"/>
        <pt x="162" y="0" on="1"/>
        <pt x="106" y="0" on="0"/>
        <pt x="62" y="41" on="1"/>
        <pt x="20" y="81" on="0"/>
        <pt x="20" y="141" on="1"/>
        <pt x="20" y="275" on="1"/>
        <pt x="20" y="334" on="0"/>
        <pt x="102" y="416" on="0"/>
        <pt x="162" y="416" on="1"/>
        <pt x="295" y="416" on="1"/>
        <pt x="327" y="416" on="0"/>
        <pt x="353" y="404" on="1"/>
        <pt x="353" y="625" on="1"/>
        <pt x="353" y="638" on="0"/>
        <pt x="348" y="661" on="0"/>
        <pt x="345" y="666" on="1"/>
        <pt x="312" y="666" on="1"/>
        <pt x="294" y="666" on="0"/>
        <pt x="270" y="690" on="0"/>
        <pt x="270" y="708" on="1"/>
        <pt x="270" y="726" on="0"/>
        <pt x="294" y="750" on="0"/>
        <pt x="312" y="750" on="1"/>
        <pt x="353" y="750" on="1"/>
        <pt x="377" y="750" on="0"/>
        <pt x="396" y="734" on="1"/>
        <pt x="415" y="750" on="0"/>
        <pt x="437" y="750" on="1"/>
        <pt x="478" y="750" on="1"/>
        <pt x="496" y="750" on="0"/>
        <pt x="520" y="726" on="0"/>
        <pt x="520" y="708" on="1"/>
        <pt x="520" y="690" on="0"/>
        <pt x="496" y="666" on="0"/>
        <pt x="478" y="666" on="1"/>
        <pt x="447" y="666" on="1"/>
        <pt x="444" y="660" on="0"/>
        <pt x="437" y="627" on="0"/>
        <pt x="437" y="608" on="1"/>
        <pt x="437" y="141" on="1"/>
      </contour>
      <contour>
        <pt x="353" y="275" on="1"/>
        <pt x="353" y="299" on="0"/>
        <pt x="319" y="333" on="0"/>
        <pt x="295" y="333" on="1"/>
        <pt x="162" y="333" on="1"/>
        <pt x="137" y="333" on="0"/>
        <pt x="103" y="299" on="0"/>
        <pt x="103" y="275" on="1"/>
        <pt x="103" y="141" on="1"/>
        <pt x="103" y="117" on="0"/>
        <pt x="137" y="83" on="0"/>
        <pt x="162" y="83" on="1"/>
        <pt x="295" y="83" on="1"/>
        <pt x="319" y="83" on="0"/>
        <pt x="353" y="117" on="0"/>
        <pt x="353" y="141" on="1"/>
      </contour>
    </TTGlyph>
    <TTGlyph name="Ocircumflex" xMin="20" yMin="0" xMax="603" yMax="750">
      <contour>
        <pt x="603" y="41" on="1"/>
        <pt x="603" y="24" on="0"/>
        <pt x="579" y="0" on="0"/>
        <pt x="562" y="0" on="1"/>
        <pt x="520" y="0" on="1"/>
        <pt x="495" y="0" on="0"/>
        <pt x="479" y="16" on="1"/>
        <pt x="463" y="0" on="0"/>
        <pt x="437" y="0" on="1"/>
        <pt x="395" y="0" on="1"/>
        <pt x="378" y="0" on="0"/>
        <pt x="353" y="23" on="0"/>
        <pt x="353" y="41" on="1"/>
        <pt x="353" y="59" on="0"/>
        <pt x="377" y="83" on="0"/>
        <pt x="395" y="83" on="1"/>
        <pt x="428" y="83" on="1"/>
        <pt x="432" y="88" on="0"/>
        <pt x="437" y="110" on="0"/>
        <pt x="437" y="125" on="1"/>
        <pt x="437" y="275" on="1"/>
        <pt x="437" y="299" on="0"/>
        <pt x="403" y="333" on="0"/>
        <pt x="378" y="333" on="1"/>
        <pt x="245" y="333" on="1"/>
        <pt x="221" y="333" on="0"/>
        <pt x="187" y="299" on="0"/>
        <pt x="187" y="275" on="1"/>
        <pt x="187" y="141" on="1"/>
        <pt x="187" y="119" on="0"/>
        <pt x="193" y="92" on="0"/>
        <pt x="198" y="83" on="1"/>
        <pt x="228" y="83" on="1"/>
        <pt x="246" y="83" on="0"/>
        <pt x="270" y="59" on="0"/>
        <pt x="270" y="41" on="1"/>
        <pt x="270" y="24" on="0"/>
        <pt x="246" y="0" on="0"/>
        <pt x="228" y="0" on="1"/>
        <pt x="187" y="0" on="1"/>
        <pt x="164" y="0" on="0"/>
        <pt x="145" y="16" on="1"/>
        <pt x="126" y="0" on="0"/>
        <pt x="103" y="0" on="1"/>
        <pt x="62" y="0" on="1"/>
        <pt x="45" y="0" on="0"/>
        <pt x="20" y="23" on="0"/>
        <pt x="20" y="41" on="1"/>
        <pt x="20" y="59" on="0"/>
        <pt x="44" y="83" on="0"/>
        <pt x="62" y="83" on="1"/>
        <pt x="93" y="83" on="1"/>
        <pt x="96" y="90" on="0"/>
        <pt x="103" y="123" on="0"/>
        <pt x="103" y="141" on="1"/>
        <pt x="103" y="608" on="1"/>
        <pt x="103" y="650" on="0"/>
        <pt x="93" y="666" on="1"/>
        <pt x="62" y="666" on="1"/>
        <pt x="44" y="666" on="0"/>
        <pt x="20" y="690" on="0"/>
        <pt x="20" y="708" on="1"/>
        <pt x="20" y="726" on="0"/>
        <pt x="44" y="750" on="0"/>
        <pt x="62" y="750" on="1"/>
        <pt x="103" y="750" on="1"/>
        <pt x="128" y="750" on="0"/>
        <pt x="144" y="734" on="1"/>
        <pt x="163" y="750" on="0"/>
        <pt x="187" y="750" on="1"/>
        <pt x="228" y="750" on="1"/>
        <pt x="246" y="750" on="0"/>
        <pt x="270" y="726" on="0"/>
        <pt x="270" y="708" on="1"/>
        <pt x="270" y="690" on="0"/>
        <pt x="246" y="666" on="0"/>
        <pt x="228" y="666" on="1"/>
        <pt x="195" y="666" on="1"/>
        <pt x="192" y="661" on="0"/>
        <pt x="187" y="639" on="0"/>
        <pt x="187" y="625" on="1"/>
        <pt x="187" y="404" on="1"/>
        <pt x="214" y="416" on="0"/>
        <pt x="245" y="416" on="1"/>
        <pt x="378" y="416" on="1"/>
        <pt x="438" y="416" on="0"/>
        <pt x="520" y="334" on="0"/>
        <pt x="520" y="275" on="1"/>
        <pt x="520" y="141" on="1"/>
        <pt x="520" y="123" on="0"/>
        <pt x="527" y="93" on="0"/>
        <pt x="531" y="83" on="1"/>
        <pt x="562" y="83" on="1"/>
        <pt x="579" y="83" on="0"/>
        <pt x="603" y="59" on="0"/>
      </contour>
    </TTGlyph>
    <TTGlyph name="Odieresis" xMin="20" yMin="0" xMax="270" yMax="583">
      <contour>
        <pt x="187" y="141" on="1"/>
        <pt x="187" y="123" on="0"/>
        <pt x="194" y="93" on="0"/>
        <pt x="198" y="83" on="1"/>
        <pt x="229" y="83" on="1"/>
        <pt x="246" y="83" on="0"/>
        <pt x="270" y="59" on="0"/>
        <pt x="270" y="41" on="1"/>
        <pt x="270" y="24" on="0"/>
        <pt x="246" y="0" on="0"/>
        <pt x="229" y="0" on="1"/>
        <pt x="187" y="0" on="1"/>
        <pt x="164" y="0" on="0"/>
        <pt x="145" y="16" on="1"/>
        <pt x="129" y="0" on="0"/>
        <pt x="104" y="0" on="1"/>
        <pt x="62" y="0" on="1"/>
        <pt x="45" y="0" on="0"/>
        <pt x="20" y="23" on="0"/>
        <pt x="20" y="41" on="1"/>
        <pt x="20" y="59" on="0"/>
        <pt x="44" y="83" on="0"/>
        <pt x="62" y="83" on="1"/>
        <pt x="93" y="83" on="1"/>
        <pt x="104" y="103" on="0"/>
        <pt x="104" y="141" on="1"/>
        <pt x="104" y="275" on="1"/>
        <pt x="104" y="293" on="0"/>
        <pt x="97" y="323" on="0"/>
        <pt x="93" y="333" on="1"/>
        <pt x="62" y="333" on="1"/>
        <pt x="44" y="333" on="0"/>
        <pt x="20" y="357" on="0"/>
        <pt x="20" y="375" on="1"/>
        <pt x="20" y="392" on="0"/>
        <pt x="44" y="416" on="0"/>
        <pt x="62" y="416" on="1"/>
        <pt x="104" y="416" on="1"/>
        <pt x="129" y="416" on="0"/>
        <pt x="145" y="400" on="1"/>
        <pt x="164" y="416" on="0"/>
        <pt x="187" y="416" on="1"/>
        <pt x="229" y="416" on="1"/>
        <pt x="246" y="416" on="0"/>
        <pt x="270" y="392" on="0"/>
        <pt x="270" y="375" on="1"/>
        <pt x="270" y="358" on="0"/>
        <pt x="247" y="333" on="0"/>
        <pt x="229" y="333" on="1"/>
        <pt x="198" y="333" on="1"/>
        <pt x="187" y="313" on="0"/>
        <pt x="187" y="275" on="1"/>
      </contour>
      <contour>
        <pt x="104" y="541" on="1"/>
        <pt x="104" y="558" on="0"/>
        <pt x="127" y="583" on="0"/>
        <pt x="145" y="583" on="1"/>
        <pt x="163" y="583" on="0"/>
        <pt x="187" y="559" on="0"/>
        <pt x="187" y="541" on="1"/>
        <pt x="187" y="524" on="0"/>
        <pt x="163" y="500" on="0"/>
        <pt x="145" y="500" on="1"/>
        <pt x="128" y="500" on="0"/>
        <pt x="104" y="524" on="0"/>
      </contour>
    </TTGlyph>
    <TTGlyph name="Ograve" xMin="20" yMin="0" xMax="520" yMax="750">
      <contour>
        <pt x="520" y="41" on="1"/>
        <pt x="520" y="24" on="0"/>
        <pt x="496" y="0" on="0"/>
        <pt x="478" y="0" on="1"/>
        <pt x="437" y="0" on="1"/>
        <pt x="405" y="0" on="0"/>
        <pt x="383" y="30" on="1"/>
        <pt x="344" y="0" on="0"/>
        <pt x="295" y="0" on="1"/>
        <pt x="162" y="0" on="1"/>
        <pt x="106" y="0" on="0"/>
        <pt x="62" y="41" on="1"/>
        <pt x="20" y="81" on="0"/>
        <pt x="20" y="141" on="1"/>
        <pt x="20" y="275" on="1"/>
        <pt x="20" y="334" on="0"/>
        <pt x="102" y="416" on="0"/>
        <pt x="162" y="416" on="1"/>
        <pt x="295" y="416" on="1"/>
        <pt x="327" y="416" on="0"/>
        <pt x="353" y="404" on="1"/>
        <pt x="353" y="608" on="1"/>
        <pt x="353" y="650" on="0"/>
        <pt x="343" y="666" on="1"/>
        <pt x="312" y="666" on="1"/>
        <pt x="294" y="666" on="0"/>
        <pt x="270" y="690" on="0"/>
        <pt x="270" y="708" on="1"/>
        <pt x="270" y="726" on="0"/>
        <pt x="294" y="750" on="0"/>
        <pt x="312" y="750" on="1"/>
        <pt x="353" y="750" on="1"/>
        <pt x="371" y="750" on="0"/>
        <pt x="402" y="729" on="0"/>
        <pt x="424" y="691" on="0"/>
        <pt x="437" y="639" on="0"/>
        <pt x="437" y="608" on="1"/>
        <pt x="437" y="141" on="1"/>
        <pt x="437" y="120" on="0"/>
        <pt x="442" y="93" on="0"/>
        <pt x="447" y="83" on="1"/>
        <pt x="478" y="83" on="1"/>
        <pt x="496" y="83" on="0"/>
        <pt x="520" y="59" on="0"/>
      </contour>
      <contour>
        <pt x="353" y="275" on="1"/>
        <pt x="353" y="299" on="0"/>
        <pt x="319" y="333" on="0"/>
        <pt x="295" y="333" on="1"/>
        <pt x="162" y="333" on="1"/>
        <pt x="137" y="333" on="0"/>
        <pt x="103" y="299" on="0"/>
        <pt x="103" y="275" on="1"/>
        <pt x="103" y="141" on="1"/>
        <pt x="103" y="117" on="0"/>
        <pt x="137" y="83" on="0"/>
        <pt x="162" y="83" on="1"/>
        <pt x="295" y="83" on="1"/>
        <pt x="319" y="83" on="0"/>
        <pt x="353" y="117" on="0"/>
        <pt x="353" y="141" on="1"/>
      </contour>
    </TTGlyph>
    <TTGlyph name="Oslash" xMin="20" yMin="-121" xMax="353" yMax="583">
      <contour>
        <pt x="186" y="541" on="1"/>
        <pt x="186" y="559" on="0"/>
        <pt x="210" y="583" on="0"/>
        <pt x="228" y="583" on="1"/>
        <pt x="246" y="583" on="0"/>
        <pt x="270" y="559" on="0"/>
        <pt x="270" y="541" on="1"/>
        <pt x="270" y="524" on="0"/>
        <pt x="246" y="500" on="0"/>
        <pt x="228" y="500" on="1"/>
        <pt x="211" y="500" on="0"/>
        <pt x="186" y="523" on="0"/>
      </contour>
      <contour>
        <pt x="353" y="375" on="1"/>
        <pt x="353" y="357" on="0"/>
        <pt x="329" y="333" on="0"/>
        <pt x="311" y="333" on="1"/>
        <pt x="278" y="333" on="1"/>
        <pt x="275" y="327" on="0"/>
        <pt x="270" y="305" on="0"/>
        <pt x="270" y="291" on="1"/>
        <pt x="270" y="16" on="1"/>
        <pt x="270" y="-40" on="0"/>
        <pt x="234" y="-80" on="1"/>
        <pt x="198" y="-121" on="0"/>
        <pt x="145" y="-121" on="1"/>
        <pt x="61" y="-121" on="1"/>
        <pt x="44" y="-121" on="0"/>
        <pt x="20" y="-97" on="0"/>
        <pt x="20" y="-80" on="1"/>
        <pt x="20" y="-63" on="0"/>
        <pt x="43" y="-38" on="0"/>
        <pt x="61" y="-38" on="1"/>
        <pt x="145" y="-38" on="1"/>
        <pt x="162" y="-38" on="0"/>
        <pt x="186" y="-4" on="0"/>
        <pt x="186" y="16" on="1"/>
        <pt x="186" y="275" on="1"/>
        <pt x="186" y="296" on="0"/>
        <pt x="181" y="323" on="0"/>
        <pt x="176" y="333" on="1"/>
        <pt x="145" y="333" on="1"/>
        <pt x="127" y="333" on="0"/>
        <pt x="103" y="357" on="0"/>
        <pt x="103" y="375" on="1"/>
        <pt x="103" y="392" on="0"/>
        <pt x="127" y="416" on="0"/>
        <pt x="145" y="416" on="1"/>
        <pt x="186" y="416" on="1"/>
        <pt x="211" y="416" on="0"/>
        <pt x="227" y="400" on="1"/>
        <pt x="243" y="416" on="0"/>
        <pt x="270" y="416" on="1"/>
        <pt x="311" y="416" on="1"/>
        <pt x="328" y="416" on="0"/>
        <pt x="353" y="393" on="0"/>
      </contour>
    </TTGlyph>
    <TTGlyph name="Otilde" xMin="20" yMin="0" xMax="270" yMax="583">
      <contour>
        <pt x="270" y="41" on="1"/>
        <pt x="270" y="24" on="0"/>
        <pt x="246" y="0" on="0"/>
        <pt x="229" y="0" on="1"/>
        <pt x="187" y="0" on="1"/>
        <pt x="150" y="0" on="0"/>
        <pt x="104" y="78" on="0"/>
        <pt x="104" y="141" on="1"/>
        <pt x="104" y="275" on="1"/>
        <pt x="104" y="293" on="0"/>
        <pt x="97" y="323" on="0"/>
        <pt x="93" y="333" on="1"/>
        <pt x="62" y="333" on="1"/>
        <pt x="44" y="333" on="0"/>
        <pt x="20" y="357" on="0"/>
        <pt x="20" y="375" on="1"/>
        <pt x="20" y="392" on="0"/>
        <pt x="44" y="416" on="0"/>
        <pt x="62" y="416" on="1"/>
        <pt x="104" y="416" on="1"/>
        <pt x="141" y="416" on="0"/>
        <pt x="187" y="338" on="0"/>
        <pt x="187" y="275" on="1"/>
        <pt x="187" y="141" on="1"/>
        <pt x="187" y="123" on="0"/>
        <pt x="194" y="93" on="0"/>
        <pt x="198" y="83" on="1"/>
        <pt x="229" y="83" on="1"/>
        <pt x="246" y="83" on="0"/>
        <pt x="270" y="59" on="0"/>
      </contour>
      <contour>
        <pt x="104" y="541" on="1"/>
        <pt x="104" y="558" on="0"/>
        <pt x="127" y="583" on="0"/>
        <pt x="145" y="583" on="1"/>
        <pt x="163" y="583" on="0"/>
        <pt x="187" y="559" on="0"/>
        <pt x="187" y="541" on="1"/>
        <pt x="187" y="524" on="0"/>
        <pt x="163" y="500" on="0"/>
        <pt x="145" y="500" on="1"/>
        <pt x="128" y="500" on="0"/>
        <pt x="104" y="524" on="0"/>
      </contour>
    </TTGlyph>
    <TTGlyph name="P" xMin="20" yMin="0" xMax="520" yMax="750">
      <contour>
        <pt x="520" y="475" on="1"/>
        <pt x="520" y="416" on="0"/>
        <pt x="478" y="374" on="1"/>
        <pt x="437" y="333" on="0"/>
        <pt x="378" y="333" on="1"/>
        <pt x="245" y="333" on="1"/>
        <pt x="212" y="333" on="0"/>
        <pt x="187" y="346" on="1"/>
        <pt x="187" y="125" on="1"/>
        <pt x="187" y="111" on="0"/>
        <pt x="192" y="89" on="0"/>
        <pt x="195" y="83" on="1"/>
        <pt x="228" y="83" on="1"/>
        <pt x="246" y="83" on="0"/>
        <pt x="270" y="59" on="0"/>
        <pt x="270" y="41" on="1"/>
        <pt x="270" y="24" on="0"/>
        <pt x="246" y="0" on="0"/>
        <pt x="228" y="0" on="1"/>
        <pt x="187" y="0" on="1"/>
        <pt x="160" y="0" on="0"/>
        <pt x="144" y="16" on="1"/>
        <pt x="128" y="0" on="0"/>
        <pt x="103" y="0" on="1"/>
        <pt x="62" y="0" on="1"/>
        <pt x="45" y="0" on="0"/>
        <pt x="20" y="23" on="0"/>
        <pt x="20" y="41" on="1"/>
        <pt x="20" y="59" on="0"/>
        <pt x="44" y="83" on="0"/>
        <pt x="62" y="83" on="1"/>
        <pt x="93" y="83" on="1"/>
        <pt x="96" y="90" on="0"/>
        <pt x="103" y="123" on="0"/>
        <pt x="103" y="141" on="1"/>
        <pt x="103" y="608" on="1"/>
        <pt x="103" y="650" on="0"/>
        <pt x="93" y="666" on="1"/>
        <pt x="62" y="666" on="1"/>
        <pt x="44" y="666" on="0"/>
        <pt x="20" y="690" on="0"/>
        <pt x="20" y="708" on="1"/>
        <pt x="20" y="726" on="0"/>
        <pt x="44" y="750" on="0"/>
        <pt x="62" y="750" on="1"/>
        <pt x="103" y="750" on="1"/>
        <pt x="135" y="750" on="0"/>
        <pt x="157" y="719" on="1"/>
        <pt x="197" y="750" on="0"/>
        <pt x="245" y="750" on="1"/>
        <pt x="378" y="750" on="1"/>
        <pt x="437" y="750" on="0"/>
        <pt x="478" y="708" on="1"/>
        <pt x="520" y="667" on="0"/>
        <pt x="520" y="608" on="1"/>
      </contour>
      <contour>
        <pt x="437" y="608" on="1"/>
        <pt x="437" y="632" on="0"/>
        <pt x="403" y="666" on="0"/>
        <pt x="378" y="666" on="1"/>
        <pt x="245" y="666" on="1"/>
        <pt x="221" y="666" on="0"/>
        <pt x="187" y="632" on="0"/>
        <pt x="187" y="608" on="1"/>
        <pt x="187" y="475" on="1"/>
        <pt x="187" y="452" on="0"/>
        <pt x="221" y="416" on="0"/>
        <pt x="245" y="416" on="1"/>
        <pt x="378" y="416" on="1"/>
        <pt x="402" y="416" on="0"/>
        <pt x="437" y="451" on="0"/>
        <pt x="437" y="475" on="1"/>
        <pt x="437" y="608" on="1"/>
      </contour>
    </TTGlyph>
    <TTGlyph name="Q" xMin="20" yMin="-80" xMax="436" yMax="750">
      <contour>
        <pt x="436" y="141" on="1"/>
        <pt x="436" y="82" on="0"/>
        <pt x="354" y="0" on="0"/>
        <pt x="295" y="0" on="1"/>
        <pt x="270" y="0" on="1"/>
        <pt x="270" y="-38" on="1"/>
        <pt x="270" y="-56" on="0"/>
        <pt x="246" y="-80" on="0"/>
        <pt x="228" y="-80" on="1"/>
        <pt x="210" y="-80" on="0"/>
        <pt x="186" y="-56" on="0"/>
        <pt x="186" y="-38" on="1"/>
        <pt x="186" y="0" on="1"/>
        <pt x="161" y="0" on="1"/>
        <pt x="102" y="0" on="0"/>
        <pt x="20" y="82" on="0"/>
        <pt x="20" y="141" on="1"/>
        <pt x="20" y="608" on="1"/>
        <pt x="20" y="664" on="0"/>
        <pt x="61" y="708" on="1"/>
        <pt x="101" y="750" on="0"/>
        <pt x="161" y="750" on="1"/>
        <pt x="295" y="750" on="1"/>
        <pt x="354" y="750" on="0"/>
        <pt x="436" y="668" on="0"/>
        <pt x="436" y="608" on="1"/>
      </contour>
      <contour>
        <pt x="353" y="608" on="1"/>
        <pt x="353" y="632" on="0"/>
        <pt x="319" y="666" on="0"/>
        <pt x="295" y="666" on="1"/>
        <pt x="161" y="666" on="1"/>
        <pt x="137" y="666" on="0"/>
        <pt x="103" y="632" on="0"/>
        <pt x="103" y="608" on="1"/>
        <pt x="103" y="141" on="1"/>
        <pt x="103" y="117" on="0"/>
        <pt x="137" y="83" on="0"/>
        <pt x="161" y="83" on="1"/>
        <pt x="186" y="83" on="1"/>
        <pt x="186" y="125" on="1"/>
        <pt x="186" y="142" on="0"/>
        <pt x="210" y="166" on="0"/>
        <pt x="228" y="166" on="1"/>
        <pt x="245" y="166" on="0"/>
        <pt x="270" y="143" on="0"/>
        <pt x="270" y="125" on="1"/>
        <pt x="270" y="83" on="1"/>
        <pt x="295" y="83" on="1"/>
        <pt x="319" y="83" on="0"/>
        <pt x="353" y="117" on="0"/>
        <pt x="353" y="141" on="1"/>
        <pt x="353" y="608" on="1"/>
      </contour>
    </TTGlyph>
    <TTGlyph name="R" xMin="20" yMin="0" xMax="603" yMax="750">
      <contour>
        <pt x="603" y="41" on="1"/>
        <pt x="603" y="24" on="0"/>
        <pt x="579" y="0" on="0"/>
        <pt x="562" y="0" on="1"/>
        <pt x="520" y="0" on="1"/>
        <pt x="494" y="0" on="0"/>
        <pt x="478" y="16" on="1"/>
        <pt x="462" y="0" on="0"/>
        <pt x="437" y="0" on="1"/>
        <pt x="395" y="0" on="1"/>
        <pt x="378" y="0" on="0"/>
        <pt x="353" y="23" on="0"/>
        <pt x="353" y="41" on="1"/>
        <pt x="353" y="59" on="0"/>
        <pt x="377" y="83" on="0"/>
        <pt x="395" y="83" on="1"/>
        <pt x="426" y="83" on="1"/>
        <pt x="437" y="103" on="0"/>
        <pt x="437" y="141" on="1"/>
        <pt x="437" y="275" on="1"/>
        <pt x="437" y="299" on="0"/>
        <pt x="403" y="333" on="0"/>
        <pt x="378" y="333" on="1"/>
        <pt x="245" y="333" on="1"/>
        <pt x="221" y="333" on="0"/>
        <pt x="187" y="299" on="0"/>
        <pt x="187" y="275" on="1"/>
        <pt x="187" y="141" on="1"/>
        <pt x="187" y="119" on="0"/>
        <pt x="193" y="92" on="0"/>
        <pt x="198" y="83" on="1"/>
        <pt x="228" y="83" on="1"/>
        <pt x="246" y="83" on="0"/>
        <pt x="270" y="59" on="0"/>
        <pt x="270" y="41" on="1"/>
        <pt x="270" y="24" on="0"/>
        <pt x="246" y="0" on="0"/>
        <pt x="228" y="0" on="1"/>
        <pt x="187" y="0" on="1"/>
        <pt x="164" y="0" on="0"/>
        <pt x="145" y="16" on="1"/>
        <pt x="126" y="0" on="0"/>
        <pt x="103" y="0" on="1"/>
        <pt x="62" y="0" on="1"/>
        <pt x="45" y="0" on="0"/>
        <pt x="20" y="23" on="0"/>
        <pt x="20" y="41" on="1"/>
        <pt x="20" y="59" on="0"/>
        <pt x="44" y="83" on="0"/>
        <pt x="62" y="83" on="1"/>
        <pt x="93" y="83" on="1"/>
        <pt x="96" y="90" on="0"/>
        <pt x="103" y="123" on="0"/>
        <pt x="103" y="141" on="1"/>
        <pt x="103" y="608" on="1"/>
        <pt x="103" y="650" on="0"/>
        <pt x="93" y="666" on="1"/>
        <pt x="62" y="666" on="1"/>
        <pt x="44" y="666" on="0"/>
        <pt x="20" y="690" on="0"/>
        <pt x="20" y="708" on="1"/>
        <pt x="20" y="726" on="0"/>
        <pt x="44" y="750" on="0"/>
        <pt x="62" y="750" on="1"/>
        <pt x="103" y="750" on="1"/>
        <pt x="134" y="750" on="0"/>
        <pt x="156" y="722" on="1"/>
        <pt x="174" y="735" on="0"/>
        <pt x="220" y="750" on="0"/>
        <pt x="245" y="750" on="1"/>
        <pt x="378" y="750" on="1"/>
        <pt x="438" y="750" on="0"/>
        <pt x="520" y="668" on="0"/>
        <pt x="520" y="608" on="1"/>
        <pt x="520" y="475" on="1"/>
        <pt x="520" y="446" on="0"/>
        <pt x="498" y="394" on="0"/>
        <pt x="479" y="375" on="1"/>
        <pt x="498" y="355" on="0"/>
        <pt x="520" y="304" on="0"/>
        <pt x="520" y="275" on="1"/>
        <pt x="520" y="125" on="1"/>
        <pt x="520" y="96" on="0"/>
        <pt x="529" y="83" on="1"/>
        <pt x="562" y="83" on="1"/>
        <pt x="579" y="83" on="0"/>
        <pt x="603" y="59" on="0"/>
      </contour>
      <contour>
        <pt x="378" y="416" on="1"/>
        <pt x="403" y="416" on="0"/>
        <pt x="437" y="450" on="0"/>
        <pt x="437" y="475" on="1"/>
        <pt x="437" y="608" on="1"/>
        <pt x="437" y="632" on="0"/>
        <pt x="403" y="666" on="0"/>
        <pt x="378" y="666" on="1"/>
        <pt x="245" y="666" on="1"/>
        <pt x="221" y="666" on="0"/>
        <pt x="187" y="642" on="0"/>
        <pt x="187" y="625" on="1"/>
        <pt x="187" y="405" on="1"/>
        <pt x="223" y="416" on="0"/>
        <pt x="245" y="416" on="1"/>
        <pt x="378" y="416" on="1"/>
      </contour>
    </TTGlyph>
    <TTGlyph name="S" xMin="20" yMin="0" xMax="436" yMax="750">
      <contour>
        <pt x="436" y="625" on="1"/>
        <pt x="436" y="608" on="0"/>
        <pt x="413" y="583" on="0"/>
        <pt x="395" y="583" on="1"/>
        <pt x="377" y="583" on="0"/>
        <pt x="353" y="607" on="0"/>
        <pt x="353" y="625" on="1"/>
        <pt x="353" y="656" on="1"/>
        <pt x="346" y="659" on="0"/>
        <pt x="313" y="666" on="0"/>
        <pt x="295" y="666" on="1"/>
        <pt x="161" y="666" on="1"/>
        <pt x="137" y="666" on="0"/>
        <pt x="103" y="632" on="0"/>
        <pt x="103" y="608" on="1"/>
        <pt x="103" y="475" on="1"/>
        <pt x="103" y="452" on="0"/>
        <pt x="137" y="416" on="0"/>
        <pt x="161" y="416" on="1"/>
        <pt x="295" y="416" on="1"/>
        <pt x="354" y="416" on="0"/>
        <pt x="436" y="334" on="0"/>
        <pt x="436" y="275" on="1"/>
        <pt x="436" y="141" on="1"/>
        <pt x="436" y="82" on="0"/>
        <pt x="354" y="0" on="0"/>
        <pt x="295" y="0" on="1"/>
        <pt x="161" y="0" on="1"/>
        <pt x="98" y="0" on="0"/>
        <pt x="20" y="46" on="0"/>
        <pt x="20" y="83" on="1"/>
        <pt x="20" y="125" on="1"/>
        <pt x="20" y="142" on="0"/>
        <pt x="44" y="166" on="0"/>
        <pt x="61" y="166" on="1"/>
        <pt x="79" y="166" on="0"/>
        <pt x="103" y="142" on="0"/>
        <pt x="103" y="125" on="1"/>
        <pt x="103" y="94" on="1"/>
        <pt x="110" y="90" on="0"/>
        <pt x="142" y="83" on="0"/>
        <pt x="161" y="83" on="1"/>
        <pt x="295" y="83" on="1"/>
        <pt x="319" y="83" on="0"/>
        <pt x="353" y="117" on="0"/>
        <pt x="353" y="141" on="1"/>
        <pt x="353" y="275" on="1"/>
        <pt x="353" y="299" on="0"/>
        <pt x="319" y="333" on="0"/>
        <pt x="295" y="333" on="1"/>
        <pt x="161" y="333" on="1"/>
        <pt x="102" y="333" on="0"/>
        <pt x="20" y="415" on="0"/>
        <pt x="20" y="475" on="1"/>
        <pt x="20" y="608" on="1"/>
        <pt x="20" y="664" on="0"/>
        <pt x="61" y="708" on="1"/>
        <pt x="101" y="750" on="0"/>
        <pt x="161" y="750" on="1"/>
        <pt x="295" y="750" on="1"/>
        <pt x="358" y="750" on="0"/>
        <pt x="436" y="704" on="0"/>
        <pt x="436" y="666" on="1"/>
      </contour>
    </TTGlyph>
    <TTGlyph name="T" xMin="20" yMin="0" xMax="436" yMax="750">
      <contour>
        <pt x="436" y="625" on="1"/>
        <pt x="436" y="608" on="0"/>
        <pt x="413" y="583" on="0"/>
        <pt x="395" y="583" on="1"/>
        <pt x="377" y="583" on="0"/>
        <pt x="353" y="607" on="0"/>
        <pt x="353" y="625" on="1"/>
        <pt x="353" y="656" on="1"/>
        <pt x="346" y="659" on="0"/>
        <pt x="313" y="666" on="0"/>
        <pt x="295" y="666" on="1"/>
        <pt x="270" y="666" on="1"/>
        <pt x="270" y="125" on="1"/>
        <pt x="270" y="111" on="0"/>
        <pt x="275" y="89" on="0"/>
        <pt x="278" y="83" on="1"/>
        <pt x="311" y="83" on="1"/>
        <pt x="329" y="83" on="0"/>
        <pt x="353" y="59" on="0"/>
        <pt x="353" y="41" on="1"/>
        <pt x="353" y="24" on="0"/>
        <pt x="329" y="0" on="0"/>
        <pt x="311" y="0" on="1"/>
        <pt x="270" y="0" on="1"/>
        <pt x="246" y="0" on="0"/>
        <pt x="227" y="16" on="1"/>
        <pt x="211" y="0" on="0"/>
        <pt x="186" y="0" on="1"/>
        <pt x="145" y="0" on="1"/>
        <pt x="128" y="0" on="0"/>
        <pt x="103" y="23" on="0"/>
        <pt x="103" y="41" on="1"/>
        <pt x="103" y="59" on="0"/>
        <pt x="127" y="83" on="0"/>
        <pt x="145" y="83" on="1"/>
        <pt x="176" y="83" on="1"/>
        <pt x="179" y="90" on="0"/>
        <pt x="186" y="123" on="0"/>
        <pt x="186" y="141" on="1"/>
        <pt x="186" y="666" on="1"/>
        <pt x="161" y="666" on="1"/>
        <pt x="140" y="666" on="0"/>
        <pt x="113" y="661" on="0"/>
        <pt x="103" y="656" on="1"/>
        <pt x="103" y="625" on="1"/>
        <pt x="103" y="607" on="0"/>
        <pt x="79" y="583" on="0"/>
        <pt x="61" y="583" on="1"/>
        <pt x="44" y="583" on="0"/>
        <pt x="20" y="607" on="0"/>
        <pt x="20" y="625" on="1"/>
        <pt x="20" y="666" on="1"/>
        <pt x="20" y="684" on="0"/>
        <pt x="41" y="715" on="0"/>
        <pt x="78" y="737" on="0"/>
        <pt x="130" y="750" on="0"/>
        <pt x="161" y="750" on="1"/>
        <pt x="295" y="750" on="1"/>
        <pt x="358" y="750" on="0"/>
        <pt x="436" y="704" on="0"/>
        <pt x="436" y="666" on="1"/>
      </contour>
    </TTGlyph>
    <TTGlyph name="Thorn" xMin="20" yMin="0" xMax="103" yMax="750">
      <contour>
        <pt x="103" y="208" on="1"/>
        <pt x="103" y="191" on="0"/>
        <pt x="80" y="166" on="0"/>
        <pt x="62" y="166" on="1"/>
        <pt x="44" y="166" on="0"/>
        <pt x="20" y="190" on="0"/>
        <pt x="20" y="208" on="1"/>
        <pt x="20" y="708" on="1"/>
        <pt x="20" y="726" on="0"/>
        <pt x="44" y="750" on="0"/>
        <pt x="62" y="750" on="1"/>
        <pt x="79" y="750" on="0"/>
        <pt x="103" y="726" on="0"/>
        <pt x="103" y="708" on="1"/>
      </contour>
      <contour>
        <pt x="103" y="41" on="1"/>
        <pt x="103" y="24" on="0"/>
        <pt x="79" y="0" on="0"/>
        <pt x="62" y="0" on="1"/>
        <pt x="45" y="0" on="0"/>
        <pt x="20" y="23" on="0"/>
        <pt x="20" y="41" on="1"/>
        <pt x="20" y="59" on="0"/>
        <pt x="44" y="83" on="0"/>
        <pt x="62" y="83" on="1"/>
        <pt x="79" y="83" on="0"/>
        <pt x="103" y="59" on="0"/>
      </contour>
    </TTGlyph>
    <TTGlyph name="U" xMin="20" yMin="0" xMax="603" yMax="750">
      <contour>
        <pt x="603" y="708" on="1"/>
        <pt x="603" y="691" on="0"/>
        <pt x="580" y="666" on="0"/>
        <pt x="562" y="666" on="1"/>
        <pt x="531" y="666" on="1"/>
        <pt x="520" y="646" on="0"/>
        <pt x="520" y="608" on="1"/>
        <pt x="520" y="141" on="1"/>
        <pt x="520" y="82" on="0"/>
        <pt x="438" y="0" on="0"/>
        <pt x="378" y="0" on="1"/>
        <pt x="245" y="0" on="1"/>
        <pt x="189" y="0" on="0"/>
        <pt x="145" y="41" on="1"/>
        <pt x="103" y="81" on="0"/>
        <pt x="103" y="141" on="1"/>
        <pt x="103" y="608" on="1"/>
        <pt x="103" y="650" on="0"/>
        <pt x="93" y="666" on="1"/>
        <pt x="62" y="666" on="1"/>
        <pt x="44" y="666" on="0"/>
        <pt x="20" y="690" on="0"/>
        <pt x="20" y="708" on="1"/>
        <pt x="20" y="726" on="0"/>
        <pt x="44" y="750" on="0"/>
        <pt x="62" y="750" on="1"/>
        <pt x="103" y="750" on="1"/>
        <pt x="125" y="750" on="0"/>
        <pt x="145" y="733" on="1"/>
        <pt x="165" y="750" on="0"/>
        <pt x="187" y="750" on="1"/>
        <pt x="228" y="750" on="1"/>
        <pt x="246" y="750" on="0"/>
        <pt x="270" y="726" on="0"/>
        <pt x="270" y="708" on="1"/>
        <pt x="270" y="690" on="0"/>
        <pt x="246" y="666" on="0"/>
        <pt x="228" y="666" on="1"/>
        <pt x="198" y="666" on="1"/>
        <pt x="194" y="660" on="0"/>
        <pt x="187" y="628" on="0"/>
        <pt x="187" y="608" on="1"/>
        <pt x="187" y="141" on="1"/>
        <pt x="187" y="117" on="0"/>
        <pt x="221" y="83" on="0"/>
        <pt x="245" y="83" on="1"/>
        <pt x="378" y="83" on="1"/>
        <pt x="403" y="83" on="0"/>
        <pt x="437" y="117" on="0"/>
        <pt x="437" y="141" on="1"/>
        <pt x="437" y="608" on="1"/>
        <pt x="437" y="627" on="0"/>
        <pt x="430" y="658" on="0"/>
        <pt x="426" y="666" on="1"/>
        <pt x="395" y="666" on="1"/>
        <pt x="377" y="666" on="0"/>
        <pt x="353" y="690" on="0"/>
        <pt x="353" y="708" on="1"/>
        <pt x="353" y="726" on="0"/>
        <pt x="377" y="750" on="0"/>
        <pt x="395" y="750" on="1"/>
        <pt x="437" y="750" on="1"/>
        <pt x="461" y="750" on="0"/>
        <pt x="478" y="733" on="1"/>
        <pt x="498" y="750" on="0"/>
        <pt x="520" y="750" on="1"/>
        <pt x="562" y="750" on="1"/>
        <pt x="579" y="750" on="0"/>
        <pt x="603" y="726" on="0"/>
      </contour>
    </TTGlyph>
    <TTGlyph name="Uacute" xMin="20" yMin="0" xMax="603" yMax="416">
      <contour>
        <pt x="603" y="375" on="1"/>
        <pt x="603" y="358" on="0"/>
        <pt x="580" y="333" on="0"/>
        <pt x="562" y="333" on="1"/>
        <pt x="524" y="333" on="1"/>
        <pt x="513" y="329" on="0"/>
        <pt x="494" y="304" on="1"/>
        <pt x="488" y="296" on="0"/>
        <pt x="476" y="278" on="0"/>
        <pt x="471" y="267" on="1"/>
        <pt x="394" y="112" on="1"/>
        <pt x="382" y="83" on="1"/>
        <pt x="395" y="83" on="1"/>
        <pt x="413" y="83" on="0"/>
        <pt x="437" y="59" on="0"/>
        <pt x="437" y="41" on="1"/>
        <pt x="437" y="24" on="0"/>
        <pt x="413" y="0" on="0"/>
        <pt x="395" y="0" on="1"/>
        <pt x="353" y="0" on="1"/>
        <pt x="327" y="0" on="0"/>
        <pt x="312" y="18" on="1"/>
        <pt x="295" y="0" on="0"/>
        <pt x="270" y="0" on="1"/>
        <pt x="228" y="0" on="1"/>
        <pt x="211" y="0" on="0"/>
        <pt x="187" y="24" on="0"/>
        <pt x="187" y="41" on="1"/>
        <pt x="187" y="58" on="0"/>
        <pt x="210" y="83" on="0"/>
        <pt x="228" y="83" on="1"/>
        <pt x="242" y="83" on="1"/>
        <pt x="230" y="112" on="1"/>
        <pt x="153" y="267" on="1"/>
        <pt x="146" y="280" on="0"/>
        <pt x="131" y="303" on="0"/>
        <pt x="122" y="313" on="1"/>
        <pt x="115" y="321" on="0"/>
        <pt x="104" y="331" on="0"/>
        <pt x="100" y="333" on="1"/>
        <pt x="62" y="333" on="1"/>
        <pt x="44" y="333" on="0"/>
        <pt x="20" y="357" on="0"/>
        <pt x="20" y="375" on="1"/>
        <pt x="20" y="392" on="0"/>
        <pt x="44" y="416" on="0"/>
        <pt x="62" y="416" on="1"/>
        <pt x="103" y="416" on="1"/>
        <pt x="115" y="416" on="0"/>
        <pt x="137" y="408" on="0"/>
        <pt x="148" y="401" on="1"/>
        <pt x="163" y="416" on="0"/>
        <pt x="187" y="416" on="1"/>
        <pt x="228" y="416" on="1"/>
        <pt x="246" y="416" on="0"/>
        <pt x="270" y="392" on="0"/>
        <pt x="270" y="375" on="1"/>
        <pt x="270" y="357" on="0"/>
        <pt x="246" y="333" on="0"/>
        <pt x="228" y="333" on="1"/>
        <pt x="215" y="333" on="1"/>
        <pt x="224" y="310" on="1"/>
        <pt x="312" y="133" on="1"/>
        <pt x="400" y="310" on="1"/>
        <pt x="409" y="333" on="1"/>
        <pt x="395" y="333" on="1"/>
        <pt x="377" y="333" on="0"/>
        <pt x="353" y="357" on="0"/>
        <pt x="353" y="375" on="1"/>
        <pt x="353" y="392" on="0"/>
        <pt x="377" y="416" on="0"/>
        <pt x="395" y="416" on="1"/>
        <pt x="437" y="416" on="1"/>
        <pt x="461" y="416" on="0"/>
        <pt x="476" y="401" on="1"/>
        <pt x="498" y="416" on="0"/>
        <pt x="520" y="416" on="1"/>
        <pt x="562" y="416" on="1"/>
        <pt x="579" y="416" on="0"/>
        <pt x="603" y="392" on="0"/>
      </contour>
    </TTGlyph>
    <TTGlyph name="Ucircumflex" xMin="20" yMin="0" xMax="415" yMax="750">
      <contour>
        <pt x="391" y="705" on="1"/>
        <pt x="415" y="675" on="0"/>
        <pt x="415" y="633" on="1"/>
        <pt x="415" y="609" on="0"/>
        <pt x="411" y="601" on="1"/>
        <pt x="293" y="129" on="1"/>
        <pt x="289" y="114" on="0"/>
        <pt x="287" y="91" on="0"/>
        <pt x="288" y="83" on="1"/>
        <pt x="311" y="83" on="1"/>
        <pt x="329" y="83" on="0"/>
        <pt x="353" y="59" on="0"/>
        <pt x="353" y="41" on="1"/>
        <pt x="353" y="24" on="0"/>
        <pt x="329" y="0" on="0"/>
        <pt x="311" y="0" on="1"/>
        <pt x="270" y="0" on="1"/>
        <pt x="246" y="0" on="0"/>
        <pt x="230" y="16" on="1"/>
        <pt x="211" y="0" on="0"/>
        <pt x="186" y="0" on="1"/>
        <pt x="145" y="0" on="1"/>
        <pt x="128" y="0" on="0"/>
        <pt x="103" y="23" on="0"/>
        <pt x="103" y="41" on="1"/>
        <pt x="103" y="59" on="0"/>
        <pt x="127" y="83" on="0"/>
        <pt x="145" y="83" on="1"/>
        <pt x="180" y="83" on="1"/>
        <pt x="185" y="87" on="0"/>
        <pt x="195" y="103" on="0"/>
        <pt x="200" y="114" on="1"/>
        <pt x="208" y="129" on="0"/>
        <pt x="212" y="148" on="1"/>
        <pt x="330" y="621" on="1"/>
        <pt x="331" y="626" on="0"/>
        <pt x="332" y="633" on="0"/>
        <pt x="332" y="635" on="1"/>
        <pt x="332" y="645" on="0"/>
        <pt x="316" y="666" on="0"/>
        <pt x="295" y="666" on="1"/>
        <pt x="161" y="666" on="1"/>
        <pt x="140" y="666" on="0"/>
        <pt x="113" y="661" on="0"/>
        <pt x="103" y="656" on="1"/>
        <pt x="103" y="625" on="1"/>
        <pt x="103" y="607" on="0"/>
        <pt x="79" y="583" on="0"/>
        <pt x="61" y="583" on="1"/>
        <pt x="44" y="583" on="0"/>
        <pt x="20" y="607" on="0"/>
        <pt x="20" y="625" on="1"/>
        <pt x="20" y="666" on="1"/>
        <pt x="20" y="684" on="0"/>
        <pt x="41" y="715" on="0"/>
        <pt x="78" y="737" on="0"/>
        <pt x="130" y="750" on="0"/>
        <pt x="161" y="750" on="1"/>
        <pt x="295" y="750" on="1"/>
        <pt x="323" y="750" on="0"/>
        <pt x="374" y="726" on="0"/>
      </contour>
    </TTGlyph>
    <TTGlyph name="Udieresis" xMin="20" yMin="0" xMax="520" yMax="750">
      <contour>
        <pt x="520" y="41" on="1"/>
        <pt x="520" y="24" on="0"/>
        <pt x="496" y="0" on="0"/>
        <pt x="478" y="0" on="1"/>
        <pt x="437" y="0" on="1"/>
        <pt x="414" y="0" on="0"/>
        <pt x="395" y="16" on="1"/>
        <pt x="376" y="0" on="0"/>
        <pt x="353" y="0" on="1"/>
        <pt x="312" y="0" on="1"/>
        <pt x="295" y="0" on="0"/>
        <pt x="270" y="23" on="0"/>
        <pt x="270" y="41" on="1"/>
        <pt x="270" y="59" on="0"/>
        <pt x="294" y="83" on="0"/>
        <pt x="312" y="83" on="1"/>
        <pt x="343" y="83" on="1"/>
        <pt x="346" y="90" on="0"/>
        <pt x="353" y="123" on="0"/>
        <pt x="353" y="141" on="1"/>
        <pt x="353" y="346" on="1"/>
        <pt x="328" y="333" on="0"/>
        <pt x="295" y="333" on="1"/>
        <pt x="162" y="333" on="1"/>
        <pt x="105" y="333" on="0"/>
        <pt x="61" y="374" on="1"/>
        <pt x="20" y="418" on="0"/>
        <pt x="20" y="475" on="1"/>
        <pt x="20" y="608" on="1"/>
        <pt x="20" y="667" on="0"/>
        <pt x="61" y="708" on="1"/>
        <pt x="103" y="750" on="0"/>
        <pt x="162" y="750" on="1"/>
        <pt x="295" y="750" on="1"/>
        <pt x="354" y="750" on="0"/>
        <pt x="395" y="708" on="1"/>
        <pt x="437" y="667" on="0"/>
        <pt x="437" y="608" on="1"/>
        <pt x="437" y="475" on="1"/>
        <pt x="437" y="141" on="1"/>
        <pt x="437" y="120" on="0"/>
        <pt x="442" y="93" on="0"/>
        <pt x="447" y="83" on="1"/>
        <pt x="478" y="83" on="1"/>
        <pt x="496" y="83" on="0"/>
        <pt x="520" y="59" on="0"/>
      </contour>
      <contour>
        <pt x="353" y="608" on="1"/>
        <pt x="353" y="632" on="0"/>
        <pt x="319" y="666" on="0"/>
        <pt x="295" y="666" on="1"/>
        <pt x="162" y="666" on="1"/>
        <pt x="137" y="666" on="0"/>
        <pt x="103" y="632" on="0"/>
        <pt x="103" y="608" on="1"/>
        <pt x="103" y="475" on="1"/>
        <pt x="103" y="451" on="0"/>
        <pt x="138" y="416" on="0"/>
        <pt x="162" y="416" on="1"/>
        <pt x="295" y="416" on="1"/>
        <pt x="319" y="416" on="0"/>
        <pt x="353" y="450" on="0"/>
        <pt x="353" y="475" on="1"/>
      </contour>
    </TTGlyph>
    <TTGlyph name="Ugrave" xMin="20" yMin="0" xMax="603" yMax="750">
      <contour>
        <pt x="409" y="413" on="1"/>
        <pt x="457" y="402" on="0"/>
        <pt x="520" y="326" on="0"/>
        <pt x="520" y="275" on="1"/>
        <pt x="520" y="125" on="1"/>
        <pt x="520" y="96" on="0"/>
        <pt x="529" y="83" on="1"/>
        <pt x="562" y="83" on="1"/>
        <pt x="579" y="83" on="0"/>
        <pt x="603" y="59" on="0"/>
        <pt x="603" y="41" on="1"/>
        <pt x="603" y="24" on="0"/>
        <pt x="579" y="0" on="0"/>
        <pt x="562" y="0" on="1"/>
        <pt x="520" y="0" on="1"/>
        <pt x="494" y="0" on="0"/>
        <pt x="478" y="16" on="1"/>
        <pt x="462" y="0" on="0"/>
        <pt x="437" y="0" on="1"/>
        <pt x="395" y="0" on="1"/>
        <pt x="378" y="0" on="0"/>
        <pt x="353" y="23" on="0"/>
        <pt x="353" y="41" on="1"/>
        <pt x="353" y="59" on="0"/>
        <pt x="377" y="83" on="0"/>
        <pt x="395" y="83" on="1"/>
        <pt x="426" y="83" on="1"/>
        <pt x="437" y="103" on="0"/>
        <pt x="437" y="141" on="1"/>
        <pt x="437" y="275" on="1"/>
        <pt x="437" y="299" on="0"/>
        <pt x="403" y="333" on="0"/>
        <pt x="378" y="333" on="1"/>
        <pt x="245" y="333" on="1"/>
        <pt x="221" y="333" on="0"/>
        <pt x="187" y="299" on="0"/>
        <pt x="187" y="275" on="1"/>
        <pt x="187" y="141" on="1"/>
        <pt x="187" y="119" on="0"/>
        <pt x="193" y="92" on="0"/>
        <pt x="198" y="83" on="1"/>
        <pt x="228" y="83" on="1"/>
        <pt x="246" y="83" on="0"/>
        <pt x="270" y="59" on="0"/>
        <pt x="270" y="41" on="1"/>
        <pt x="270" y="24" on="0"/>
        <pt x="246" y="0" on="0"/>
        <pt x="228" y="0" on="1"/>
        <pt x="187" y="0" on="1"/>
        <pt x="164" y="0" on="0"/>
        <pt x="145" y="16" on="1"/>
        <pt x="126" y="0" on="0"/>
        <pt x="103" y="0" on="1"/>
        <pt x="62" y="0" on="1"/>
        <pt x="45" y="0" on="0"/>
        <pt x="20" y="23" on="0"/>
        <pt x="20" y="41" on="1"/>
        <pt x="20" y="59" on="0"/>
        <pt x="44" y="83" on="0"/>
        <pt x="62" y="83" on="1"/>
        <pt x="93" y="83" on="1"/>
        <pt x="96" y="90" on="0"/>
        <pt x="103" y="123" on="0"/>
        <pt x="103" y="141" on="1"/>
        <pt x="103" y="608" on="1"/>
        <pt x="103" y="650" on="0"/>
        <pt x="93" y="666" on="1"/>
        <pt x="62" y="666" on="1"/>
        <pt x="44" y="666" on="0"/>
        <pt x="20" y="690" on="0"/>
        <pt x="20" y="708" on="1"/>
        <pt x="20" y="726" on="0"/>
        <pt x="44" y="750" on="0"/>
        <pt x="62" y="750" on="1"/>
        <pt x="103" y="750" on="1"/>
        <pt x="128" y="750" on="0"/>
        <pt x="144" y="734" on="1"/>
        <pt x="163" y="750" on="0"/>
        <pt x="187" y="750" on="1"/>
        <pt x="228" y="750" on="1"/>
        <pt x="246" y="750" on="0"/>
        <pt x="270" y="726" on="0"/>
        <pt x="270" y="708" on="1"/>
        <pt x="270" y="690" on="0"/>
        <pt x="246" y="666" on="0"/>
        <pt x="228" y="666" on="1"/>
        <pt x="195" y="666" on="1"/>
        <pt x="192" y="661" on="0"/>
        <pt x="187" y="639" on="0"/>
        <pt x="187" y="625" on="1"/>
        <pt x="187" y="404" on="1"/>
        <pt x="210" y="412" on="1"/>
        <pt x="217" y="416" on="0"/>
        <pt x="228" y="416" on="1"/>
        <pt x="269" y="416" on="1"/>
        <pt x="280" y="417" on="0"/>
        <pt x="302" y="433" on="1"/>
        <pt x="329" y="451" on="0"/>
        <pt x="353" y="475" on="1"/>
        <pt x="378" y="500" on="1"/>
        <pt x="381" y="502" on="1"/>
        <pt x="353" y="512" on="0"/>
        <pt x="353" y="541" on="1"/>
        <pt x="353" y="559" on="0"/>
        <pt x="377" y="583" on="0"/>
        <pt x="395" y="583" on="1"/>
        <pt x="437" y="583" on="1"/>
        <pt x="457" y="583" on="0"/>
        <pt x="473" y="570" on="1"/>
        <pt x="498" y="583" on="0"/>
        <pt x="520" y="583" on="1"/>
        <pt x="562" y="583" on="1"/>
        <pt x="579" y="583" on="0"/>
        <pt x="603" y="559" on="0"/>
        <pt x="603" y="541" on="1"/>
        <pt x="603" y="524" on="0"/>
        <pt x="579" y="500" on="0"/>
        <pt x="562" y="500" on="1"/>
        <pt x="521" y="500" on="1"/>
        <pt x="511" y="498" on="0"/>
        <pt x="461" y="465" on="0"/>
        <pt x="437" y="441" on="1"/>
        <pt x="412" y="416" on="1"/>
      </contour>
    </TTGlyph>
    <TTGlyph name="V" xMin="20" yMin="0" xMax="603" yMax="750">
      <contour>
        <pt x="603" y="708" on="1"/>
        <pt x="603" y="691" on="0"/>
        <pt x="580" y="666" on="0"/>
        <pt x="562" y="666" on="1"/>
        <pt x="526" y="666" on="1"/>
        <pt x="516" y="656" on="0"/>
        <pt x="499" y="619" on="0"/>
        <pt x="495" y="601" on="1"/>
        <pt x="352" y="31" on="1"/>
        <pt x="350" y="25" on="1"/>
        <pt x="348" y="22" on="1"/>
        <pt x="346" y="18" on="1"/>
        <pt x="344" y="15" on="1"/>
        <pt x="341" y="12" on="1"/>
        <pt x="338" y="9" on="1"/>
        <pt x="335" y="7" on="1"/>
        <pt x="332" y="5" on="1"/>
        <pt x="328" y="3" on="1"/>
        <pt x="324" y="2" on="1"/>
        <pt x="320" y="1" on="1"/>
        <pt x="316" y="0" on="1"/>
        <pt x="312" y="0" on="1"/>
        <pt x="308" y="0" on="1"/>
        <pt x="303" y="1" on="1"/>
        <pt x="300" y="2" on="1"/>
        <pt x="296" y="3" on="1"/>
        <pt x="292" y="5" on="1"/>
        <pt x="289" y="7" on="1"/>
        <pt x="285" y="9" on="1"/>
        <pt x="282" y="12" on="1"/>
        <pt x="280" y="15" on="1"/>
        <pt x="277" y="18" on="1"/>
        <pt x="275" y="22" on="1"/>
        <pt x="274" y="25" on="1"/>
        <pt x="272" y="29" on="1"/>
        <pt x="129" y="600" on="1"/>
        <pt x="123" y="626" on="0"/>
        <pt x="105" y="659" on="0"/>
        <pt x="97" y="666" on="1"/>
        <pt x="62" y="666" on="1"/>
        <pt x="44" y="666" on="0"/>
        <pt x="20" y="690" on="0"/>
        <pt x="20" y="708" on="1"/>
        <pt x="20" y="726" on="0"/>
        <pt x="44" y="750" on="0"/>
        <pt x="62" y="750" on="1"/>
        <pt x="103" y="750" on="1"/>
        <pt x="127" y="750" on="0"/>
        <pt x="147" y="733" on="1"/>
        <pt x="164" y="750" on="0"/>
        <pt x="187" y="750" on="1"/>
        <pt x="228" y="750" on="1"/>
        <pt x="246" y="750" on="0"/>
        <pt x="270" y="726" on="0"/>
        <pt x="270" y="708" on="1"/>
        <pt x="270" y="690" on="0"/>
        <pt x="246" y="666" on="0"/>
        <pt x="228" y="666" on="1"/>
        <pt x="205" y="666" on="1"/>
        <pt x="203" y="636" on="0"/>
        <pt x="210" y="621" on="1"/>
        <pt x="312" y="213" on="1"/>
        <pt x="414" y="621" on="1"/>
        <pt x="421" y="636" on="0"/>
        <pt x="419" y="666" on="1"/>
        <pt x="395" y="666" on="1"/>
        <pt x="377" y="666" on="0"/>
        <pt x="353" y="690" on="0"/>
        <pt x="353" y="708" on="1"/>
        <pt x="353" y="726" on="0"/>
        <pt x="377" y="750" on="0"/>
        <pt x="395" y="750" on="1"/>
        <pt x="437" y="750" on="1"/>
        <pt x="460" y="750" on="0"/>
        <pt x="477" y="733" on="1"/>
        <pt x="497" y="750" on="0"/>
        <pt x="520" y="750" on="1"/>
        <pt x="562" y="750" on="1"/>
        <pt x="579" y="750" on="0"/>
        <pt x="603" y="726" on="0"/>
      </contour>
    </TTGlyph>
    <TTGlyph name="W" xMin="20" yMin="0" xMax="770" yMax="750">
      <contour>
        <pt x="770" y="708" on="1"/>
        <pt x="770" y="691" on="0"/>
        <pt x="747" y="666" on="0"/>
        <pt x="729" y="666" on="1"/>
        <pt x="698" y="666" on="1"/>
        <pt x="687" y="646" on="0"/>
        <pt x="687" y="608" on="1"/>
        <pt x="687" y="141" on="1"/>
        <pt x="687" y="82" on="0"/>
        <pt x="605" y="0" on="0"/>
        <pt x="545" y="0" on="1"/>
        <pt x="495" y="0" on="1"/>
        <pt x="436" y="0" on="0"/>
        <pt x="395" y="41" on="1"/>
        <pt x="354" y="0" on="0"/>
        <pt x="295" y="0" on="1"/>
        <pt x="245" y="0" on="1"/>
        <pt x="186" y="0" on="0"/>
        <pt x="104" y="82" on="0"/>
        <pt x="104" y="141" on="1"/>
        <pt x="104" y="608" on="1"/>
        <pt x="104" y="627" on="0"/>
        <pt x="97" y="658" on="0"/>
        <pt x="93" y="666" on="1"/>
        <pt x="62" y="666" on="1"/>
        <pt x="44" y="666" on="0"/>
        <pt x="20" y="690" on="0"/>
        <pt x="20" y="708" on="1"/>
        <pt x="20" y="726" on="0"/>
        <pt x="44" y="750" on="0"/>
        <pt x="62" y="750" on="1"/>
        <pt x="104" y="750" on="1"/>
        <pt x="126" y="750" on="0"/>
        <pt x="145" y="734" on="1"/>
        <pt x="164" y="750" on="0"/>
        <pt x="187" y="750" on="1"/>
        <pt x="229" y="750" on="1"/>
        <pt x="246" y="750" on="0"/>
        <pt x="270" y="726" on="0"/>
        <pt x="270" y="708" on="1"/>
        <pt x="270" y="691" on="0"/>
        <pt x="247" y="666" on="0"/>
        <pt x="229" y="666" on="1"/>
        <pt x="196" y="666" on="1"/>
        <pt x="193" y="661" on="0"/>
        <pt x="187" y="640" on="0"/>
        <pt x="187" y="625" on="1"/>
        <pt x="187" y="141" on="1"/>
        <pt x="187" y="117" on="0"/>
        <pt x="221" y="83" on="0"/>
        <pt x="245" y="83" on="1"/>
        <pt x="295" y="83" on="1"/>
        <pt x="320" y="83" on="0"/>
        <pt x="354" y="117" on="0"/>
        <pt x="354" y="141" on="1"/>
        <pt x="354" y="708" on="1"/>
        <pt x="354" y="725" on="0"/>
        <pt x="377" y="750" on="0"/>
        <pt x="395" y="750" on="1"/>
        <pt x="413" y="750" on="0"/>
        <pt x="437" y="726" on="0"/>
        <pt x="437" y="708" on="1"/>
        <pt x="437" y="141" on="1"/>
        <pt x="437" y="117" on="0"/>
        <pt x="471" y="83" on="0"/>
        <pt x="495" y="83" on="1"/>
        <pt x="545" y="83" on="1"/>
        <pt x="570" y="83" on="0"/>
        <pt x="604" y="117" on="0"/>
        <pt x="604" y="141" on="1"/>
        <pt x="604" y="625" on="1"/>
        <pt x="604" y="652" on="0"/>
        <pt x="595" y="666" on="1"/>
        <pt x="562" y="666" on="1"/>
        <pt x="544" y="666" on="0"/>
        <pt x="520" y="690" on="0"/>
        <pt x="520" y="708" on="1"/>
        <pt x="520" y="726" on="0"/>
        <pt x="544" y="750" on="0"/>
        <pt x="562" y="750" on="1"/>
        <pt x="604" y="750" on="1"/>
        <pt x="627" y="750" on="0"/>
        <pt x="646" y="734" on="1"/>
        <pt x="665" y="750" on="0"/>
        <pt x="687" y="750" on="1"/>
        <pt x="729" y="750" on="1"/>
        <pt x="746" y="750" on="0"/>
        <pt x="770" y="726" on="0"/>
      </contour>
    </TTGlyph>
    <TTGlyph name="X" xMin="20" yMin="0" xMax="603" yMax="750">
      <contour>
        <pt x="358" y="375" on="1"/>
        <pt x="471" y="149" on="1"/>
        <pt x="485" y="121" on="0"/>
        <pt x="515" y="87" on="0"/>
        <pt x="524" y="83" on="1"/>
        <pt x="562" y="83" on="1"/>
        <pt x="579" y="83" on="0"/>
        <pt x="603" y="59" on="0"/>
        <pt x="603" y="41" on="1"/>
        <pt x="603" y="24" on="0"/>
        <pt x="579" y="0" on="0"/>
        <pt x="562" y="0" on="1"/>
        <pt x="520" y="0" on="1"/>
        <pt x="509" y="0" on="0"/>
        <pt x="487" y="8" on="0"/>
        <pt x="476" y="15" on="1"/>
        <pt x="459" y="0" on="0"/>
        <pt x="437" y="0" on="1"/>
        <pt x="395" y="0" on="1"/>
        <pt x="378" y="0" on="0"/>
        <pt x="353" y="23" on="0"/>
        <pt x="353" y="41" on="1"/>
        <pt x="353" y="59" on="0"/>
        <pt x="377" y="83" on="0"/>
        <pt x="395" y="83" on="1"/>
        <pt x="408" y="83" on="1"/>
        <pt x="397" y="112" on="1"/>
        <pt x="312" y="281" on="1"/>
        <pt x="227" y="112" on="1"/>
        <pt x="215" y="83" on="1"/>
        <pt x="228" y="83" on="1"/>
        <pt x="246" y="83" on="0"/>
        <pt x="270" y="59" on="0"/>
        <pt x="270" y="41" on="1"/>
        <pt x="270" y="24" on="0"/>
        <pt x="246" y="0" on="0"/>
        <pt x="228" y="0" on="1"/>
        <pt x="187" y="0" on="1"/>
        <pt x="163" y="0" on="0"/>
        <pt x="148" y="15" on="1"/>
        <pt x="139" y="9" on="0"/>
        <pt x="119" y="0" on="0"/>
        <pt x="103" y="0" on="1"/>
        <pt x="62" y="0" on="1"/>
        <pt x="45" y="0" on="0"/>
        <pt x="20" y="23" on="0"/>
        <pt x="20" y="41" on="1"/>
        <pt x="20" y="59" on="0"/>
        <pt x="44" y="83" on="0"/>
        <pt x="62" y="83" on="1"/>
        <pt x="100" y="83" on="1"/>
        <pt x="111" y="88" on="0"/>
        <pt x="129" y="112" on="1"/>
        <pt x="146" y="130" on="0"/>
        <pt x="153" y="149" on="1"/>
        <pt x="265" y="375" on="1"/>
        <pt x="153" y="600" on="1"/>
        <pt x="146" y="613" on="0"/>
        <pt x="131" y="636" on="0"/>
        <pt x="122" y="646" on="1"/>
        <pt x="115" y="654" on="0"/>
        <pt x="104" y="664" on="0"/>
        <pt x="100" y="666" on="1"/>
        <pt x="62" y="666" on="1"/>
        <pt x="44" y="666" on="0"/>
        <pt x="20" y="690" on="0"/>
        <pt x="20" y="708" on="1"/>
        <pt x="20" y="726" on="0"/>
        <pt x="44" y="750" on="0"/>
        <pt x="62" y="750" on="1"/>
        <pt x="103" y="750" on="1"/>
        <pt x="126" y="750" on="0"/>
        <pt x="148" y="734" on="1"/>
        <pt x="164" y="750" on="0"/>
        <pt x="187" y="750" on="1"/>
        <pt x="228" y="750" on="1"/>
        <pt x="246" y="750" on="0"/>
        <pt x="270" y="726" on="0"/>
        <pt x="270" y="708" on="1"/>
        <pt x="270" y="690" on="0"/>
        <pt x="246" y="666" on="0"/>
        <pt x="228" y="666" on="1"/>
        <pt x="215" y="666" on="1"/>
        <pt x="227" y="637" on="1"/>
        <pt x="312" y="468" on="1"/>
        <pt x="397" y="637" on="1"/>
        <pt x="408" y="666" on="1"/>
        <pt x="395" y="666" on="1"/>
        <pt x="377" y="666" on="0"/>
        <pt x="353" y="690" on="0"/>
        <pt x="353" y="708" on="1"/>
        <pt x="353" y="726" on="0"/>
        <pt x="377" y="750" on="0"/>
        <pt x="395" y="750" on="1"/>
        <pt x="437" y="750" on="1"/>
        <pt x="460" y="750" on="0"/>
        <pt x="476" y="734" on="1"/>
        <pt x="498" y="750" on="0"/>
        <pt x="520" y="750" on="1"/>
        <pt x="562" y="750" on="1"/>
        <pt x="579" y="750" on="0"/>
        <pt x="603" y="726" on="0"/>
        <pt x="603" y="708" on="1"/>
        <pt x="603" y="691" on="0"/>
        <pt x="580" y="666" on="0"/>
        <pt x="562" y="666" on="1"/>
        <pt x="524" y="666" on="1"/>
        <pt x="513" y="662" on="0"/>
        <pt x="494" y="637" on="1"/>
        <pt x="488" y="629" on="0"/>
        <pt x="476" y="611" on="0"/>
        <pt x="471" y="600" on="1"/>
      </contour>
    </TTGlyph>
    <TTGlyph name="Y" xMin="20" yMin="0" xMax="603" yMax="750">
      <contour>
        <pt x="603" y="708" on="1"/>
        <pt x="603" y="691" on="0"/>
        <pt x="580" y="666" on="0"/>
        <pt x="562" y="666" on="1"/>
        <pt x="531" y="666" on="1"/>
        <pt x="520" y="646" on="0"/>
        <pt x="520" y="608" on="1"/>
        <pt x="520" y="475" on="1"/>
        <pt x="520" y="416" on="0"/>
        <pt x="478" y="374" on="1"/>
        <pt x="437" y="333" on="0"/>
        <pt x="378" y="333" on="1"/>
        <pt x="353" y="333" on="1"/>
        <pt x="353" y="125" on="1"/>
        <pt x="353" y="110" on="0"/>
        <pt x="358" y="92" on="0"/>
        <pt x="362" y="83" on="1"/>
        <pt x="395" y="83" on="1"/>
        <pt x="413" y="83" on="0"/>
        <pt x="437" y="59" on="0"/>
        <pt x="437" y="41" on="1"/>
        <pt x="437" y="24" on="0"/>
        <pt x="413" y="0" on="0"/>
        <pt x="395" y="0" on="1"/>
        <pt x="353" y="0" on="1"/>
        <pt x="327" y="0" on="0"/>
        <pt x="311" y="16" on="1"/>
        <pt x="295" y="0" on="0"/>
        <pt x="270" y="0" on="1"/>
        <pt x="228" y="0" on="1"/>
        <pt x="211" y="0" on="0"/>
        <pt x="187" y="24" on="0"/>
        <pt x="187" y="41" on="1"/>
        <pt x="187" y="58" on="0"/>
        <pt x="210" y="83" on="0"/>
        <pt x="228" y="83" on="1"/>
        <pt x="259" y="83" on="1"/>
        <pt x="263" y="90" on="0"/>
        <pt x="270" y="122" on="0"/>
        <pt x="270" y="141" on="1"/>
        <pt x="270" y="333" on="1"/>
        <pt x="245" y="333" on="1"/>
        <pt x="188" y="333" on="0"/>
        <pt x="144" y="374" on="1"/>
        <pt x="103" y="418" on="0"/>
        <pt x="103" y="475" on="1"/>
        <pt x="103" y="608" on="1"/>
        <pt x="103" y="650" on="0"/>
        <pt x="93" y="666" on="1"/>
        <pt x="62" y="666" on="1"/>
        <pt x="44" y="666" on="0"/>
        <pt x="20" y="690" on="0"/>
        <pt x="20" y="708" on="1"/>
        <pt x="20" y="726" on="0"/>
        <pt x="44" y="750" on="0"/>
        <pt x="62" y="750" on="1"/>
        <pt x="103" y="750" on="1"/>
        <pt x="128" y="750" on="0"/>
        <pt x="144" y="734" on="1"/>
        <pt x="163" y="750" on="0"/>
        <pt x="187" y="750" on="1"/>
        <pt x="228" y="750" on="1"/>
        <pt x="246" y="750" on="0"/>
        <pt x="270" y="726" on="0"/>
        <pt x="270" y="708" on="1"/>
        <pt x="270" y="690" on="0"/>
        <pt x="246" y="666" on="0"/>
        <pt x="228" y="666" on="1"/>
        <pt x="195" y="666" on="1"/>
        <pt x="192" y="661" on="0"/>
        <pt x="187" y="639" on="0"/>
        <pt x="187" y="625" on="1"/>
        <pt x="187" y="475" on="1"/>
        <pt x="187" y="452" on="0"/>
        <pt x="221" y="416" on="0"/>
        <pt x="245" y="416" on="1"/>
        <pt x="378" y="416" on="1"/>
        <pt x="403" y="416" on="0"/>
        <pt x="437" y="450" on="0"/>
        <pt x="437" y="475" on="1"/>
        <pt x="437" y="625" on="1"/>
        <pt x="437" y="652" on="0"/>
        <pt x="428" y="666" on="1"/>
        <pt x="395" y="666" on="1"/>
        <pt x="377" y="666" on="0"/>
        <pt x="353" y="690" on="0"/>
        <pt x="353" y="708" on="1"/>
        <pt x="353" y="726" on="0"/>
        <pt x="377" y="750" on="0"/>
        <pt x="395" y="750" on="1"/>
        <pt x="437" y="750" on="1"/>
        <pt x="460" y="750" on="0"/>
        <pt x="479" y="734" on="1"/>
        <pt x="498" y="750" on="0"/>
        <pt x="520" y="750" on="1"/>
        <pt x="562" y="750" on="1"/>
        <pt x="579" y="750" on="0"/>
        <pt x="603" y="726" on="0"/>
      </contour>
    </TTGlyph>
    <TTGlyph name="Yacute" xMin="20" yMin="0" xMax="436" yMax="750">
      <contour>
        <pt x="436" y="475" on="1"/>
        <pt x="436" y="41" on="1"/>
        <pt x="436" y="24" on="0"/>
        <pt x="412" y="0" on="0"/>
        <pt x="395" y="0" on="1"/>
        <pt x="378" y="0" on="0"/>
        <pt x="353" y="23" on="0"/>
        <pt x="353" y="41" on="1"/>
        <pt x="353" y="346" on="1"/>
        <pt x="328" y="333" on="0"/>
        <pt x="295" y="333" on="1"/>
        <pt x="161" y="333" on="1"/>
        <pt x="102" y="333" on="0"/>
        <pt x="20" y="415" on="0"/>
        <pt x="20" y="475" on="1"/>
        <pt x="20" y="608" on="1"/>
        <pt x="20" y="664" on="0"/>
        <pt x="61" y="708" on="1"/>
        <pt x="101" y="750" on="0"/>
        <pt x="161" y="750" on="1"/>
        <pt x="295" y="750" on="1"/>
        <pt x="354" y="750" on="0"/>
        <pt x="436" y="668" on="0"/>
        <pt x="436" y="608" on="1"/>
      </contour>
      <contour>
        <pt x="353" y="608" on="1"/>
        <pt x="353" y="632" on="0"/>
        <pt x="319" y="666" on="0"/>
        <pt x="295" y="666" on="1"/>
        <pt x="161" y="666" on="1"/>
        <pt x="137" y="666" on="0"/>
        <pt x="103" y="632" on="0"/>
        <pt x="103" y="608" on="1"/>
        <pt x="103" y="475" on="1"/>
        <pt x="103" y="452" on="0"/>
        <pt x="137" y="416" on="0"/>
        <pt x="161" y="416" on="1"/>
        <pt x="295" y="416" on="1"/>
        <pt x="319" y="416" on="0"/>
        <pt x="353" y="450" on="0"/>
        <pt x="353" y="475" on="1"/>
      </contour>
    </TTGlyph>
    <TTGlyph name="Z" xMin="20" yMin="0" xMax="436" yMax="750">
      <contour>
        <pt x="436" y="83" on="1"/>
        <pt x="436" y="46" on="0"/>
        <pt x="358" y="0" on="0"/>
        <pt x="295" y="0" on="1"/>
        <pt x="61" y="0" on="1"/>
        <pt x="56" y="0" on="1"/>
        <pt x="52" y="1" on="1"/>
        <pt x="48" y="2" on="1"/>
        <pt x="44" y="4" on="1"/>
        <pt x="41" y="5" on="1"/>
        <pt x="37" y="8" on="1"/>
        <pt x="34" y="10" on="1"/>
        <pt x="31" y="13" on="1"/>
        <pt x="28" y="16" on="1"/>
        <pt x="26" y="19" on="1"/>
        <pt x="24" y="23" on="1"/>
        <pt x="23" y="27" on="1"/>
        <pt x="21" y="31" on="1"/>
        <pt x="20" y="39" on="1"/>
        <pt x="20" y="43" on="1"/>
        <pt x="20" y="47" on="1"/>
        <pt x="21" y="51" on="1"/>
        <pt x="22" y="55" on="1"/>
        <pt x="24" y="59" on="1"/>
        <pt x="24" y="60" on="1"/>
        <pt x="327" y="666" on="1"/>
        <pt x="161" y="666" on="1"/>
        <pt x="140" y="666" on="0"/>
        <pt x="113" y="661" on="0"/>
        <pt x="103" y="656" on="1"/>
        <pt x="103" y="625" on="1"/>
        <pt x="103" y="607" on="0"/>
        <pt x="79" y="583" on="0"/>
        <pt x="61" y="583" on="1"/>
        <pt x="44" y="583" on="0"/>
        <pt x="20" y="607" on="0"/>
        <pt x="20" y="625" on="1"/>
        <pt x="20" y="666" on="1"/>
        <pt x="20" y="684" on="0"/>
        <pt x="41" y="715" on="0"/>
        <pt x="78" y="737" on="0"/>
        <pt x="130" y="750" on="0"/>
        <pt x="161" y="750" on="1"/>
        <pt x="395" y="750" on="1"/>
        <pt x="401" y="749" on="1"/>
        <pt x="404" y="748" on="1"/>
        <pt x="408" y="747" on="1"/>
        <pt x="412" y="746" on="1"/>
        <pt x="416" y="744" on="1"/>
        <pt x="419" y="742" on="1"/>
        <pt x="422" y="739" on="1"/>
        <pt x="425" y="736" on="1"/>
        <pt x="428" y="733" on="1"/>
        <pt x="430" y="730" on="1"/>
        <pt x="432" y="726" on="1"/>
        <pt x="434" y="723" on="1"/>
        <pt x="435" y="719" on="1"/>
        <pt x="436" y="715" on="1"/>
        <pt x="436" y="710" on="1"/>
        <pt x="436" y="707" on="1"/>
        <pt x="436" y="702" on="1"/>
        <pt x="435" y="698" on="1"/>
        <pt x="434" y="695" on="1"/>
        <pt x="433" y="691" on="1"/>
        <pt x="129" y="83" on="1"/>
        <pt x="295" y="83" on="1"/>
        <pt x="317" y="83" on="0"/>
        <pt x="344" y="89" on="0"/>
        <pt x="353" y="94" on="1"/>
        <pt x="353" y="125" on="1"/>
        <pt x="353" y="142" on="0"/>
        <pt x="377" y="166" on="0"/>
        <pt x="395" y="166" on="1"/>
        <pt x="412" y="166" on="0"/>
        <pt x="436" y="142" on="0"/>
        <pt x="436" y="125" on="1"/>
      </contour>
    </TTGlyph>
    <TTGlyph name="a" xMin="20" yMin="0" xMax="520" yMax="416">
      <contour>
        <pt x="520" y="41" on="1"/>
        <pt x="520" y="24" on="0"/>
        <pt x="496" y="0" on="0"/>
        <pt x="478" y="0" on="1"/>
        <pt x="437" y="0" on="1"/>
        <pt x="405" y="0" on="0"/>
        <pt x="383" y="30" on="1"/>
        <pt x="344" y="0" on="0"/>
        <pt x="295" y="0" on="1"/>
        <pt x="162" y="0" on="1"/>
        <pt x="106" y="0" on="0"/>
        <pt x="62" y="41" on="1"/>
        <pt x="20" y="81" on="0"/>
        <pt x="20" y="141" on="1"/>
        <pt x="20" y="150" on="1"/>
        <pt x="20" y="209" on="0"/>
        <pt x="102" y="291" on="0"/>
        <pt x="162" y="291" on="1"/>
        <pt x="295" y="291" on="1"/>
        <pt x="326" y="291" on="0"/>
        <pt x="353" y="279" on="1"/>
        <pt x="353" y="301" on="0"/>
        <pt x="329" y="333" on="0"/>
        <pt x="312" y="333" on="1"/>
        <pt x="228" y="333" on="1"/>
        <pt x="211" y="333" on="0"/>
        <pt x="187" y="357" on="0"/>
        <pt x="187" y="375" on="1"/>
        <pt x="187" y="392" on="0"/>
        <pt x="211" y="416" on="0"/>
        <pt x="228" y="416" on="1"/>
        <pt x="312" y="416" on="1"/>
        <pt x="364" y="416" on="0"/>
        <pt x="400" y="374" on="1"/>
        <pt x="437" y="334" on="0"/>
        <pt x="437" y="275" on="1"/>
        <pt x="437" y="141" on="1"/>
        <pt x="437" y="120" on="0"/>
        <pt x="442" y="93" on="0"/>
        <pt x="447" y="83" on="1"/>
        <pt x="478" y="83" on="1"/>
        <pt x="496" y="83" on="0"/>
        <pt x="520" y="59" on="0"/>
      </contour>
      <contour>
        <pt x="353" y="150" on="1"/>
        <pt x="353" y="174" on="0"/>
        <pt x="319" y="208" on="0"/>
        <pt x="295" y="208" on="1"/>
        <pt x="162" y="208" on="1"/>
        <pt x="137" y="208" on="0"/>
        <pt x="103" y="174" on="0"/>
        <pt x="103" y="150" on="1"/>
        <pt x="103" y="141" on="1"/>
        <pt x="103" y="117" on="0"/>
        <pt x="137" y="83" on="0"/>
        <pt x="162" y="83" on="1"/>
        <pt x="295" y="83" on="1"/>
        <pt x="319" y="83" on="0"/>
        <pt x="353" y="117" on="0"/>
        <pt x="353" y="141" on="1"/>
      </contour>
    </TTGlyph>
    <TTGlyph name="ae" xMin="20" yMin="0" xMax="770" yMax="416">
      <contour>
        <pt x="770" y="266" on="1"/>
        <pt x="770" y="207" on="0"/>
        <pt x="688" y="125" on="0"/>
        <pt x="629" y="125" on="1"/>
        <pt x="495" y="125" on="1"/>
        <pt x="464" y="125" on="0"/>
        <pt x="437" y="137" on="1"/>
        <pt x="437" y="116" on="0"/>
        <pt x="463" y="83" on="0"/>
        <pt x="479" y="83" on="1"/>
        <pt x="562" y="83" on="1"/>
        <pt x="580" y="83" on="0"/>
        <pt x="604" y="59" on="0"/>
        <pt x="604" y="41" on="1"/>
        <pt x="604" y="24" on="0"/>
        <pt x="580" y="0" on="0"/>
        <pt x="562" y="0" on="1"/>
        <pt x="479" y="0" on="1"/>
        <pt x="429" y="0" on="0"/>
        <pt x="393" y="39" on="1"/>
        <pt x="351" y="0" on="0"/>
        <pt x="295" y="0" on="1"/>
        <pt x="162" y="0" on="1"/>
        <pt x="106" y="0" on="0"/>
        <pt x="62" y="41" on="1"/>
        <pt x="20" y="81" on="0"/>
        <pt x="20" y="141" on="1"/>
        <pt x="20" y="150" on="1"/>
        <pt x="20" y="209" on="0"/>
        <pt x="102" y="291" on="0"/>
        <pt x="162" y="291" on="1"/>
        <pt x="295" y="291" on="1"/>
        <pt x="327" y="291" on="0"/>
        <pt x="354" y="279" on="1"/>
        <pt x="354" y="300" on="0"/>
        <pt x="328" y="333" on="0"/>
        <pt x="312" y="333" on="1"/>
        <pt x="229" y="333" on="1"/>
        <pt x="211" y="333" on="0"/>
        <pt x="187" y="357" on="0"/>
        <pt x="187" y="375" on="1"/>
        <pt x="187" y="392" on="0"/>
        <pt x="211" y="416" on="0"/>
        <pt x="229" y="416" on="1"/>
        <pt x="312" y="416" on="1"/>
        <pt x="362" y="416" on="0"/>
        <pt x="398" y="377" on="1"/>
        <pt x="440" y="416" on="0"/>
        <pt x="495" y="416" on="1"/>
        <pt x="629" y="416" on="1"/>
        <pt x="688" y="416" on="0"/>
        <pt x="770" y="334" on="0"/>
        <pt x="770" y="275" on="1"/>
      </contour>
      <contour>
        <pt x="354" y="150" on="1"/>
        <pt x="354" y="174" on="0"/>
        <pt x="320" y="208" on="0"/>
        <pt x="295" y="208" on="1"/>
        <pt x="162" y="208" on="1"/>
        <pt x="138" y="208" on="0"/>
        <pt x="104" y="174" on="0"/>
        <pt x="104" y="150" on="1"/>
        <pt x="104" y="141" on="1"/>
        <pt x="104" y="117" on="0"/>
        <pt x="138" y="83" on="0"/>
        <pt x="162" y="83" on="1"/>
        <pt x="295" y="83" on="1"/>
        <pt x="320" y="83" on="0"/>
        <pt x="354" y="117" on="0"/>
        <pt x="354" y="141" on="1"/>
      </contour>
      <contour>
        <pt x="687" y="275" on="1"/>
        <pt x="687" y="299" on="0"/>
        <pt x="653" y="333" on="0"/>
        <pt x="629" y="333" on="1"/>
        <pt x="495" y="333" on="1"/>
        <pt x="471" y="333" on="0"/>
        <pt x="437" y="299" on="0"/>
        <pt x="437" y="275" on="1"/>
        <pt x="437" y="266" on="1"/>
        <pt x="437" y="242" on="0"/>
        <pt x="471" y="208" on="0"/>
        <pt x="495" y="208" on="1"/>
        <pt x="629" y="208" on="1"/>
        <pt x="653" y="208" on="0"/>
        <pt x="687" y="242" on="0"/>
        <pt x="687" y="266" on="1"/>
        <pt x="687" y="275" on="1"/>
      </contour>
    </TTGlyph>
    <TTGlyph name="ampersand" xMin="20" yMin="0" xMax="520" yMax="750">
      <contour>
        <pt x="437" y="141" on="1"/>
        <pt x="437" y="120" on="0"/>
        <pt x="442" y="93" on="0"/>
        <pt x="447" y="83" on="1"/>
        <pt x="478" y="83" on="1"/>
        <pt x="496" y="83" on="0"/>
        <pt x="520" y="59" on="0"/>
        <pt x="520" y="41" on="1"/>
        <pt x="520" y="24" on="0"/>
        <pt x="496" y="0" on="0"/>
        <pt x="478" y="0" on="1"/>
        <pt x="437" y="0" on="1"/>
        <pt x="405" y="0" on="0"/>
        <pt x="383" y="30" on="1"/>
        <pt x="344" y="0" on="0"/>
        <pt x="295" y="0" on="1"/>
        <pt x="162" y="0" on="1"/>
        <pt x="106" y="0" on="0"/>
        <pt x="62" y="41" on="1"/>
        <pt x="20" y="81" on="0"/>
        <pt x="20" y="141" on="1"/>
        <pt x="20" y="275" on="1"/>
        <pt x="20" y="331" on="0"/>
        <pt x="59" y="372" on="1"/>
        <pt x="20" y="414" on="0"/>
        <pt x="20" y="475" on="1"/>
        <pt x="20" y="608" on="1"/>
        <pt x="20" y="667" on="0"/>
        <pt x="61" y="708" on="1"/>
        <pt x="103" y="750" on="0"/>
        <pt x="162" y="750" on="1"/>
        <pt x="295" y="750" on="1"/>
        <pt x="358" y="750" on="0"/>
        <pt x="437" y="703" on="0"/>
        <pt x="437" y="666" on="1"/>
        <pt x="437" y="625" on="1"/>
        <pt x="437" y="607" on="0"/>
        <pt x="413" y="583" on="0"/>
        <pt x="395" y="583" on="1"/>
        <pt x="377" y="583" on="0"/>
        <pt x="353" y="607" on="0"/>
        <pt x="353" y="625" on="1"/>
        <pt x="353" y="656" on="1"/>
        <pt x="347" y="659" on="0"/>
        <pt x="314" y="666" on="0"/>
        <pt x="295" y="666" on="1"/>
        <pt x="162" y="666" on="1"/>
        <pt x="137" y="666" on="0"/>
        <pt x="103" y="632" on="0"/>
        <pt x="103" y="608" on="1"/>
        <pt x="103" y="475" on="1"/>
        <pt x="103" y="451" on="0"/>
        <pt x="128" y="416" on="0"/>
        <pt x="145" y="416" on="1"/>
        <pt x="162" y="416" on="1"/>
        <pt x="295" y="416" on="1"/>
        <pt x="344" y="416" on="0"/>
        <pt x="383" y="386" on="1"/>
        <pt x="405" y="416" on="0"/>
        <pt x="437" y="416" on="1"/>
        <pt x="478" y="416" on="1"/>
        <pt x="495" y="416" on="0"/>
        <pt x="520" y="393" on="0"/>
        <pt x="520" y="375" on="1"/>
        <pt x="520" y="357" on="0"/>
        <pt x="496" y="333" on="0"/>
        <pt x="478" y="333" on="1"/>
        <pt x="447" y="333" on="1"/>
        <pt x="444" y="326" on="0"/>
        <pt x="437" y="293" on="0"/>
        <pt x="437" y="275" on="1"/>
      </contour>
      <contour>
        <pt x="353" y="275" on="1"/>
        <pt x="353" y="299" on="0"/>
        <pt x="319" y="333" on="0"/>
        <pt x="295" y="333" on="1"/>
        <pt x="162" y="333" on="1"/>
        <pt x="137" y="333" on="0"/>
        <pt x="103" y="299" on="0"/>
        <pt x="103" y="275" on="1"/>
        <pt x="103" y="141" on="1"/>
        <pt x="103" y="117" on="0"/>
        <pt x="137" y="83" on="0"/>
        <pt x="162" y="83" on="1"/>
        <pt x="295" y="83" on="1"/>
        <pt x="319" y="83" on="0"/>
        <pt x="353" y="117" on="0"/>
        <pt x="353" y="141" on="1"/>
      </contour>
    </TTGlyph>
    <TTGlyph name="asciicircum" xMin="20" yMin="500" xMax="437" yMax="750">
      <contour>
        <pt x="424" y="571" on="1"/>
        <pt x="437" y="559" on="0"/>
        <pt x="437" y="541" on="1"/>
        <pt x="437" y="524" on="0"/>
        <pt x="412" y="500" on="0"/>
        <pt x="395" y="500" on="1"/>
        <pt x="378" y="500" on="0"/>
        <pt x="365" y="512" on="1"/>
        <pt x="228" y="649" on="1"/>
        <pt x="91" y="512" on="1"/>
        <pt x="79" y="500" on="0"/>
        <pt x="62" y="500" on="1"/>
        <pt x="44" y="500" on="0"/>
        <pt x="20" y="524" on="0"/>
        <pt x="20" y="541" on="1"/>
        <pt x="20" y="559" on="0"/>
        <pt x="32" y="571" on="1"/>
        <pt x="199" y="737" on="1"/>
        <pt x="212" y="750" on="0"/>
        <pt x="228" y="750" on="1"/>
        <pt x="245" y="750" on="0"/>
        <pt x="258" y="737" on="1"/>
        <pt x="424" y="571" on="1"/>
      </contour>
    </TTGlyph>
    <TTGlyph name="asciitilde" xMin="20" yMin="250" xMax="436" yMax="500">
      <contour>
        <pt x="436" y="375" on="1"/>
        <pt x="436" y="323" on="0"/>
        <pt x="399" y="286" on="1"/>
        <pt x="363" y="250" on="0"/>
        <pt x="311" y="250" on="1"/>
        <pt x="259" y="250" on="0"/>
        <pt x="222" y="286" on="1"/>
        <pt x="186" y="323" on="0"/>
        <pt x="186" y="375" on="1"/>
        <pt x="186" y="392" on="0"/>
        <pt x="162" y="416" on="0"/>
        <pt x="145" y="416" on="1"/>
        <pt x="128" y="416" on="0"/>
        <pt x="103" y="393" on="0"/>
        <pt x="103" y="375" on="1"/>
        <pt x="103" y="291" on="1"/>
        <pt x="103" y="274" on="0"/>
        <pt x="79" y="250" on="0"/>
        <pt x="61" y="250" on="1"/>
        <pt x="44" y="250" on="0"/>
        <pt x="20" y="274" on="0"/>
        <pt x="20" y="291" on="1"/>
        <pt x="20" y="375" on="1"/>
        <pt x="20" y="427" on="0"/>
        <pt x="56" y="463" on="1"/>
        <pt x="93" y="500" on="0"/>
        <pt x="145" y="500" on="1"/>
        <pt x="197" y="500" on="0"/>
        <pt x="233" y="463" on="1"/>
        <pt x="270" y="427" on="0"/>
        <pt x="270" y="375" on="1"/>
        <pt x="270" y="357" on="0"/>
        <pt x="294" y="333" on="0"/>
        <pt x="311" y="333" on="1"/>
        <pt x="329" y="333" on="0"/>
        <pt x="353" y="357" on="0"/>
        <pt x="353" y="375" on="1"/>
        <pt x="353" y="458" on="1"/>
        <pt x="353" y="476" on="0"/>
        <pt x="377" y="500" on="0"/>
        <pt x="395" y="500" on="1"/>
        <pt x="412" y="500" on="0"/>
        <pt x="436" y="476" on="0"/>
        <pt x="436" y="458" on="1"/>
      </contour>
    </TTGlyph>
    <TTGlyph name="asterisk" xMin="20" yMin="365" xMax="421" yMax="750">
      <contour>
        <pt x="419" y="606" on="1"/>
        <pt x="420" y="601" on="0"/>
        <pt x="421" y="595" on="0"/>
        <pt x="421" y="593" on="1"/>
        <pt x="421" y="565" on="0"/>
        <pt x="392" y="554" on="1"/>
        <pt x="288" y="520" on="1"/>
        <pt x="352" y="431" on="1"/>
        <pt x="360" y="420" on="0"/>
        <pt x="360" y="407" on="1"/>
        <pt x="360" y="386" on="0"/>
        <pt x="342" y="373" on="1"/>
        <pt x="331" y="365" on="0"/>
        <pt x="318" y="365" on="1"/>
        <pt x="296" y="365" on="0"/>
        <pt x="284" y="382" on="1"/>
        <pt x="220" y="471" on="1"/>
        <pt x="156" y="382" on="1"/>
        <pt x="144" y="365" on="0"/>
        <pt x="122" y="365" on="1"/>
        <pt x="108" y="365" on="0"/>
        <pt x="97" y="373" on="1"/>
        <pt x="80" y="385" on="0"/>
        <pt x="80" y="407" on="1"/>
        <pt x="80" y="420" on="0"/>
        <pt x="88" y="431" on="1"/>
        <pt x="152" y="519" on="1"/>
        <pt x="49" y="552" on="1"/>
        <pt x="20" y="563" on="0"/>
        <pt x="20" y="593" on="1"/>
        <pt x="20" y="594" on="0"/>
        <pt x="21" y="600" on="0"/>
        <pt x="22" y="605" on="1"/>
        <pt x="33" y="634" on="0"/>
        <pt x="63" y="634" on="1"/>
        <pt x="64" y="634" on="0"/>
        <pt x="70" y="633" on="0"/>
        <pt x="75" y="632" on="1"/>
        <pt x="179" y="598" on="1"/>
        <pt x="179" y="708" on="1"/>
        <pt x="179" y="725" on="0"/>
        <pt x="202" y="750" on="0"/>
        <pt x="220" y="750" on="1"/>
        <pt x="238" y="750" on="0"/>
        <pt x="262" y="726" on="0"/>
        <pt x="262" y="708" on="1"/>
        <pt x="262" y="599" on="1"/>
        <pt x="367" y="633" on="1"/>
        <pt x="372" y="634" on="0"/>
        <pt x="378" y="635" on="0"/>
        <pt x="380" y="635" on="1"/>
        <pt x="408" y="635" on="0"/>
      </contour>
    </TTGlyph>
    <TTGlyph name="at" xMin="20" yMin="0" xMax="520" yMax="750">
      <contour>
        <pt x="520" y="441" on="1"/>
        <pt x="520" y="308" on="1"/>
        <pt x="520" y="249" on="0"/>
        <pt x="478" y="207" on="1"/>
        <pt x="437" y="166" on="0"/>
        <pt x="378" y="166" on="1"/>
        <pt x="328" y="166" on="1"/>
        <pt x="269" y="166" on="0"/>
        <pt x="187" y="248" on="0"/>
        <pt x="187" y="308" on="1"/>
        <pt x="187" y="441" on="1"/>
        <pt x="187" y="497" on="0"/>
        <pt x="228" y="541" on="1"/>
        <pt x="268" y="583" on="0"/>
        <pt x="328" y="583" on="1"/>
        <pt x="378" y="583" on="1"/>
        <pt x="412" y="583" on="0"/>
        <pt x="437" y="570" on="1"/>
        <pt x="437" y="608" on="1"/>
        <pt x="437" y="632" on="0"/>
        <pt x="403" y="666" on="0"/>
        <pt x="378" y="666" on="1"/>
        <pt x="162" y="666" on="1"/>
        <pt x="137" y="666" on="0"/>
        <pt x="103" y="632" on="0"/>
        <pt x="103" y="608" on="1"/>
        <pt x="103" y="141" on="1"/>
        <pt x="103" y="117" on="0"/>
        <pt x="137" y="83" on="0"/>
        <pt x="162" y="83" on="1"/>
        <pt x="478" y="83" on="1"/>
        <pt x="496" y="83" on="0"/>
        <pt x="520" y="59" on="0"/>
        <pt x="520" y="41" on="1"/>
        <pt x="520" y="24" on="0"/>
        <pt x="496" y="0" on="0"/>
        <pt x="478" y="0" on="1"/>
        <pt x="162" y="0" on="1"/>
        <pt x="106" y="0" on="0"/>
        <pt x="62" y="41" on="1"/>
        <pt x="20" y="81" on="0"/>
        <pt x="20" y="141" on="1"/>
        <pt x="20" y="608" on="1"/>
        <pt x="20" y="667" on="0"/>
        <pt x="61" y="708" on="1"/>
        <pt x="103" y="750" on="0"/>
        <pt x="162" y="750" on="1"/>
        <pt x="378" y="750" on="1"/>
        <pt x="437" y="750" on="0"/>
        <pt x="478" y="708" on="1"/>
        <pt x="520" y="667" on="0"/>
        <pt x="520" y="608" on="1"/>
      </contour>
      <contour>
        <pt x="437" y="441" on="1"/>
        <pt x="437" y="465" on="0"/>
        <pt x="402" y="500" on="0"/>
        <pt x="378" y="500" on="1"/>
        <pt x="328" y="500" on="1"/>
        <pt x="304" y="500" on="0"/>
        <pt x="270" y="466" on="0"/>
        <pt x="270" y="441" on="1"/>
        <pt x="270" y="308" on="1"/>
        <pt x="270" y="284" on="0"/>
        <pt x="304" y="250" on="0"/>
        <pt x="328" y="250" on="1"/>
        <pt x="378" y="250" on="1"/>
        <pt x="401" y="250" on="0"/>
        <pt x="437" y="284" on="0"/>
        <pt x="437" y="308" on="1"/>
        <pt x="437" y="441" on="1"/>
      </contour>
    </TTGlyph>
    <TTGlyph name="b" xMin="20" yMin="0" xMax="520" yMax="750">
      <contour>
        <pt x="520" y="141" on="1"/>
        <pt x="520" y="82" on="0"/>
        <pt x="438" y="0" on="0"/>
        <pt x="378" y="0" on="1"/>
        <pt x="245" y="0" on="1"/>
        <pt x="196" y="0" on="0"/>
        <pt x="157" y="30" on="1"/>
        <pt x="134" y="0" on="0"/>
        <pt x="103" y="0" on="1"/>
        <pt x="62" y="0" on="1"/>
        <pt x="45" y="0" on="0"/>
        <pt x="20" y="23" on="0"/>
        <pt x="20" y="41" on="1"/>
        <pt x="20" y="59" on="0"/>
        <pt x="44" y="83" on="0"/>
        <pt x="62" y="83" on="1"/>
        <pt x="93" y="83" on="1"/>
        <pt x="96" y="90" on="0"/>
        <pt x="103" y="123" on="0"/>
        <pt x="103" y="141" on="1"/>
        <pt x="103" y="608" on="1"/>
        <pt x="103" y="650" on="0"/>
        <pt x="93" y="666" on="1"/>
        <pt x="62" y="666" on="1"/>
        <pt x="44" y="666" on="0"/>
        <pt x="20" y="690" on="0"/>
        <pt x="20" y="708" on="1"/>
        <pt x="20" y="726" on="0"/>
        <pt x="44" y="750" on="0"/>
        <pt x="62" y="750" on="1"/>
        <pt x="103" y="750" on="1"/>
        <pt x="121" y="750" on="0"/>
        <pt x="152" y="729" on="0"/>
        <pt x="174" y="691" on="0"/>
        <pt x="187" y="639" on="0"/>
        <pt x="187" y="608" on="1"/>
        <pt x="187" y="404" on="1"/>
        <pt x="212" y="416" on="0"/>
        <pt x="245" y="416" on="1"/>
        <pt x="378" y="416" on="1"/>
        <pt x="434" y="416" on="0"/>
        <pt x="478" y="375" on="1"/>
        <pt x="520" y="334" on="0"/>
        <pt x="520" y="275" on="1"/>
      </contour>
      <contour>
        <pt x="437" y="275" on="1"/>
        <pt x="437" y="299" on="0"/>
        <pt x="403" y="333" on="0"/>
        <pt x="378" y="333" on="1"/>
        <pt x="245" y="333" on="1"/>
        <pt x="221" y="333" on="0"/>
        <pt x="187" y="299" on="0"/>
        <pt x="187" y="275" on="1"/>
        <pt x="187" y="141" on="1"/>
        <pt x="187" y="117" on="0"/>
        <pt x="221" y="83" on="0"/>
        <pt x="245" y="83" on="1"/>
        <pt x="378" y="83" on="1"/>
        <pt x="401" y="83" on="0"/>
        <pt x="437" y="117" on="0"/>
        <pt x="437" y="141" on="1"/>
        <pt x="437" y="275" on="1"/>
      </contour>
    </TTGlyph>
    <TTGlyph name="backslash" xMin="20" yMin="0" xMax="436" yMax="750">
      <contour>
        <pt x="413" y="4" on="1"/>
        <pt x="406" y="0" on="0"/>
        <pt x="395" y="0" on="1"/>
        <pt x="369" y="0" on="0"/>
        <pt x="358" y="23" on="1"/>
        <pt x="24" y="689" on="1"/>
        <pt x="20" y="696" on="0"/>
        <pt x="20" y="708" on="1"/>
        <pt x="20" y="734" on="0"/>
        <pt x="43" y="745" on="1"/>
        <pt x="61" y="750" on="0"/>
        <pt x="62" y="750" on="1"/>
        <pt x="85" y="750" on="0"/>
        <pt x="99" y="727" on="1"/>
        <pt x="432" y="60" on="1"/>
        <pt x="436" y="53" on="0"/>
        <pt x="436" y="41" on="1"/>
        <pt x="436" y="15" on="0"/>
      </contour>
    </TTGlyph>
    <TTGlyph name="bar" xMin="20" yMin="-80" xMax="103" yMax="833">
      <contour>
        <pt x="103" y="-38" on="1"/>
        <pt x="103" y="-56" on="0"/>
        <pt x="79" y="-80" on="0"/>
        <pt x="61" y="-80" on="1"/>
        <pt x="44" y="-80" on="0"/>
        <pt x="20" y="-56" on="0"/>
        <pt x="20" y="-38" on="1"/>
        <pt x="20" y="791" on="1"/>
        <pt x="20" y="808" on="0"/>
        <pt x="43" y="833" on="0"/>
        <pt x="61" y="833" on="1"/>
        <pt x="79" y="833" on="0"/>
        <pt x="103" y="809" on="0"/>
        <pt x="103" y="791" on="1"/>
      </contour>
    </TTGlyph>
    <TTGlyph name="braceleft" xMin="20" yMin="0" xMax="353" yMax="750">
      <contour>
        <pt x="186" y="475" on="1"/>
        <pt x="186" y="412" on="0"/>
        <pt x="164" y="375" on="1"/>
        <pt x="186" y="338" on="0"/>
        <pt x="186" y="275" on="1"/>
        <pt x="186" y="225" on="1"/>
        <pt x="186" y="188" on="0"/>
        <pt x="205" y="123" on="0"/>
        <pt x="216" y="111" on="1"/>
        <pt x="228" y="100" on="0"/>
        <pt x="262" y="83" on="0"/>
        <pt x="270" y="83" on="1"/>
        <pt x="311" y="83" on="1"/>
        <pt x="329" y="83" on="0"/>
        <pt x="353" y="59" on="0"/>
        <pt x="353" y="41" on="1"/>
        <pt x="353" y="24" on="0"/>
        <pt x="329" y="0" on="0"/>
        <pt x="311" y="0" on="1"/>
        <pt x="270" y="0" on="1"/>
        <pt x="242" y="0" on="0"/>
        <pt x="178" y="33" on="0"/>
        <pt x="157" y="54" on="1"/>
        <pt x="132" y="76" on="0"/>
        <pt x="117" y="128" on="1"/>
        <pt x="103" y="186" on="0"/>
        <pt x="103" y="225" on="1"/>
        <pt x="103" y="275" on="1"/>
        <pt x="103" y="297" on="0"/>
        <pt x="97" y="324" on="0"/>
        <pt x="92" y="333" on="1"/>
        <pt x="61" y="333" on="1"/>
        <pt x="44" y="333" on="0"/>
        <pt x="20" y="357" on="0"/>
        <pt x="20" y="375" on="1"/>
        <pt x="20" y="392" on="0"/>
        <pt x="44" y="416" on="0"/>
        <pt x="61" y="416" on="1"/>
        <pt x="92" y="416" on="1"/>
        <pt x="96" y="423" on="0"/>
        <pt x="103" y="455" on="0"/>
        <pt x="103" y="475" on="1"/>
        <pt x="103" y="525" on="1"/>
        <pt x="103" y="549" on="0"/>
        <pt x="110" y="599" on="0"/>
        <pt x="124" y="644" on="0"/>
        <pt x="144" y="683" on="0"/>
        <pt x="157" y="696" on="1"/>
        <pt x="178" y="717" on="0"/>
        <pt x="242" y="750" on="0"/>
        <pt x="270" y="750" on="1"/>
        <pt x="311" y="750" on="1"/>
        <pt x="329" y="750" on="0"/>
        <pt x="353" y="726" on="0"/>
        <pt x="353" y="708" on="1"/>
        <pt x="353" y="690" on="0"/>
        <pt x="329" y="666" on="0"/>
        <pt x="311" y="666" on="1"/>
        <pt x="270" y="666" on="1"/>
        <pt x="261" y="666" on="0"/>
        <pt x="229" y="650" on="0"/>
        <pt x="216" y="637" on="1"/>
        <pt x="206" y="627" on="0"/>
        <pt x="196" y="593" on="1"/>
        <pt x="186" y="566" on="0"/>
        <pt x="186" y="525" on="1"/>
        <pt x="186" y="475" on="1"/>
      </contour>
    </TTGlyph>
    <TTGlyph name="braceright" xMin="20" yMin="0" xMax="353" yMax="750">
      <contour>
        <pt x="353" y="375" on="1"/>
        <pt x="353" y="357" on="0"/>
        <pt x="329" y="333" on="0"/>
        <pt x="311" y="333" on="1"/>
        <pt x="280" y="333" on="1"/>
        <pt x="277" y="326" on="0"/>
        <pt x="270" y="293" on="0"/>
        <pt x="270" y="275" on="1"/>
        <pt x="270" y="225" on="1"/>
        <pt x="270" y="177" on="0"/>
        <pt x="255" y="128" on="1"/>
        <pt x="240" y="78" on="0"/>
        <pt x="217" y="55" on="1"/>
        <pt x="195" y="33" on="0"/>
        <pt x="131" y="0" on="0"/>
        <pt x="103" y="0" on="1"/>
        <pt x="61" y="0" on="1"/>
        <pt x="44" y="0" on="0"/>
        <pt x="20" y="24" on="0"/>
        <pt x="20" y="41" on="1"/>
        <pt x="20" y="58" on="0"/>
        <pt x="43" y="83" on="0"/>
        <pt x="61" y="83" on="1"/>
        <pt x="103" y="83" on="1"/>
        <pt x="112" y="83" on="0"/>
        <pt x="144" y="99" on="0"/>
        <pt x="155" y="110" on="1"/>
        <pt x="167" y="122" on="0"/>
        <pt x="186" y="189" on="0"/>
        <pt x="186" y="225" on="1"/>
        <pt x="186" y="275" on="1"/>
        <pt x="186" y="338" on="0"/>
        <pt x="208" y="375" on="1"/>
        <pt x="186" y="412" on="0"/>
        <pt x="186" y="475" on="1"/>
        <pt x="186" y="525" on="1"/>
        <pt x="186" y="566" on="0"/>
        <pt x="176" y="593" on="1"/>
        <pt x="166" y="626" on="0"/>
        <pt x="146" y="649" on="0"/>
        <pt x="128" y="657" on="1"/>
        <pt x="111" y="666" on="0"/>
        <pt x="103" y="666" on="1"/>
        <pt x="61" y="666" on="1"/>
        <pt x="44" y="666" on="0"/>
        <pt x="20" y="690" on="0"/>
        <pt x="20" y="708" on="1"/>
        <pt x="20" y="725" on="0"/>
        <pt x="43" y="750" on="0"/>
        <pt x="61" y="750" on="1"/>
        <pt x="103" y="750" on="1"/>
        <pt x="131" y="750" on="0"/>
        <pt x="195" y="717" on="0"/>
        <pt x="216" y="696" on="1"/>
        <pt x="241" y="670" on="0"/>
        <pt x="255" y="621" on="1"/>
        <pt x="270" y="571" on="0"/>
        <pt x="270" y="525" on="1"/>
        <pt x="270" y="475" on="1"/>
        <pt x="270" y="453" on="0"/>
        <pt x="275" y="427" on="0"/>
        <pt x="280" y="416" on="1"/>
        <pt x="311" y="416" on="1"/>
        <pt x="328" y="416" on="0"/>
        <pt x="353" y="393" on="0"/>
      </contour>
    </TTGlyph>
    <TTGlyph name="bracketleft" xMin="20" yMin="0" xMax="270" yMax="750">
      <contour>
        <pt x="104" y="141" on="1"/>
        <pt x="104" y="117" on="0"/>
        <pt x="128" y="83" on="0"/>
        <pt x="145" y="83" on="1"/>
        <pt x="229" y="83" on="1"/>
        <pt x="246" y="83" on="0"/>
        <pt x="270" y="59" on="0"/>
        <pt x="270" y="41" on="1"/>
        <pt x="270" y="24" on="0"/>
        <pt x="246" y="0" on="0"/>
        <pt x="229" y="0" on="1"/>
        <pt x="145" y="0" on="1"/>
        <pt x="95" y="0" on="0"/>
        <pt x="57" y="41" on="1"/>
        <pt x="20" y="81" on="0"/>
        <pt x="20" y="141" on="1"/>
        <pt x="20" y="608" on="1"/>
        <pt x="20" y="668" on="0"/>
        <pt x="57" y="708" on="1"/>
        <pt x="94" y="750" on="0"/>
        <pt x="145" y="750" on="1"/>
        <pt x="229" y="750" on="1"/>
        <pt x="246" y="750" on="0"/>
        <pt x="270" y="726" on="0"/>
        <pt x="270" y="708" on="1"/>
        <pt x="270" y="691" on="0"/>
        <pt x="247" y="666" on="0"/>
        <pt x="229" y="666" on="1"/>
        <pt x="145" y="666" on="1"/>
        <pt x="128" y="666" on="0"/>
        <pt x="104" y="632" on="0"/>
        <pt x="104" y="608" on="1"/>
      </contour>
    </TTGlyph>
    <TTGlyph name="bracketright" xMin="20" yMin="0" xMax="270" yMax="750">
      <contour>
        <pt x="270" y="141" on="1"/>
        <pt x="270" y="81" on="0"/>
        <pt x="234" y="41" on="1"/>
        <pt x="198" y="0" on="0"/>
        <pt x="145" y="0" on="1"/>
        <pt x="62" y="0" on="1"/>
        <pt x="45" y="0" on="0"/>
        <pt x="20" y="23" on="0"/>
        <pt x="20" y="41" on="1"/>
        <pt x="20" y="59" on="0"/>
        <pt x="44" y="83" on="0"/>
        <pt x="62" y="83" on="1"/>
        <pt x="145" y="83" on="1"/>
        <pt x="163" y="83" on="0"/>
        <pt x="187" y="117" on="0"/>
        <pt x="187" y="141" on="1"/>
        <pt x="187" y="608" on="1"/>
        <pt x="187" y="632" on="0"/>
        <pt x="163" y="666" on="0"/>
        <pt x="145" y="666" on="1"/>
        <pt x="62" y="666" on="1"/>
        <pt x="44" y="666" on="0"/>
        <pt x="20" y="690" on="0"/>
        <pt x="20" y="708" on="1"/>
        <pt x="20" y="726" on="0"/>
        <pt x="44" y="750" on="0"/>
        <pt x="62" y="750" on="1"/>
        <pt x="145" y="750" on="1"/>
        <pt x="197" y="750" on="0"/>
        <pt x="233" y="708" on="1"/>
        <pt x="270" y="668" on="0"/>
        <pt x="270" y="608" on="1"/>
      </contour>
    </TTGlyph>
    <TTGlyph name="c" xMin="20" yMin="0" xMax="436" yMax="416">
      <contour>
        <pt x="436" y="291" on="1"/>
        <pt x="436" y="274" on="0"/>
        <pt x="412" y="250" on="0"/>
        <pt x="395" y="250" on="1"/>
        <pt x="378" y="250" on="0"/>
        <pt x="353" y="273" on="0"/>
        <pt x="353" y="291" on="1"/>
        <pt x="353" y="322" on="1"/>
        <pt x="346" y="326" on="0"/>
        <pt x="314" y="333" on="0"/>
        <pt x="295" y="333" on="1"/>
        <pt x="161" y="333" on="1"/>
        <pt x="137" y="333" on="0"/>
        <pt x="103" y="299" on="0"/>
        <pt x="103" y="275" on="1"/>
        <pt x="103" y="141" on="1"/>
        <pt x="103" y="117" on="0"/>
        <pt x="137" y="83" on="0"/>
        <pt x="161" y="83" on="1"/>
        <pt x="295" y="83" on="1"/>
        <pt x="317" y="83" on="0"/>
        <pt x="344" y="89" on="0"/>
        <pt x="353" y="94" on="1"/>
        <pt x="353" y="125" on="1"/>
        <pt x="353" y="142" on="0"/>
        <pt x="377" y="166" on="0"/>
        <pt x="395" y="166" on="1"/>
        <pt x="412" y="166" on="0"/>
        <pt x="436" y="142" on="0"/>
        <pt x="436" y="125" on="1"/>
        <pt x="436" y="83" on="1"/>
        <pt x="436" y="46" on="0"/>
        <pt x="358" y="0" on="0"/>
        <pt x="295" y="0" on="1"/>
        <pt x="161" y="0" on="1"/>
        <pt x="102" y="0" on="0"/>
        <pt x="20" y="82" on="0"/>
        <pt x="20" y="141" on="1"/>
        <pt x="20" y="275" on="1"/>
        <pt x="20" y="334" on="0"/>
        <pt x="102" y="416" on="0"/>
        <pt x="161" y="416" on="1"/>
        <pt x="295" y="416" on="1"/>
        <pt x="358" y="416" on="0"/>
        <pt x="436" y="370" on="0"/>
        <pt x="436" y="333" on="1"/>
      </contour>
    </TTGlyph>
    <TTGlyph name="colon" xMin="20" yMin="0" xMax="103" yMax="750">
      <contour>
        <pt x="103" y="708" on="1"/>
        <pt x="103" y="691" on="0"/>
        <pt x="80" y="666" on="0"/>
        <pt x="62" y="666" on="1"/>
        <pt x="44" y="666" on="0"/>
        <pt x="20" y="690" on="0"/>
        <pt x="20" y="708" on="1"/>
        <pt x="20" y="726" on="0"/>
        <pt x="44" y="750" on="0"/>
        <pt x="62" y="750" on="1"/>
        <pt x="79" y="750" on="0"/>
        <pt x="103" y="726" on="0"/>
      </contour>
      <contour>
        <pt x="103" y="41" on="1"/>
        <pt x="103" y="24" on="0"/>
        <pt x="79" y="0" on="0"/>
        <pt x="62" y="0" on="1"/>
        <pt x="45" y="0" on="0"/>
        <pt x="20" y="23" on="0"/>
        <pt x="20" y="41" on="1"/>
        <pt x="20" y="59" on="0"/>
        <pt x="44" y="83" on="0"/>
        <pt x="62" y="83" on="1"/>
        <pt x="79" y="83" on="0"/>
        <pt x="103" y="59" on="0"/>
      </contour>
    </TTGlyph>
    <TTGlyph name="comma" xMin="20" yMin="-163" xMax="103" yMax="83">
      <contour>
        <pt x="103" y="-121" on="1"/>
        <pt x="103" y="-139" on="0"/>
        <pt x="79" y="-163" on="0"/>
        <pt x="61" y="-163" on="1"/>
        <pt x="44" y="-163" on="0"/>
        <pt x="20" y="-139" on="0"/>
        <pt x="20" y="-121" on="1"/>
        <pt x="20" y="41" on="1"/>
        <pt x="20" y="58" on="0"/>
        <pt x="43" y="83" on="0"/>
        <pt x="61" y="83" on="1"/>
        <pt x="79" y="83" on="0"/>
        <pt x="103" y="59" on="0"/>
        <pt x="103" y="41" on="1"/>
      </contour>
    </TTGlyph>
    <TTGlyph name="d" xMin="20" yMin="0" xMax="520" yMax="750">
      <contour>
        <pt x="437" y="141" on="1"/>
        <pt x="437" y="120" on="0"/>
        <pt x="442" y="93" on="0"/>
        <pt x="447" y="83" on="1"/>
        <pt x="478" y="83" on="1"/>
        <pt x="496" y="83" on="0"/>
        <pt x="520" y="59" on="0"/>
        <pt x="520" y="41" on="1"/>
        <pt x="520" y="24" on="0"/>
        <pt x="496" y="0" on="0"/>
        <pt x="478" y="0" on="1"/>
        <pt x="437" y="0" on="1"/>
        <pt x="405" y="0" on="0"/>
        <pt x="383" y="30" on="1"/>
        <pt x="344" y="0" on="0"/>
        <pt x="295" y="0" on="1"/>
        <pt x="162" y="0" on="1"/>
        <pt x="106" y="0" on="0"/>
        <pt x="62" y="41" on="1"/>
        <pt x="20" y="81" on="0"/>
        <pt x="20" y="141" on="1"/>
        <pt x="20" y="275" on="1"/>
        <pt x="20" y="334" on="0"/>
        <pt x="102" y="416" on="0"/>
        <pt x="162" y="416" on="1"/>
        <pt x="295" y="416" on="1"/>
        <pt x="327" y="416" on="0"/>
        <pt x="353" y="404" on="1"/>
        <pt x="353" y="608" on="1"/>
        <pt x="353" y="671" on="0"/>
        <pt x="400" y="750" on="0"/>
        <pt x="437" y="750" on="1"/>
        <pt x="478" y="750" on="1"/>
        <pt x="496" y="750" on="0"/>
        <pt x="520" y="726" on="0"/>
        <pt x="520" y="708" on="1"/>
        <pt x="520" y="690" on="0"/>
        <pt x="496" y="666" on="0"/>
        <pt x="478" y="666" on="1"/>
        <pt x="447" y="666" on="1"/>
        <pt x="444" y="660" on="0"/>
        <pt x="437" y="627" on="0"/>
        <pt x="437" y="608" on="1"/>
        <pt x="437" y="141" on="1"/>
      </contour>
      <contour>
        <pt x="353" y="275" on="1"/>
        <pt x="353" y="299" on="0"/>
        <pt x="319" y="333" on="0"/>
        <pt x="295" y="333" on="1"/>
        <pt x="162" y="333" on="1"/>
        <pt x="137" y="333" on="0"/>
        <pt x="103" y="299" on="0"/>
        <pt x="103" y="275" on="1"/>
        <pt x="103" y="141" on="1"/>
        <pt x="103" y="117" on="0"/>
        <pt x="137" y="83" on="0"/>
        <pt x="162" y="83" on="1"/>
        <pt x="295" y="83" on="1"/>
        <pt x="319" y="83" on="0"/>
        <pt x="353" y="117" on="0"/>
        <pt x="353" y="141" on="1"/>
      </contour>
    </TTGlyph>
    <TTGlyph name="dollar" xMin="20" yMin="-80" xMax="436" yMax="833">
      <contour>
        <pt x="436" y="625" on="1"/>
        <pt x="436" y="608" on="0"/>
        <pt x="413" y="583" on="0"/>
        <pt x="395" y="583" on="1"/>
        <pt x="377" y="583" on="0"/>
        <pt x="353" y="607" on="0"/>
        <pt x="353" y="625" on="1"/>
        <pt x="353" y="656" on="1"/>
        <pt x="346" y="659" on="0"/>
        <pt x="313" y="666" on="0"/>
        <pt x="295" y="666" on="1"/>
        <pt x="161" y="666" on="1"/>
        <pt x="137" y="666" on="0"/>
        <pt x="103" y="632" on="0"/>
        <pt x="103" y="608" on="1"/>
        <pt x="103" y="475" on="1"/>
        <pt x="103" y="452" on="0"/>
        <pt x="137" y="416" on="0"/>
        <pt x="161" y="416" on="1"/>
        <pt x="295" y="416" on="1"/>
        <pt x="354" y="416" on="0"/>
        <pt x="436" y="334" on="0"/>
        <pt x="436" y="275" on="1"/>
        <pt x="436" y="141" on="1"/>
        <pt x="436" y="82" on="0"/>
        <pt x="354" y="0" on="0"/>
        <pt x="295" y="0" on="1"/>
        <pt x="270" y="0" on="1"/>
        <pt x="270" y="-38" on="1"/>
        <pt x="270" y="-56" on="0"/>
        <pt x="246" y="-80" on="0"/>
        <pt x="228" y="-80" on="1"/>
        <pt x="210" y="-80" on="0"/>
        <pt x="186" y="-56" on="0"/>
        <pt x="186" y="-38" on="1"/>
        <pt x="186" y="0" on="1"/>
        <pt x="161" y="0" on="1"/>
        <pt x="98" y="0" on="0"/>
        <pt x="20" y="46" on="0"/>
        <pt x="20" y="83" on="1"/>
        <pt x="20" y="125" on="1"/>
        <pt x="20" y="142" on="0"/>
        <pt x="44" y="166" on="0"/>
        <pt x="61" y="166" on="1"/>
        <pt x="79" y="166" on="0"/>
        <pt x="103" y="142" on="0"/>
        <pt x="103" y="125" on="1"/>
        <pt x="103" y="94" on="1"/>
        <pt x="110" y="90" on="0"/>
        <pt x="142" y="83" on="0"/>
        <pt x="161" y="83" on="1"/>
        <pt x="295" y="83" on="1"/>
        <pt x="319" y="83" on="0"/>
        <pt x="353" y="117" on="0"/>
        <pt x="353" y="141" on="1"/>
        <pt x="353" y="275" on="1"/>
        <pt x="353" y="299" on="0"/>
        <pt x="319" y="333" on="0"/>
        <pt x="295" y="333" on="1"/>
        <pt x="161" y="333" on="1"/>
        <pt x="102" y="333" on="0"/>
        <pt x="20" y="415" on="0"/>
        <pt x="20" y="475" on="1"/>
        <pt x="20" y="608" on="1"/>
        <pt x="20" y="664" on="0"/>
        <pt x="61" y="708" on="1"/>
        <pt x="101" y="750" on="0"/>
        <pt x="161" y="750" on="1"/>
        <pt x="186" y="750" on="1"/>
        <pt x="186" y="791" on="1"/>
        <pt x="186" y="809" on="0"/>
        <pt x="210" y="833" on="0"/>
        <pt x="228" y="833" on="1"/>
        <pt x="246" y="833" on="0"/>
        <pt x="270" y="809" on="0"/>
        <pt x="270" y="791" on="1"/>
        <pt x="270" y="750" on="1"/>
        <pt x="295" y="750" on="1"/>
        <pt x="358" y="750" on="0"/>
        <pt x="436" y="704" on="0"/>
        <pt x="436" y="666" on="1"/>
      </contour>
    </TTGlyph>
    <TTGlyph name="e" xMin="20" yMin="0" xMax="436" yMax="416">
      <contour>
        <pt x="436" y="266" on="1"/>
        <pt x="436" y="207" on="0"/>
        <pt x="354" y="125" on="0"/>
        <pt x="295" y="125" on="1"/>
        <pt x="161" y="125" on="1"/>
        <pt x="130" y="125" on="0"/>
        <pt x="103" y="137" on="1"/>
        <pt x="103" y="116" on="0"/>
        <pt x="129" y="83" on="0"/>
        <pt x="145" y="83" on="1"/>
        <pt x="228" y="83" on="1"/>
        <pt x="246" y="83" on="0"/>
        <pt x="270" y="59" on="0"/>
        <pt x="270" y="41" on="1"/>
        <pt x="270" y="24" on="0"/>
        <pt x="246" y="0" on="0"/>
        <pt x="228" y="0" on="1"/>
        <pt x="145" y="0" on="1"/>
        <pt x="94" y="0" on="0"/>
        <pt x="56" y="41" on="1"/>
        <pt x="20" y="83" on="0"/>
        <pt x="20" y="141" on="1"/>
        <pt x="20" y="275" on="1"/>
        <pt x="20" y="334" on="0"/>
        <pt x="102" y="416" on="0"/>
        <pt x="161" y="416" on="1"/>
        <pt x="295" y="416" on="1"/>
        <pt x="354" y="416" on="0"/>
        <pt x="436" y="334" on="0"/>
        <pt x="436" y="275" on="1"/>
      </contour>
      <contour>
        <pt x="353" y="275" on="1"/>
        <pt x="353" y="299" on="0"/>
        <pt x="319" y="333" on="0"/>
        <pt x="295" y="333" on="1"/>
        <pt x="161" y="333" on="1"/>
        <pt x="137" y="333" on="0"/>
        <pt x="103" y="299" on="0"/>
        <pt x="103" y="275" on="1"/>
        <pt x="103" y="266" on="1"/>
        <pt x="103" y="242" on="0"/>
        <pt x="137" y="208" on="0"/>
        <pt x="161" y="208" on="1"/>
        <pt x="295" y="208" on="1"/>
        <pt x="319" y="208" on="0"/>
        <pt x="353" y="242" on="0"/>
        <pt x="353" y="266" on="1"/>
        <pt x="353" y="275" on="1"/>
      </contour>
    </TTGlyph>
    <TTGlyph name="eight" xMin="20" yMin="0" xMax="436" yMax="750">
      <contour>
        <pt x="436" y="475" on="1"/>
        <pt x="436" y="414" on="0"/>
        <pt x="395" y="375" on="1"/>
        <pt x="436" y="334" on="0"/>
        <pt x="436" y="275" on="1"/>
        <pt x="436" y="141" on="1"/>
        <pt x="436" y="82" on="0"/>
        <pt x="354" y="0" on="0"/>
        <pt x="295" y="0" on="1"/>
        <pt x="161" y="0" on="1"/>
        <pt x="102" y="0" on="0"/>
        <pt x="20" y="82" on="0"/>
        <pt x="20" y="141" on="1"/>
        <pt x="20" y="275" on="1"/>
        <pt x="20" y="334" on="0"/>
        <pt x="61" y="375" on="1"/>
        <pt x="20" y="416" on="0"/>
        <pt x="20" y="475" on="1"/>
        <pt x="20" y="608" on="1"/>
        <pt x="20" y="664" on="0"/>
        <pt x="61" y="708" on="1"/>
        <pt x="101" y="750" on="0"/>
        <pt x="161" y="750" on="1"/>
        <pt x="295" y="750" on="1"/>
        <pt x="354" y="750" on="0"/>
        <pt x="436" y="668" on="0"/>
        <pt x="436" y="608" on="1"/>
      </contour>
      <contour>
        <pt x="103" y="475" on="1"/>
        <pt x="103" y="452" on="0"/>
        <pt x="137" y="416" on="0"/>
        <pt x="161" y="416" on="1"/>
        <pt x="295" y="416" on="1"/>
        <pt x="319" y="416" on="0"/>
        <pt x="353" y="450" on="0"/>
        <pt x="353" y="475" on="1"/>
        <pt x="353" y="608" on="1"/>
        <pt x="353" y="632" on="0"/>
        <pt x="319" y="666" on="0"/>
        <pt x="295" y="666" on="1"/>
        <pt x="161" y="666" on="1"/>
        <pt x="137" y="666" on="0"/>
        <pt x="103" y="632" on="0"/>
        <pt x="103" y="608" on="1"/>
        <pt x="103" y="475" on="1"/>
      </contour>
      <contour>
        <pt x="353" y="275" on="1"/>
        <pt x="353" y="299" on="0"/>
        <pt x="319" y="333" on="0"/>
        <pt x="295" y="333" on="1"/>
        <pt x="161" y="333" on="1"/>
        <pt x="137" y="333" on="0"/>
        <pt x="103" y="299" on="0"/>
        <pt x="103" y="275" on="1"/>
        <pt x="103" y="141" on="1"/>
        <pt x="103" y="117" on="0"/>
        <pt x="137" y="83" on="0"/>
        <pt x="161" y="83" on="1"/>
        <pt x="295" y="83" on="1"/>
        <pt x="319" y="83" on="0"/>
        <pt x="353" y="117" on="0"/>
        <pt x="353" y="141" on="1"/>
        <pt x="353" y="275" on="1"/>
      </contour>
    </TTGlyph>
    <TTGlyph name="equal" xMin="20" yMin="250" xMax="436" yMax="500">
      <contour>
        <pt x="436" y="458" on="1"/>
        <pt x="436" y="441" on="0"/>
        <pt x="413" y="416" on="0"/>
        <pt x="395" y="416" on="1"/>
        <pt x="61" y="416" on="1"/>
        <pt x="44" y="416" on="0"/>
        <pt x="20" y="440" on="0"/>
        <pt x="20" y="458" on="1"/>
        <pt x="20" y="475" on="0"/>
        <pt x="43" y="500" on="0"/>
        <pt x="61" y="500" on="1"/>
        <pt x="395" y="500" on="1"/>
        <pt x="412" y="500" on="0"/>
        <pt x="436" y="476" on="0"/>
      </contour>
      <contour>
        <pt x="436" y="291" on="1"/>
        <pt x="436" y="274" on="0"/>
        <pt x="412" y="250" on="0"/>
        <pt x="395" y="250" on="1"/>
        <pt x="61" y="250" on="1"/>
        <pt x="44" y="250" on="0"/>
        <pt x="20" y="274" on="0"/>
        <pt x="20" y="291" on="1"/>
        <pt x="20" y="308" on="0"/>
        <pt x="43" y="333" on="0"/>
        <pt x="61" y="333" on="1"/>
        <pt x="395" y="333" on="1"/>
        <pt x="412" y="333" on="0"/>
        <pt x="436" y="309" on="0"/>
      </contour>
    </TTGlyph>
    <TTGlyph name="exclam" xMin="20" yMin="0" xMax="270" yMax="750">
      <contour>
        <pt x="270" y="208" on="1"/>
        <pt x="270" y="191" on="0"/>
        <pt x="247" y="166" on="0"/>
        <pt x="229" y="166" on="1"/>
        <pt x="187" y="166" on="1"/>
        <pt x="150" y="166" on="0"/>
        <pt x="104" y="245" on="0"/>
        <pt x="104" y="308" on="1"/>
        <pt x="104" y="608" on="1"/>
        <pt x="104" y="627" on="0"/>
        <pt x="97" y="658" on="0"/>
        <pt x="93" y="666" on="1"/>
        <pt x="62" y="666" on="1"/>
        <pt x="44" y="666" on="0"/>
        <pt x="20" y="690" on="0"/>
        <pt x="20" y="708" on="1"/>
        <pt x="20" y="726" on="0"/>
        <pt x="44" y="750" on="0"/>
        <pt x="62" y="750" on="1"/>
        <pt x="104" y="750" on="1"/>
        <pt x="141" y="750" on="0"/>
        <pt x="187" y="671" on="0"/>
        <pt x="187" y="608" on="1"/>
        <pt x="187" y="308" on="1"/>
        <pt x="187" y="289" on="0"/>
        <pt x="194" y="258" on="0"/>
        <pt x="198" y="250" on="1"/>
        <pt x="229" y="250" on="1"/>
        <pt x="246" y="250" on="0"/>
        <pt x="270" y="226" on="0"/>
      </contour>
      <contour>
        <pt x="187" y="41" on="1"/>
        <pt x="187" y="24" on="0"/>
        <pt x="163" y="0" on="0"/>
        <pt x="145" y="0" on="1"/>
        <pt x="128" y="0" on="0"/>
        <pt x="104" y="24" on="0"/>
        <pt x="104" y="41" on="1"/>
        <pt x="104" y="58" on="0"/>
        <pt x="127" y="83" on="0"/>
        <pt x="145" y="83" on="1"/>
        <pt x="163" y="83" on="0"/>
        <pt x="187" y="59" on="0"/>
      </contour>
    </TTGlyph>
    <TTGlyph name="f" xMin="20" yMin="0" xMax="520" yMax="750">
      <contour>
        <pt x="520" y="625" on="1"/>
        <pt x="520" y="607" on="0"/>
        <pt x="496" y="583" on="0"/>
        <pt x="478" y="583" on="1"/>
        <pt x="461" y="583" on="0"/>
        <pt x="437" y="607" on="0"/>
        <pt x="437" y="625" on="1"/>
        <pt x="437" y="656" on="1"/>
        <pt x="436" y="657" on="0"/>
        <pt x="423" y="660" on="1"/>
        <pt x="399" y="666" on="0"/>
        <pt x="378" y="666" on="1"/>
        <pt x="245" y="666" on="1"/>
        <pt x="221" y="666" on="0"/>
        <pt x="187" y="632" on="0"/>
        <pt x="187" y="608" on="1"/>
        <pt x="187" y="416" on="1"/>
        <pt x="228" y="416" on="1"/>
        <pt x="245" y="416" on="0"/>
        <pt x="270" y="393" on="0"/>
        <pt x="270" y="375" on="1"/>
        <pt x="270" y="357" on="0"/>
        <pt x="246" y="333" on="0"/>
        <pt x="228" y="333" on="1"/>
        <pt x="187" y="333" on="1"/>
        <pt x="187" y="125" on="1"/>
        <pt x="187" y="111" on="0"/>
        <pt x="192" y="89" on="0"/>
        <pt x="195" y="83" on="1"/>
        <pt x="228" y="83" on="1"/>
        <pt x="246" y="83" on="0"/>
        <pt x="270" y="59" on="0"/>
        <pt x="270" y="41" on="1"/>
        <pt x="270" y="24" on="0"/>
        <pt x="246" y="0" on="0"/>
        <pt x="228" y="0" on="1"/>
        <pt x="187" y="0" on="1"/>
        <pt x="160" y="0" on="0"/>
        <pt x="144" y="16" on="1"/>
        <pt x="128" y="0" on="0"/>
        <pt x="103" y="0" on="1"/>
        <pt x="62" y="0" on="1"/>
        <pt x="45" y="0" on="0"/>
        <pt x="20" y="23" on="0"/>
        <pt x="20" y="41" on="1"/>
        <pt x="20" y="59" on="0"/>
        <pt x="44" y="83" on="0"/>
        <pt x="62" y="83" on="1"/>
        <pt x="93" y="83" on="1"/>
        <pt x="96" y="90" on="0"/>
        <pt x="103" y="123" on="0"/>
        <pt x="103" y="141" on="1"/>
        <pt x="103" y="333" on="1"/>
        <pt x="62" y="333" on="1"/>
        <pt x="44" y="333" on="0"/>
        <pt x="20" y="357" on="0"/>
        <pt x="20" y="375" on="1"/>
        <pt x="20" y="392" on="0"/>
        <pt x="44" y="416" on="0"/>
        <pt x="62" y="416" on="1"/>
        <pt x="103" y="416" on="1"/>
        <pt x="103" y="608" on="1"/>
        <pt x="103" y="667" on="0"/>
        <pt x="144" y="708" on="1"/>
        <pt x="186" y="750" on="0"/>
        <pt x="245" y="750" on="1"/>
        <pt x="378" y="750" on="1"/>
        <pt x="441" y="750" on="0"/>
        <pt x="520" y="703" on="0"/>
        <pt x="520" y="666" on="1"/>
      </contour>
    </TTGlyph>
    <TTGlyph name="five" xMin="20" yMin="0" xMax="436" yMax="750">
      <contour>
        <pt x="436" y="625" on="1"/>
        <pt x="436" y="608" on="0"/>
        <pt x="413" y="583" on="0"/>
        <pt x="395" y="583" on="1"/>
        <pt x="377" y="583" on="0"/>
        <pt x="353" y="607" on="0"/>
        <pt x="353" y="625" on="1"/>
        <pt x="353" y="656" on="1"/>
        <pt x="346" y="659" on="0"/>
        <pt x="313" y="666" on="0"/>
        <pt x="295" y="666" on="1"/>
        <pt x="103" y="666" on="1"/>
        <pt x="103" y="475" on="1"/>
        <pt x="103" y="452" on="0"/>
        <pt x="137" y="416" on="0"/>
        <pt x="161" y="416" on="1"/>
        <pt x="295" y="416" on="1"/>
        <pt x="354" y="416" on="0"/>
        <pt x="436" y="334" on="0"/>
        <pt x="436" y="275" on="1"/>
        <pt x="436" y="141" on="1"/>
        <pt x="436" y="82" on="0"/>
        <pt x="354" y="0" on="0"/>
        <pt x="295" y="0" on="1"/>
        <pt x="161" y="0" on="1"/>
        <pt x="98" y="0" on="0"/>
        <pt x="20" y="46" on="0"/>
        <pt x="20" y="83" on="1"/>
        <pt x="20" y="125" on="1"/>
        <pt x="20" y="142" on="0"/>
        <pt x="44" y="166" on="0"/>
        <pt x="61" y="166" on="1"/>
        <pt x="79" y="166" on="0"/>
        <pt x="103" y="142" on="0"/>
        <pt x="103" y="125" on="1"/>
        <pt x="103" y="94" on="1"/>
        <pt x="110" y="90" on="0"/>
        <pt x="142" y="83" on="0"/>
        <pt x="161" y="83" on="1"/>
        <pt x="295" y="83" on="1"/>
        <pt x="319" y="83" on="0"/>
        <pt x="353" y="117" on="0"/>
        <pt x="353" y="141" on="1"/>
        <pt x="353" y="275" on="1"/>
        <pt x="353" y="299" on="0"/>
        <pt x="319" y="333" on="0"/>
        <pt x="295" y="333" on="1"/>
        <pt x="161" y="333" on="1"/>
        <pt x="102" y="333" on="0"/>
        <pt x="20" y="415" on="0"/>
        <pt x="20" y="475" on="1"/>
        <pt x="20" y="708" on="1"/>
        <pt x="20" y="725" on="0"/>
        <pt x="43" y="750" on="0"/>
        <pt x="61" y="750" on="1"/>
        <pt x="295" y="750" on="1"/>
        <pt x="358" y="750" on="0"/>
        <pt x="436" y="704" on="0"/>
        <pt x="436" y="666" on="1"/>
      </contour>
    </TTGlyph>
    <TTGlyph name="four" xMin="20" yMin="0" xMax="603" yMax="750">
      <contour>
        <pt x="520" y="141" on="1"/>
        <pt x="520" y="123" on="0"/>
        <pt x="527" y="93" on="0"/>
        <pt x="531" y="83" on="1"/>
        <pt x="562" y="83" on="1"/>
        <pt x="579" y="83" on="0"/>
        <pt x="603" y="59" on="0"/>
        <pt x="603" y="41" on="1"/>
        <pt x="603" y="24" on="0"/>
        <pt x="579" y="0" on="0"/>
        <pt x="562" y="0" on="1"/>
        <pt x="520" y="0" on="1"/>
        <pt x="497" y="0" on="0"/>
        <pt x="478" y="16" on="1"/>
        <pt x="462" y="0" on="0"/>
        <pt x="437" y="0" on="1"/>
        <pt x="395" y="0" on="1"/>
        <pt x="378" y="0" on="0"/>
        <pt x="353" y="23" on="0"/>
        <pt x="353" y="41" on="1"/>
        <pt x="353" y="59" on="0"/>
        <pt x="377" y="83" on="0"/>
        <pt x="395" y="83" on="1"/>
        <pt x="426" y="83" on="1"/>
        <pt x="437" y="103" on="0"/>
        <pt x="437" y="141" on="1"/>
        <pt x="437" y="333" on="1"/>
        <pt x="245" y="333" on="1"/>
        <pt x="188" y="333" on="0"/>
        <pt x="144" y="374" on="1"/>
        <pt x="103" y="418" on="0"/>
        <pt x="103" y="475" on="1"/>
        <pt x="103" y="608" on="1"/>
        <pt x="103" y="650" on="0"/>
        <pt x="93" y="666" on="1"/>
        <pt x="62" y="666" on="1"/>
        <pt x="44" y="666" on="0"/>
        <pt x="20" y="690" on="0"/>
        <pt x="20" y="708" on="1"/>
        <pt x="20" y="726" on="0"/>
        <pt x="44" y="750" on="0"/>
        <pt x="62" y="750" on="1"/>
        <pt x="103" y="750" on="1"/>
        <pt x="128" y="750" on="0"/>
        <pt x="144" y="734" on="1"/>
        <pt x="163" y="750" on="0"/>
        <pt x="187" y="750" on="1"/>
        <pt x="228" y="750" on="1"/>
        <pt x="246" y="750" on="0"/>
        <pt x="270" y="726" on="0"/>
        <pt x="270" y="708" on="1"/>
        <pt x="270" y="690" on="0"/>
        <pt x="246" y="666" on="0"/>
        <pt x="228" y="666" on="1"/>
        <pt x="195" y="666" on="1"/>
        <pt x="192" y="661" on="0"/>
        <pt x="187" y="639" on="0"/>
        <pt x="187" y="625" on="1"/>
        <pt x="187" y="475" on="1"/>
        <pt x="187" y="452" on="0"/>
        <pt x="221" y="416" on="0"/>
        <pt x="245" y="416" on="1"/>
        <pt x="437" y="416" on="1"/>
        <pt x="437" y="608" on="1"/>
        <pt x="437" y="627" on="0"/>
        <pt x="430" y="658" on="0"/>
        <pt x="426" y="666" on="1"/>
        <pt x="395" y="666" on="1"/>
        <pt x="377" y="666" on="0"/>
        <pt x="353" y="690" on="0"/>
        <pt x="353" y="708" on="1"/>
        <pt x="353" y="726" on="0"/>
        <pt x="377" y="750" on="0"/>
        <pt x="395" y="750" on="1"/>
        <pt x="437" y="750" on="1"/>
        <pt x="461" y="750" on="0"/>
        <pt x="478" y="733" on="1"/>
        <pt x="498" y="750" on="0"/>
        <pt x="520" y="750" on="1"/>
        <pt x="562" y="750" on="1"/>
        <pt x="579" y="750" on="0"/>
        <pt x="603" y="726" on="0"/>
        <pt x="603" y="708" on="1"/>
        <pt x="603" y="691" on="0"/>
        <pt x="580" y="666" on="0"/>
        <pt x="562" y="666" on="1"/>
        <pt x="531" y="666" on="1"/>
        <pt x="520" y="646" on="0"/>
        <pt x="520" y="608" on="1"/>
        <pt x="520" y="141" on="1"/>
      </contour>
    </TTGlyph>
    <TTGlyph name="g" xMin="20" yMin="-121" xMax="520" yMax="416">
      <contour>
        <pt x="520" y="375" on="1"/>
        <pt x="520" y="357" on="0"/>
        <pt x="496" y="333" on="0"/>
        <pt x="478" y="333" on="1"/>
        <pt x="447" y="333" on="1"/>
        <pt x="444" y="326" on="0"/>
        <pt x="437" y="293" on="0"/>
        <pt x="437" y="275" on="1"/>
        <pt x="437" y="16" on="1"/>
        <pt x="437" y="-40" on="0"/>
        <pt x="401" y="-80" on="1"/>
        <pt x="365" y="-121" on="0"/>
        <pt x="312" y="-121" on="1"/>
        <pt x="228" y="-121" on="1"/>
        <pt x="211" y="-121" on="0"/>
        <pt x="187" y="-97" on="0"/>
        <pt x="187" y="-80" on="1"/>
        <pt x="187" y="-63" on="0"/>
        <pt x="210" y="-38" on="0"/>
        <pt x="228" y="-38" on="1"/>
        <pt x="312" y="-38" on="1"/>
        <pt x="328" y="-38" on="0"/>
        <pt x="353" y="-5" on="0"/>
        <pt x="353" y="12" on="1"/>
        <pt x="326" y="0" on="0"/>
        <pt x="295" y="0" on="1"/>
        <pt x="162" y="0" on="1"/>
        <pt x="106" y="0" on="0"/>
        <pt x="62" y="41" on="1"/>
        <pt x="20" y="81" on="0"/>
        <pt x="20" y="141" on="1"/>
        <pt x="20" y="275" on="1"/>
        <pt x="20" y="334" on="0"/>
        <pt x="102" y="416" on="0"/>
        <pt x="162" y="416" on="1"/>
        <pt x="295" y="416" on="1"/>
        <pt x="344" y="416" on="0"/>
        <pt x="383" y="386" on="1"/>
        <pt x="405" y="416" on="0"/>
        <pt x="437" y="416" on="1"/>
        <pt x="478" y="416" on="1"/>
        <pt x="495" y="416" on="0"/>
        <pt x="520" y="393" on="0"/>
      </contour>
      <contour>
        <pt x="353" y="275" on="1"/>
        <pt x="353" y="299" on="0"/>
        <pt x="319" y="333" on="0"/>
        <pt x="295" y="333" on="1"/>
        <pt x="162" y="333" on="1"/>
        <pt x="137" y="333" on="0"/>
        <pt x="103" y="299" on="0"/>
        <pt x="103" y="275" on="1"/>
        <pt x="103" y="141" on="1"/>
        <pt x="103" y="117" on="0"/>
        <pt x="137" y="83" on="0"/>
        <pt x="162" y="83" on="1"/>
        <pt x="295" y="83" on="1"/>
        <pt x="319" y="83" on="0"/>
        <pt x="353" y="117" on="0"/>
        <pt x="353" y="141" on="1"/>
      </contour>
    </TTGlyph>
</ttFont>
